<?xml version="1.0" encoding="utf-8"?>
<!-- Generator: Adobe Illustrator 27.5.0, SVG Export Plug-In . SVG Version: 6.00 Build 0)  -->
<svg version="1.1" xmlns="http://www.w3.org/2000/svg" xmlns:xlink="http://www.w3.org/1999/xlink" x="0px" y="0px"
	 viewBox="0 0 500 500" style="enable-background:new 0 0 500 500;" xml:space="preserve">
<g id="BACKGROUND">
	<rect style="fill:#FFFFFF;" width="500" height="500"/>
</g>
<g id="OBJECTS">
	<g>
		<defs>
			<rect id="SVGID_1_" width="500" height="500"/>
		</defs>
		<clipPath id="SVGID_00000065066644157879912390000011684629094559622820_">
			<use xlink:href="#SVGID_1_"  style="overflow:visible;"/>
		</clipPath>
		<g style="clip-path:url(#SVGID_00000065066644157879912390000011684629094559622820_);">
			<rect x="-23.495" y="437.11" style="fill:#E2EAF2;" width="546.99" height="81.968"/>
			<g>
				<g>
					<g>
						<path style="fill:#6B8BD1;" d="M262.754,239.847c0,0,10.666,1.684,21.893,14.034c11.227,12.35,28.63,84.767,28.63,84.767
							s15.718-34.805,24.139-38.734c8.421-3.93,24.139-2.245,31.437,8.982c7.298,11.227-6.175,37.05-15.157,48.839
							c-8.982,11.789-32.559,31.998-46.032,29.753c-13.473-2.245-35.927-11.227-35.927-11.227L262.754,239.847z"/>
						<path style="fill:#4A2D3E;" d="M170.542,402.698c0,0-7.217,15.09-7.217,30.837S166.628,500,166.628,500h115.473
							c0,0,2.603-79.587-5.27-94.678C247.962,410.571,170.542,402.698,170.542,402.698z"/>
						<path style="opacity:0.25;fill:#4A2D3E;" d="M280.672,423.37c-22.35,5.46-65.58,11.5-115.45-4.93
							c2.13-9.08,5.32-15.74,5.32-15.74s77.42,7.87,106.29,2.62C278.582,408.68,279.812,415.22,280.672,423.37z"/>
						<path style="fill:#6B8BD1;" d="M212.676,232.769c0,0-30.98,1.356-36.085,11.853c-5.105,10.498-15.608,139.049-13.055,145.61
							c2.553,6.561,7.02,7.873,7.02,7.873s-3.191,9.841,0.638,12.466c3.829,2.624,86.155,15.09,109.13,1.968
							c1.915-3.28-1.276-14.434-1.276-14.434s1.276,3.937,5.744-5.249c4.467-9.185,1.481-117.942-11.449-145.958
							C269.377,238.309,241.394,231.457,212.676,232.769z"/>
						<path style="opacity:0.25;fill:#6B8BD1;" d="M182.553,319.367c4.433,20.932,44.264,40.323,44.264,40.323
							s-46.15-12.584-50.095-13.153L182.553,319.367z"/>
						<path style="fill:#FCA695;" d="M210.914,235.957c6.816,9.656,30.43,13.43,34.012,10.446c1.742-1.45,1.998-7.273,1.815-12.877
							c-0.207-5.909-0.926-11.586-0.926-11.586s-15.923-3.984-26.168-10.197c-1.986-1.194-5.84-4.865-7.241-6.218
							C210.914,216.266,207.334,230.885,210.914,235.957z"/>
						<path style="opacity:0.46;fill:#FCA695;" d="M215.98,210.891c0,0,2.095,9.259,10.745,16.41
							c5.604,4.641,14.473,5.909,20.016,6.225c-0.207-5.909-0.926-11.586-0.926-11.586s-15.923-3.984-26.168-10.197L215.98,210.891z
							"/>
						<path style="fill:#FCA695;" d="M271.151,169.061c1.97,8.85,2.195,43.966-7.13,52.277
							c-13.724,12.232-47.059,2.392-56.089-19.989c-7.66-18.985-6.833-51.345,14.166-57.4
							C247.627,136.586,267.089,150.818,271.151,169.061z"/>
						<path style="fill:#5A2402;" d="M215.39,192.995c0,0,8.95-14.321,5.37-35.205c9.249,5.669,48.332,5.37,54.001,4.177
							c5.669-1.193,1.193-13.426-21.481-22.973c-22.674-9.547-42.664-1.193-42.962,7.757c-2.984-8.95-5.669-9.249-7.459-5.669
							c-1.79,3.58,6.265,7.16,6.265,7.16s-8.652,5.967-9.547,20.586C198.682,183.448,207.931,206.122,215.39,192.995z"/>
						<path style="fill:none;stroke:#DB7665;stroke-linecap:round;stroke-miterlimit:10;" d="M251.191,179.942
							c0,0,4.923,14.768,3.133,18.125c-1.79,3.356-7.384,2.238-8.951,0.224"/>
						<path style="fill:#5A2402;" d="M267.078,167.859c-3.282-3.804-9.398-4.028-12.754-2.461c-3.357,1.566-1.119,7.16,1.566,6.489
							c2.685-0.671,7.384-1.342,9.845-0.447C268.197,172.335,268.22,169.183,267.078,167.859z"/>
						<path style="fill:#5A2402;" d="M226.065,168.754c3.282-3.804,9.398-4.028,12.754-2.461s1.119,7.16-1.566,6.489
							c-2.685-0.671-7.384-1.343-9.845-0.448C224.946,173.23,224.923,170.078,226.065,168.754z"/>
						<path style="fill:#5A2402;" d="M256.338,181.509c0,1.977,1.202,3.58,2.685,3.58c1.483,0,2.685-1.603,2.685-3.58
							c0-1.977-1.202-3.58-2.685-3.58C257.54,177.929,256.338,179.531,256.338,181.509z"/>
						<path style="fill:#5A2402;" d="M232.395,182.404c0,1.977,1.202,3.58,2.685,3.58c1.483,0,2.685-1.603,2.685-3.58
							c0-1.977-1.202-3.58-2.685-3.58C233.598,178.824,232.395,180.426,232.395,182.404z"/>
						<path style="fill:#FFFFFF;" d="M250.744,205.899c0,0-6.042,0-9.174-1.566c-3.133-1.566-4.475-1.343-4.923,0.447
							c-0.447,1.79,2.461,5.594,6.713,6.489c4.251,0.895,7.384-0.671,8.95-2.909S252.31,206.122,250.744,205.899z"/>
						<path style="fill:#FCA695;" d="M213.152,186.432c0,0-3.804-7.16-9.622-4.699c-5.09,2.153-4.251,7.384-2.685,11.412
							c1.566,4.028,6.265,8.055,9.622,7.832S217.18,196.501,213.152,186.432z"/>
						<path style="fill:none;stroke:#DB7665;stroke-linecap:round;stroke-miterlimit:10;" d="M211.138,196.277
							c2.163-2.014,0.461-9.113-3.356-11.188c-3.431-1.865-4.923,2.909-4.923,2.909"/>
						<path style="opacity:0.46;fill:#FCA695;" d="M212.033,194.711c0,0-5.594,2.461-6.937-5.37
							c-0.895-4.251,2.685-4.251,2.685-4.251S212.257,188.445,212.033,194.711z"/>
						<path style="fill:none;stroke:#DB7665;stroke-linecap:round;stroke-miterlimit:10;" d="M210.914,188.594
							c0,0-3.878-0.447-4.326,3.133"/>
						<path style="fill:none;stroke:#DB7665;stroke-linecap:round;stroke-miterlimit:10;" d="M246.119,226.857
							c0,0-23.868,0-34.012-18.199"/>
						<path style="fill:#6B8BD1;" d="M200.723,239.986c0,0,3.064-16.641,8.457-17.678c3.662-0.704,8.428,3.796,20.208,5.439
							c12.984,1.812,16.512-0.942,19.605,2.231c2.524,2.589,1.461,21.915,1.461,21.915S215.157,257.045,200.723,239.986z"/>
						<path style="fill:none;stroke:#4264A0;stroke-linecap:round;stroke-miterlimit:10;" d="M202.605,237.649
							c0,0,19.569,17.493,48.424,7.631"/>
						<path style="fill:none;stroke:#4264A0;stroke-linecap:round;stroke-miterlimit:10;" d="M171.193,397.266
							c0,0,57.711,11.688,99.35,1.461"/>
						<path style="fill:#6B8BD1;" d="M185.383,237.957c-16.335,6.273-31.461,24.582-36.592,44.374
							c-5.131,19.792-15.954,84.019-11.556,97.947c4.398,13.928,69.64,35.186,87.233,29.322
							c17.593-5.864,19.792-16.86,19.059-32.987c-0.733-16.127-35.186-24.924-67.44-29.322
							C189.281,308.44,185.383,237.957,185.383,237.957z"/>
						<path style="fill:none;stroke:#4264A0;stroke-linecap:round;stroke-miterlimit:10;" d="M175.903,402.362
							c19.059,6.323,39.768,10.171,48.564,7.239c17.593-5.864,19.792-16.86,19.059-32.987c-0.733-16.127-35.186-24.924-67.44-29.322
							c13.195-38.852,10.204-104.408,10.204-104.408"/>
						<path style="fill:none;stroke:#4264A0;stroke-linecap:round;stroke-miterlimit:10;" d="M176.722,346.536
							c-8.279,4.892-12.349,13.937-12.349,13.937"/>
						<path style="fill:none;stroke:#4264A0;stroke-linecap:round;stroke-miterlimit:10;" d="M239.886,380.482"/>
						<path style="fill:#87A1CF;" d="M286.99,375.449h83.989c4.603,0,9.423-3.732,10.764-8.335l13.644-46.803
							c1.342-4.603-1.302-8.335-5.905-8.335h-83.989c-4.603,0-9.423,3.732-10.764,8.335l-13.644,46.803
							C279.743,371.717,282.387,375.449,286.99,375.449z"/>
						<path style="fill:#AAC2E5;" d="M289.695,375.449h83.989c4.603,0,9.423-3.732,10.764-8.335l13.644-46.803
							c1.342-4.603-1.302-8.335-5.905-8.335h-83.988c-4.603,0-9.423,3.732-10.764,8.335l-13.644,46.803
							C282.448,371.717,285.091,375.449,289.695,375.449z"/>
						<path style="fill:#87A1CF;" d="M255.131,375.449h120.613c2.266,0,4.102,1.837,4.102,4.102l0,0
							c0,2.266-1.837,4.102-4.102,4.102H255.131c-2.265,0-4.102-1.837-4.102-4.102l0,0
							C251.029,377.286,252.866,375.449,255.131,375.449z"/>
						<path style="fill:#AAC2E5;" d="M278.293,375.449h97.451c2.266,0,4.102,1.837,4.102,4.102l0,0c0,2.266-1.837,4.102-4.102,4.102
							h-97.451c-2.266,0-4.102-1.837-4.102-4.102l0,0C274.191,377.286,276.028,375.449,278.293,375.449z"/>
						<line style="fill:none;stroke:#4E6989;stroke-miterlimit:10;" x1="373.683" y1="375.449" x2="289.695" y2="375.449"/>
						<path style="fill:#FFFFFF;" d="M343.086,353.505c0,0,13.783-8.198,11.95-13.741c-1.832-5.542-8.461-0.346-8.461-0.346
							s-4.055-5.196-8.633,0.346C333.364,345.307,343.086,353.505,343.086,353.505z"/>
						<path style="fill:#FCA695;" d="M243.503,375.038c0,0-6.572,2.068-6.613,10.201c-0.041,8.132,2.049,8.942,2.049,8.942
							s23.987,2.937,31.135,1.87c7.149-1.066,34.009-6.124,34.957-11.03c0.949-4.905-21.292,0.024-37.456-3.239
							c-7.651-3.202-4.293-6.575-1.306-9.613c2.987-3.038,5.757-8.915,2.994-10.465c-2.763-1.549-6.104,1.471-8.029,4.561
							C259.309,369.355,243.503,375.038,243.503,375.038z"/>
						<path style="fill:none;stroke:#4264A0;stroke-linecap:round;stroke-miterlimit:10;" d="M270.052,248.268
							c0,0,14.595,54.453,15.157,97.678"/>
						<path style="fill:#FCA695;" d="M345.055,301.812c0,0,4.87,10.714,20.454,8.279c5.844-4.87,14.61-17.045,17.532-22.889
							c2.922-5.844,11.201-27.272,9.74-31.655c-1.461-4.383-10.227-9.74-15.584-8.766c-5.357,0.974-16.071,18.506-18.019,21.428
							c-1.948,2.922-2.435-1.948-3.409-6.818c-0.974-4.87-3.409-10.714-7.305-9.253c-3.896,1.461-4.383,1.948-1.948,8.766
							c2.435,6.818-0.974,15.584-0.487,20.941c0.487,5.357,1.948,8.279,1.948,12.175
							C347.977,297.916,345.055,301.812,345.055,301.812z"/>
						<path style="fill:none;stroke:#DB7665;stroke-linecap:round;stroke-miterlimit:10;" d="M357.384,268.408
							c2.716,6.174,1.603,13.134,1.603,13.134"/>
						
							<line style="fill:none;stroke:#DB7665;stroke-linecap:round;stroke-miterlimit:10;" x1="380.302" y1="247.262" x2="365.785" y2="272.359"/>
						
							<line style="fill:none;stroke:#DB7665;stroke-linecap:round;stroke-miterlimit:10;" x1="384.977" y1="248.492" x2="372.182" y2="276.049"/>
						
							<line style="fill:none;stroke:#DB7665;stroke-linecap:round;stroke-miterlimit:10;" x1="388.667" y1="251.198" x2="378.087" y2="279.002"/>
						<polyline style="fill:none;stroke:#7F5571;stroke-linecap:round;stroke-miterlimit:10;" points="200.51,457.571 
							232.469,468.592 263.326,455.367 						"/>
						
							<line style="fill:none;stroke:#7F5571;stroke-linecap:round;stroke-miterlimit:10;" x1="232.469" y1="468.592" x2="232.469" y2="499.778"/>
					</g>
					<g>
						<g>
							<path style="fill:#DCDDDE;" d="M415.297,45.14c-2.705,0-5.319,0.384-7.799,1.085c-3.302-9.255-12.14-15.88-22.529-15.88
								c-13.209,0-23.918,10.708-23.918,23.918c0,0.179,0.01,0.356,0.013,0.535c-1.21-0.189-2.449-0.288-3.712-0.288
								c-13.209,0-23.918,10.708-23.918,23.918c0,13.209,10.708,23.918,23.918,23.918c13.21,0,43.625,0,57.945,0
								c15.797,0,28.603-12.806,28.603-28.603C443.9,57.946,431.094,45.14,415.297,45.14z"/>
							<path style="fill:#FFFFFF;" d="M410.007,45.14c-2.705,0-5.319,0.384-7.799,1.085c-3.302-9.255-12.141-15.88-22.529-15.88
								c-13.21,0-23.918,10.708-23.918,23.918c0,0.179,0.01,0.356,0.013,0.535c-1.21-0.189-2.449-0.288-3.712-0.288
								c-13.21,0-23.918,10.708-23.918,23.918c0,13.209,10.708,23.918,23.918,23.918c13.209,0,43.625,0,57.945,0
								c15.797,0,28.603-12.806,28.603-28.603C438.61,57.946,425.804,45.14,410.007,45.14z"/>
						</g>
						<g>
							<path style="fill:#ACBCCC;" d="M415.297,45.14c-2.705,0-5.319,0.384-7.799,1.085c-3.302-9.255-12.14-15.88-22.529-15.88
								c-13.209,0-23.918,10.708-23.918,23.918c0,0.179,0.01,0.356,0.013,0.535c-1.21-0.189-2.449-0.288-3.712-0.288
								c-13.209,0-23.918,10.708-23.918,23.918c0,13.209,10.708,23.918,23.918,23.918c13.21,0,43.625,0,57.945,0
								c15.797,0,28.603-12.806,28.603-28.603C443.9,57.946,431.094,45.14,415.297,45.14z"/>
							<path style="fill:#BCCCDD;" d="M410.007,45.14c-2.705,0-5.319,0.384-7.799,1.085c-3.302-9.255-12.141-15.88-22.529-15.88
								c-13.21,0-23.918,10.708-23.918,23.918c0,0.179,0.01,0.356,0.013,0.535c-1.21-0.189-2.449-0.288-3.712-0.288
								c-13.21,0-23.918,10.708-23.918,23.918c0,13.209,10.708,23.918,23.918,23.918c13.209,0,43.625,0,57.945,0
								c15.797,0,28.603-12.806,28.603-28.603C438.61,57.946,425.804,45.14,410.007,45.14z"/>
						</g>
						<g>
							<path style="fill:#ACBCCC;" d="M362.71,176.442c-2.705,0-5.319,0.384-7.799,1.085c-3.302-9.255-12.14-15.88-22.529-15.88
								c-13.21,0-23.918,10.708-23.918,23.918c0,0.179,0.01,0.356,0.013,0.535c-1.21-0.188-2.449-0.288-3.712-0.288
								c-13.209,0-23.918,10.708-23.918,23.918c0,13.209,10.708,23.918,23.918,23.918c13.209,0,43.625,0,57.945,0
								c15.797,0,28.603-12.806,28.603-28.603C391.312,189.248,378.506,176.442,362.71,176.442z"/>
							<path style="fill:#BCCCDD;" d="M357.419,176.442c-2.705,0-5.319,0.384-7.799,1.085c-3.302-9.255-12.14-15.88-22.529-15.88
								c-13.209,0-23.918,10.708-23.918,23.918c0,0.179,0.01,0.356,0.013,0.535c-1.21-0.188-2.449-0.288-3.712-0.288
								c-13.21,0-23.918,10.708-23.918,23.918c0,13.209,10.708,23.918,23.918,23.918c13.209,0,43.625,0,57.945,0
								c15.797,0,28.603-12.806,28.603-28.603C386.022,189.248,373.216,176.442,357.419,176.442z"/>
						</g>
						<g>
							<path style="fill:#ACBCCC;" d="M212.201,36.122c-2.705,0-5.319,0.384-7.799,1.085c-3.302-9.255-12.141-15.88-22.529-15.88
								c-13.21,0-23.918,10.708-23.918,23.918c0,0.179,0.01,0.356,0.014,0.535c-1.21-0.189-2.449-0.288-3.712-0.288
								c-13.209,0-23.918,10.708-23.918,23.918c0,13.21,10.708,23.918,23.918,23.918c13.21,0,43.625,0,57.945,0
								c15.797,0,28.603-12.806,28.603-28.603C240.804,48.928,227.998,36.122,212.201,36.122z"/>
							<path style="fill:#BCCCDD;" d="M206.911,36.122c-2.705,0-5.319,0.384-7.799,1.085c-3.302-9.255-12.141-15.88-22.529-15.88
								c-13.209,0-23.918,10.708-23.918,23.918c0,0.179,0.01,0.356,0.014,0.535c-1.21-0.189-2.449-0.288-3.712-0.288
								c-13.21,0-23.918,10.708-23.918,23.918c0,13.21,10.708,23.918,23.918,23.918c13.209,0,43.625,0,57.945,0
								c15.797,0,28.603-12.806,28.603-28.603C235.514,48.928,222.708,36.122,206.911,36.122z"/>
						</g>
						<path style="fill:none;stroke:#A8C5E2;stroke-miterlimit:10;" d="M379.846,379.551l7.77,0.552
							c3.007,0.214,5.337,2.715,5.337,5.729v67.306c0,4.883,3.958,8.841,8.841,8.841l0,0c4.925,0,8.9-4.024,8.841-8.949
							l-2.873-236.251c-0.056-4.6-3.8-8.299-8.4-8.299h-6.409"/>
						<g>
							<path style="fill:#2C4C7C;" d="M391.594,212.128h-2.963v-7.294h2.963c2.014,0,3.647,1.633,3.647,3.647l0,0
								C395.241,210.496,393.608,212.128,391.594,212.128z"/>
							<rect x="386.995" y="205.943" style="fill:#4375BB;" width="1.636" height="5.076"/>
							<g>
								<rect x="387.249" y="206.413" style="fill:#2C4C7C;" width="1.128" height="0.256"/>
								<rect x="387.249" y="207.06" style="fill:#2C4C7C;" width="1.128" height="0.256"/>
								<rect x="387.249" y="207.707" style="fill:#2C4C7C;" width="1.128" height="0.256"/>
								<rect x="387.249" y="208.354" style="fill:#2C4C7C;" width="1.128" height="0.256"/>
								<rect x="387.249" y="209" style="fill:#2C4C7C;" width="1.128" height="0.256"/>
								<rect x="387.249" y="209.647" style="fill:#2C4C7C;" width="1.128" height="0.256"/>
								<rect x="387.249" y="210.294" style="fill:#2C4C7C;" width="1.128" height="0.256"/>
							</g>
						</g>
						<g>
							<path style="fill:#2C4C7C;" d="M331.147,157.048v2.963h-7.294v-2.963c0-2.014,1.633-3.647,3.647-3.647l0,0
								C329.514,153.401,331.147,155.034,331.147,157.048z"/>
							
								<rect x="326.682" y="158.291" transform="matrix(6.123234e-17 -1 1 6.123234e-17 166.671 488.3292)" style="fill:#4375BB;" width="1.636" height="5.076"/>
							<g>
								
									<rect x="324.995" y="160.701" transform="matrix(6.123234e-17 -1 1 6.123234e-17 164.7305 486.3886)" style="fill:#2C4C7C;" width="1.128" height="0.256"/>
								
									<rect x="325.642" y="160.701" transform="matrix(6.123234e-17 -1 1 6.123234e-17 165.3773 487.0355)" style="fill:#2C4C7C;" width="1.128" height="0.256"/>
								
									<rect x="326.289" y="160.701" transform="matrix(6.123234e-17 -1 1 6.123234e-17 166.0242 487.6823)" style="fill:#2C4C7C;" width="1.128" height="0.256"/>
								
									<rect x="326.936" y="160.701" transform="matrix(6.123234e-17 -1 1 6.123234e-17 166.6709 488.3292)" style="fill:#2C4C7C;" width="1.128" height="0.256"/>
								
									<rect x="327.583" y="160.701" transform="matrix(6.123234e-17 -1 1 6.123234e-17 167.3178 488.976)" style="fill:#2C4C7C;" width="1.128" height="0.256"/>
								
									<rect x="328.23" y="160.701" transform="matrix(6.123234e-17 -1 1 6.123234e-17 167.9646 489.6229)" style="fill:#2C4C7C;" width="1.128" height="0.256"/>
								
									<rect x="328.876" y="160.701" transform="matrix(6.123234e-17 -1 1 6.123234e-17 168.6115 490.2697)" style="fill:#2C4C7C;" width="1.128" height="0.256"/>
							</g>
						</g>
						<g>
							<path style="fill:#2C4C7C;" d="M381.734,107.27v-2.963h-7.294v2.963c0,2.014,1.633,3.647,3.647,3.647h0
								C380.101,110.917,381.734,109.284,381.734,107.27z"/>
							
								<rect x="377.269" y="100.951" transform="matrix(-1.836970e-16 1 -1 -1.836970e-16 481.576 -274.5984)" style="fill:#4375BB;" width="1.636" height="5.076"/>
							<g>
								
									<rect x="375.583" y="103.361" transform="matrix(-1.836970e-16 1 -1 -1.836970e-16 479.6354 -272.6578)" style="fill:#2C4C7C;" width="1.128" height="0.256"/>
								
									<rect x="376.229" y="103.361" transform="matrix(-1.836970e-16 1 -1 -1.836970e-16 480.2823 -273.3047)" style="fill:#2C4C7C;" width="1.128" height="0.256"/>
								
									<rect x="376.876" y="103.361" transform="matrix(-1.836970e-16 1 -1 -1.836970e-16 480.9291 -273.9515)" style="fill:#2C4C7C;" width="1.128" height="0.256"/>
								
									<rect x="377.523" y="103.361" transform="matrix(-1.836970e-16 1 -1 -1.836970e-16 481.576 -274.5984)" style="fill:#2C4C7C;" width="1.128" height="0.256"/>
								
									<rect x="378.17" y="103.361" transform="matrix(-1.836970e-16 1 -1 -1.836970e-16 482.2228 -275.2452)" style="fill:#2C4C7C;" width="1.128" height="0.256"/>
								
									<rect x="378.817" y="103.361" transform="matrix(-1.836970e-16 1 -1 -1.836970e-16 482.8697 -275.8921)" style="fill:#2C4C7C;" width="1.128" height="0.256"/>
								
									<rect x="379.464" y="103.361" transform="matrix(-1.836970e-16 1 -1 -1.836970e-16 483.5164 -276.5388)" style="fill:#2C4C7C;" width="1.128" height="0.256"/>
							</g>
						</g>
						<g>
							<path style="fill:#2C4C7C;" d="M242.476,68.828h-2.963v-7.294h2.963c2.014,0,3.647,1.633,3.647,3.647l0,0
								C246.123,67.196,244.49,68.828,242.476,68.828z"/>
							<rect x="237.877" y="62.643" style="fill:#4375BB;" width="1.636" height="5.076"/>
							<g>
								<rect x="238.131" y="63.113" style="fill:#2C4C7C;" width="1.128" height="0.256"/>
								<rect x="238.131" y="63.76" style="fill:#2C4C7C;" width="1.128" height="0.256"/>
								<rect x="238.131" y="64.407" style="fill:#2C4C7C;" width="1.128" height="0.256"/>
								<rect x="238.131" y="65.054" style="fill:#2C4C7C;" width="1.128" height="0.256"/>
								<rect x="238.131" y="65.701" style="fill:#2C4C7C;" width="1.128" height="0.256"/>
								<rect x="238.131" y="66.347" style="fill:#2C4C7C;" width="1.128" height="0.256"/>
								<rect x="238.131" y="66.994" style="fill:#2C4C7C;" width="1.128" height="0.256"/>
							</g>
						</g>
						<path style="fill:none;stroke:#A8C5E2;stroke-miterlimit:10;" d="M244.78,65.182h25.425c3.01,0,5.451,2.44,5.451,5.451v44.025
							c0,3.01,2.44,5.451,5.451,5.451h40.942c3.01,0,5.451,2.44,5.451,5.451v28.585"/>
						<polyline style="fill:none;stroke:#A8C5E2;stroke-miterlimit:10;" points="378.087,109.663 378.087,134.76 327.372,134.76 
													"/>
						<g>
							<path style="fill:#BCCCDD;" d="M140.349,206.177H66.427c-4.364,0-7.902-3.538-7.902-7.902v-40.693
								c0-4.364,3.538-7.902,7.902-7.902h73.922c4.364,0,7.902,3.538,7.902,7.902v40.693
								C148.251,202.639,144.713,206.177,140.349,206.177z"/>
							
								<text transform="matrix(1 0 0 1 71.5862 183.9828)" style="fill:#FFFFFF; font-family:'Montserrat-Bold'; font-size:21.8721px;">HOST</text>
						</g>
						<path style="fill:none;stroke:#A8C5E2;stroke-miterlimit:10;" d="M182.326,93.327v27.054c0,5.364-4.349,9.713-9.713,9.713
							h-59.512c-5.364,0-9.713,4.349-9.713,9.713v9.873"/>
						<g>
							<path style="fill:#2C4C7C;" d="M178.679,95.352V92.39h7.294v2.963c0,2.014-1.633,3.647-3.647,3.647l0,0
								C180.311,98.999,178.679,97.367,178.679,95.352z"/>
							
								<rect x="181.508" y="89.033" transform="matrix(-1.836970e-16 1 -1 -1.836970e-16 273.8972 -90.7542)" style="fill:#4375BB;" width="1.636" height="5.076"/>
							<g>
								
									<rect x="183.702" y="91.444" transform="matrix(-1.836970e-16 1 -1 -1.836970e-16 275.8377 -92.6947)" style="fill:#2C4C7C;" width="1.128" height="0.256"/>
								
									<rect x="183.055" y="91.444" transform="matrix(-1.836970e-16 1 -1 -1.836970e-16 275.1909 -92.0479)" style="fill:#2C4C7C;" width="1.128" height="0.256"/>
								
									<rect x="182.408" y="91.444" transform="matrix(-1.836970e-16 1 -1 -1.836970e-16 274.544 -91.401)" style="fill:#2C4C7C;" width="1.128" height="0.256"/>
								
									<rect x="181.762" y="91.444" transform="matrix(-1.836970e-16 1 -1 -1.836970e-16 273.8972 -90.7542)" style="fill:#2C4C7C;" width="1.128" height="0.256"/>
								
									<rect x="181.115" y="91.444" transform="matrix(-1.836970e-16 1 -1 -1.836970e-16 273.2503 -90.1074)" style="fill:#2C4C7C;" width="1.128" height="0.256"/>
								
									<rect x="180.468" y="91.444" transform="matrix(-1.836970e-16 1 -1 -1.836970e-16 272.6035 -89.4605)" style="fill:#2C4C7C;" width="1.128" height="0.256"/>
								
									<rect x="179.821" y="91.444" transform="matrix(-1.836970e-16 1 -1 -1.836970e-16 271.9567 -88.8137)" style="fill:#2C4C7C;" width="1.128" height="0.256"/>
							</g>
						</g>
						<g>
							<path style="fill:#2C4C7C;" d="M107.035,145.615v2.963h-7.294v-2.963c0-2.014,1.633-3.647,3.647-3.647l0,0
								C105.402,141.968,107.035,143.601,107.035,145.615z"/>
							
								<rect x="102.57" y="146.858" transform="matrix(6.123234e-17 -1 1 6.123234e-17 -46.008 252.7838)" style="fill:#4375BB;" width="1.636" height="5.076"/>
							<g>
								
									<rect x="100.883" y="149.268" transform="matrix(6.123234e-17 -1 1 6.123234e-17 -47.9486 250.8432)" style="fill:#2C4C7C;" width="1.128" height="0.256"/>
								
									<rect x="101.53" y="149.268" transform="matrix(6.123234e-17 -1 1 6.123234e-17 -47.3017 251.4901)" style="fill:#2C4C7C;" width="1.128" height="0.256"/>
								
									<rect x="102.177" y="149.268" transform="matrix(6.123234e-17 -1 1 6.123234e-17 -46.6549 252.1369)" style="fill:#2C4C7C;" width="1.128" height="0.256"/>
								
									<rect x="102.824" y="149.268" transform="matrix(6.123234e-17 -1 1 6.123234e-17 -46.008 252.7838)" style="fill:#2C4C7C;" width="1.128" height="0.256"/>
								
									<rect x="103.471" y="149.268" transform="matrix(6.123234e-17 -1 1 6.123234e-17 -45.3611 253.4306)" style="fill:#2C4C7C;" width="1.128" height="0.256"/>
								
									<rect x="104.117" y="149.268" transform="matrix(6.123234e-17 -1 1 6.123234e-17 -44.7144 254.0775)" style="fill:#2C4C7C;" width="1.128" height="0.256"/>
								
									<rect x="104.764" y="149.268" transform="matrix(6.123234e-17 -1 1 6.123234e-17 -44.0675 254.7243)" style="fill:#2C4C7C;" width="1.128" height="0.256"/>
							</g>
						</g>
					</g>
				</g>
				<g>
					
						<ellipse transform="matrix(0.7071 -0.7071 0.7071 0.7071 1.9538 231.7601)" style="fill:#76A87E;" cx="280.736" cy="113.522" rx="14.522" ry="14.522"/>
					<g>
						<path style="fill:none;stroke:#FFFFFF;stroke-width:2;stroke-miterlimit:10;" d="M273.884,112.974l4.813,4.408
							c0.927,0.849,2.385,0.704,3.127-0.311l5.983-8.185"/>
					</g>
				</g>
				<g>
					<g>
						<path style="fill:#BCCCDD;" d="M118.662,301.267H50.211c-0.833,0-1.508-0.675-1.508-1.508v-13.098
							c0-0.833,0.675-1.508,1.508-1.508h68.451c0.833,0,1.508,0.675,1.508,1.508v13.098
							C120.17,300.592,119.495,301.267,118.662,301.267z"/>
						<rect x="55.028" y="301.267" style="fill:#96AABC;" width="58.818" height="4.43"/>
						<rect x="55.028" y="321.81" style="fill:#96AABC;" width="58.818" height="4.429"/>
						<g>
							<path style="fill:#FFFFFF;" d="M113.922,295.724H90.673c-0.575,0-1.04-0.466-1.04-1.04v-2.741c0-0.574,0.466-1.04,1.04-1.04
								h23.249c0.575,0,1.04,0.466,1.04,1.04v2.741C114.962,295.258,114.496,295.724,113.922,295.724z"/>
							<path style="fill:#FFFFFF;" d="M58.662,293.313c0,1.331-1.079,2.411-2.411,2.411c-1.332,0-2.411-1.079-2.411-2.411
								c0-1.331,1.079-2.411,2.411-2.411C57.582,290.903,58.662,291.982,58.662,293.313z"/>
							<path style="fill:#FFFFFF;" d="M67.386,293.313c0,1.331-1.079,2.411-2.411,2.411s-2.411-1.079-2.411-2.411
								c0-1.331,1.079-2.411,2.411-2.411S67.386,291.982,67.386,293.313z"/>
						</g>
					</g>
					<g>
						<path style="fill:#BCCCDD;" d="M118.662,321.81H50.211c-0.833,0-1.508-0.675-1.508-1.508v-13.098
							c0-0.833,0.675-1.508,1.508-1.508h68.451c0.833,0,1.508,0.675,1.508,1.508v13.098
							C120.17,321.135,119.495,321.81,118.662,321.81z"/>
						<g>
							<path style="fill:#FFFFFF;" d="M113.922,316.267H90.673c-0.575,0-1.04-0.466-1.04-1.04v-2.741c0-0.575,0.466-1.04,1.04-1.04
								h23.249c0.575,0,1.04,0.466,1.04,1.04v2.741C114.962,315.802,114.496,316.267,113.922,316.267z"/>
							<path style="fill:#FFFFFF;" d="M58.662,313.857c0,1.331-1.079,2.411-2.411,2.411c-1.332,0-2.411-1.079-2.411-2.411
								c0-1.331,1.079-2.411,2.411-2.411C57.582,311.446,58.662,312.525,58.662,313.857z"/>
							<path style="fill:#FFFFFF;" d="M67.386,313.857c0,1.331-1.079,2.411-2.411,2.411s-2.411-1.079-2.411-2.411
								c0-1.331,1.079-2.411,2.411-2.411S67.386,312.525,67.386,313.857z"/>
						</g>
					</g>
					<g>
						<path style="fill:#BCCCDD;" d="M118.662,342.353H50.211c-0.833,0-1.508-0.675-1.508-1.508v-13.098
							c0-0.833,0.675-1.508,1.508-1.508h68.451c0.833,0,1.508,0.675,1.508,1.508v13.098
							C120.17,341.678,119.495,342.353,118.662,342.353z"/>
						<g>
							<path style="fill:#FFFFFF;" d="M113.922,336.811H90.673c-0.575,0-1.04-0.466-1.04-1.04v-2.741c0-0.575,0.466-1.04,1.04-1.04
								h23.249c0.575,0,1.04,0.466,1.04,1.04v2.741C114.962,336.345,114.496,336.811,113.922,336.811z"/>
							<path style="fill:#FFFFFF;" d="M58.662,334.4c0,1.331-1.079,2.411-2.411,2.411c-1.332,0-2.411-1.079-2.411-2.411
								c0-1.331,1.079-2.411,2.411-2.411C57.582,331.989,58.662,333.069,58.662,334.4z"/>
							<circle style="fill:#FFFFFF;" cx="64.976" cy="334.4" r="2.411"/>
						</g>
					</g>
				</g>
				<g>
					<path style="fill:#2C4C7C;" d="M86.504,280.554v2.963H79.21v-2.963c0-2.014,1.633-3.647,3.647-3.647l0,0
						C84.871,276.907,86.504,278.54,86.504,280.554z"/>
					
						<rect x="82.039" y="281.797" transform="matrix(6.123234e-17 -1 1 6.123234e-17 -201.4776 367.1919)" style="fill:#4375BB;" width="1.636" height="5.076"/>
					<g>
						
							<rect x="80.353" y="284.207" transform="matrix(6.123234e-17 -1 1 6.123234e-17 -203.418 365.2513)" style="fill:#2C4C7C;" width="1.128" height="0.256"/>
						
							<rect x="80.999" y="284.207" transform="matrix(6.123234e-17 -1 1 6.123234e-17 -202.7713 365.8982)" style="fill:#2C4C7C;" width="1.128" height="0.256"/>
						
							<rect x="81.646" y="284.207" transform="matrix(6.123234e-17 -1 1 6.123234e-17 -202.1244 366.545)" style="fill:#2C4C7C;" width="1.128" height="0.256"/>
						
							<rect x="82.293" y="284.207" transform="matrix(6.123234e-17 -1 1 6.123234e-17 -201.4776 367.1919)" style="fill:#2C4C7C;" width="1.128" height="0.256"/>
						
							<rect x="82.94" y="284.207" transform="matrix(6.123234e-17 -1 1 6.123234e-17 -200.8307 367.8387)" style="fill:#2C4C7C;" width="1.128" height="0.256"/>
						
							<rect x="83.587" y="284.207" transform="matrix(6.123234e-17 -1 1 6.123234e-17 -200.1839 368.4856)" style="fill:#2C4C7C;" width="1.128" height="0.256"/>
						
							<rect x="84.234" y="284.207" transform="matrix(6.123234e-17 -1 1 6.123234e-17 -199.537 369.1324)" style="fill:#2C4C7C;" width="1.128" height="0.256"/>
					</g>
				</g>
				<path style="fill:none;stroke:#A8C5E2;stroke-miterlimit:10;" d="M82.857,278.014v-28.25c0-1.305,1.058-2.364,2.364-2.364
					h19.451c1.305,0,2.364-1.058,2.364-2.364v-33.919"/>
				<g>
					<path style="fill:#2C4C7C;" d="M103.388,210.776v-2.963h7.294v2.963c0,2.014-1.633,3.647-3.647,3.647l0,0
						C105.021,214.423,103.388,212.79,103.388,210.776z"/>
					
						<rect x="106.217" y="204.457" transform="matrix(-1.836970e-16 1 -1 -1.836970e-16 314.0304 99.9602)" style="fill:#4375BB;" width="1.636" height="5.076"/>
					<g>
						
							<rect x="108.411" y="206.867" transform="matrix(-1.836970e-16 1 -1 -1.836970e-16 315.9709 98.0197)" style="fill:#2C4C7C;" width="1.128" height="0.256"/>
						
							<rect x="107.765" y="206.867" transform="matrix(-1.836970e-16 1 -1 -1.836970e-16 315.324 98.6665)" style="fill:#2C4C7C;" width="1.128" height="0.256"/>
						
							<rect x="107.118" y="206.867" transform="matrix(-1.836970e-16 1 -1 -1.836970e-16 314.6772 99.3133)" style="fill:#2C4C7C;" width="1.128" height="0.256"/>
						
							<rect x="106.471" y="206.867" transform="matrix(-1.836970e-16 1 -1 -1.836970e-16 314.0304 99.9603)" style="fill:#2C4C7C;" width="1.128" height="0.256"/>
						
							<rect x="105.824" y="206.867" transform="matrix(-1.836970e-16 1 -1 -1.836970e-16 313.3835 100.607)" style="fill:#2C4C7C;" width="1.128" height="0.256"/>
						
							<rect x="105.177" y="206.867" transform="matrix(-1.836970e-16 1 -1 -1.836970e-16 312.7367 101.2539)" style="fill:#2C4C7C;" width="1.128" height="0.256"/>
						
							<rect x="104.53" y="206.867" transform="matrix(-1.836970e-16 1 -1 -1.836970e-16 312.0898 101.9007)" style="fill:#2C4C7C;" width="1.128" height="0.256"/>
					</g>
				</g>
			</g>
			<g>
				<g>
					<path style="fill:#E2EAF2;" d="M416.986,134.891c-10.225,0-18.523,8.281-18.523,18.505c0,10.225,8.298,18.523,18.523,18.523
						c10.225,0,18.506-8.298,18.506-18.523C435.492,143.172,427.211,134.891,416.986,134.891z M416.986,163.778
						c-5.746,0-10.399-4.635-10.399-10.381c0-5.729,4.652-10.381,10.399-10.381c5.729,0,10.381,4.653,10.381,10.381
						C427.367,159.143,422.715,163.778,416.986,163.778z"/>
					<path style="fill:#E2EAF2;" d="M422.001,153.396c0,2.778-2.249,5.019-5.019,5.019c-2.778,0-5.028-2.241-5.028-5.019
						c0-2.77,2.249-5.019,5.028-5.019C419.751,148.377,422.001,150.627,422.001,153.396z"/>
					<rect x="410.448" y="122.371" style="fill:#E2EAF2;" width="13.063" height="16.796"/>
					
						<rect x="394.444" y="129" transform="matrix(0.7071 -0.7071 0.7071 0.7071 20.288 323.7758)" style="fill:#E2EAF2;" width="13.063" height="16.796"/>
					
						<rect x="387.815" y="145.003" transform="matrix(6.123234e-17 -1 1 6.123234e-17 240.946 547.7485)" style="fill:#E2EAF2;" width="13.064" height="16.796"/>
					
						<rect x="394.444" y="161.007" transform="matrix(-0.7071 -0.7071 0.7071 -0.7071 564.7195 572.7252)" style="fill:#E2EAF2;" width="13.063" height="16.796"/>
					
						<rect x="410.448" y="167.635" transform="matrix(-1 -1.224647e-16 1.224647e-16 -1 833.9584 352.0664)" style="fill:#E2EAF2;" width="13.063" height="16.796"/>
					
						<rect x="426.451" y="161.007" transform="matrix(-0.7071 0.7071 -0.7071 -0.7071 858.9342 -16.9732)" style="fill:#E2EAF2;" width="13.063" height="16.796"/>
					
						<rect x="433.079" y="145.003" transform="matrix(-1.836970e-16 1 -1 -1.836970e-16 593.0124 -286.2099)" style="fill:#E2EAF2;" width="13.064" height="16.796"/>
					
						<rect x="426.451" y="129" transform="matrix(0.7071 0.7071 -0.7071 0.7071 223.9705 -265.9207)" style="fill:#E2EAF2;" width="13.063" height="16.796"/>
				</g>
				<g>
					<path style="fill:none;stroke:#E2EAF2;stroke-miterlimit:10;" d="M448.871,221.671c0,1.307,1.058,2.36,2.364,2.36
						c1.303,0,2.36-1.054,2.36-2.36c0-1.303-1.058-2.36-2.36-2.36C449.929,219.311,448.871,220.369,448.871,221.671z"/>
					<path style="fill:none;stroke:#E2EAF2;stroke-miterlimit:10;" d="M465.826,224.745v-6.143h-6.453
						c-0.065-0.174-0.134-0.345-0.21-0.513l4.561-4.561l-4.344-4.344l-4.562,4.562c-0.168-0.076-0.339-0.144-0.513-0.21v-6.454
						h-6.143v6.456c-0.173,0.065-0.344,0.134-0.511,0.21l-4.563-4.563l-4.344,4.344l4.561,4.561
						c-0.076,0.168-0.145,0.34-0.211,0.513h-6.452v6.143h6.454c0.066,0.173,0.134,0.344,0.21,0.512l-4.562,4.562l4.344,4.344
						l4.562-4.562c0.168,0.076,0.339,0.145,0.513,0.211v6.453h6.143v-6.451c0.174-0.066,0.346-0.135,0.514-0.211l4.56,4.56
						l4.344-4.344l-4.562-4.562c0.076-0.168,0.145-0.339,0.21-0.512H465.826z M456.119,221.671c0,2.702-2.188,4.882-4.882,4.882
						c-2.702,0-4.89-2.18-4.89-4.882c0-2.694,2.188-4.882,4.89-4.882C453.931,216.79,456.119,218.978,456.119,221.671z"/>
				</g>
				<g>
					<path style="fill:none;stroke:#E2EAF2;stroke-width:2;stroke-miterlimit:10;" d="M103.997,87.478
						c0,7.32-3.023,13.918-7.899,18.623c-4.666,4.521-11.027,7.307-18.032,7.307c-7.018,0-13.366-2.786-18.045-7.307
						c-4.876-4.705-7.899-11.316-7.899-18.623c0-7.307,3.023-13.918,7.899-18.623c4.679-4.534,11.027-7.32,18.045-7.32
						c7.005,0,13.366,2.786,18.032,7.32C100.975,73.547,103.997,80.157,103.997,87.478z"/>
					<g>
						<path style="fill:none;stroke:#E2EAF2;stroke-width:2;stroke-miterlimit:10;" d="M96.099,68.855
							c-2.024,1.958-4.35,3.588-6.926,4.81c-3.365,1.603-7.123,2.497-11.105,2.497c-3.982,0-7.741-0.894-11.119-2.497
							c-2.563-1.222-4.902-2.852-6.926-4.81c4.679-4.534,11.027-7.32,18.045-7.32C85.072,61.535,91.433,64.321,96.099,68.855z"/>
						<path style="fill:none;stroke:#E2EAF2;stroke-width:2;stroke-miterlimit:10;" d="M96.099,106.101
							c-4.666,4.521-11.027,7.307-18.032,7.307c-7.018,0-13.366-2.786-18.045-7.307c2.024-1.971,4.363-3.601,6.926-4.823
							c3.378-1.603,7.136-2.497,11.119-2.497c3.982,0,7.741,0.894,11.105,2.497C91.749,102.5,94.075,104.129,96.099,106.101z"/>
					</g>
					
						<ellipse style="fill:none;stroke:#E2EAF2;stroke-width:2;stroke-miterlimit:10;" cx="78.065" cy="87.475" rx="13.138" ry="25.937"/>
					
						<line style="fill:none;stroke:#E2EAF2;stroke-width:2;stroke-miterlimit:10;" x1="78.065" y1="61.538" x2="78.065" y2="113.411"/>
					
						<line style="fill:none;stroke:#E2EAF2;stroke-width:2;stroke-miterlimit:10;" x1="52.128" y1="87.475" x2="104.002" y2="87.475"/>
				</g>
				<g>
					<rect x="48.703" y="366.719" style="fill:#E2EAF2;" width="43.942" height="8.73"/>
					<rect x="48.703" y="381.972" style="fill:#E2EAF2;" width="67.672" height="8.73"/>
					<rect x="48.703" y="396.226" style="fill:#E2EAF2;" width="23.574" height="8.73"/>
				</g>
			</g>
		</g>
	</g>
</g>
</svg>
