<?xml version="1.0" encoding="utf-8"?>
<!-- Generator: Adobe Illustrator 16.0.0, SVG Export Plug-In . SVG Version: 6.00 Build 0)  -->
<!DOCTYPE svg PUBLIC "-//W3C//DTD SVG 1.1//EN" "http://www.w3.org/Graphics/SVG/1.1/DTD/svg11.dtd">
<svg version="1.1" id="Layer_1" xmlns="http://www.w3.org/2000/svg" xmlns:xlink="http://www.w3.org/1999/xlink" x="0px" y="0px"
	 width="473.271px" height="481.425px" viewBox="221.7 91.999 473.271 481.425"
	 enable-background="new 221.7 91.999 473.271 481.425" xml:space="preserve">
<title>cloud hosting</title>
<g>
	<path fill="#2E2D40" d="M303.364,357.839c-1.109,0-2.222-0.282-3.228-0.853l-34.816-19.716c-1.057-0.598-1.689-1.679-1.696-2.894
		c-0.005-1.214,0.619-2.302,1.668-2.91l86.844-50.235c4.982-2.881,11.175-2.876,16.153-0.001l99.265,57.369l-1.436,2.484
		l-99.26-57.374c-4.097-2.365-9.191-2.365-13.292,0l-86.841,50.233c-0.21,0.123-0.241,0.319-0.241,0.42
		c0,0.105,0.035,0.298,0.245,0.416l34.818,19.715c1.2,0.68,2.658,0.637,3.817-0.111l14.711-9.514l1.555,2.404l-14.713,9.516
		C305.833,357.49,304.602,357.839,303.364,357.839z"/>
	<path fill="#EFEFEF" d="M276.178,437.375l-31.057-17.966c-12.938-7.47-12.938-19.624,0-27.091l28.233-16.302
		c5.785-3.342,5.785-8.775,0-12.115l-24.633-14.223c-12.938-7.469-12.938-19.622,0-27.091l30.881-17.83
		c12.938-7.47,33.988-7.47,46.926,0l19.904,11.44l-12.97,7.488l-19.903-11.44c-5.787-3.34-15.201-3.341-20.987,0l-30.882,17.83
		c-5.787,3.34-5.787,8.776,0,12.116l24.633,14.222c12.938,7.471,12.938,19.623,0,27.09l-28.233,16.302
		c-5.787,3.342-5.787,8.776,0,12.116l31.055,17.967L276.178,437.375z"/>
	<path fill="#3E3C55" d="M235.773,391.631l-0.354-0.662v3.057l0.021-0.011c-0.122,4.995,3.093,10.015,9.681,13.817l31.057,17.966
		l12.967-7.488l-31.055-17.964c-1.771-1.022-2.992-2.239-3.678-3.533c-6.941-0.48-12.318-4.089-17.265-8.559
		C236.521,389.361,236.049,390.487,235.773,391.631z"/>
	<path fill="#2E2D40" d="M326.529,293.183c-12.938-7.47-33.988-7.47-46.926,0l-30.881,17.829c-3.828,2.211-6.498,4.834-8.049,7.622
		c5.075,4.675,9.901,9.851,17.709,9.061c-2.088-3.076-0.99-6.713,3.308-9.195l30.882-17.83c5.787-3.34,15.201-3.34,20.987,0.001
		l19.903,11.439l12.97-7.487L326.529,293.183z"/>
	<path fill="#3E3C55" d="M291.382,348.609c-1.376-1.348-3.058-2.616-5.059-3.771l-24.633-14.223
		c-1.487-0.858-2.585-1.858-3.308-2.922c-7.809,0.79-12.635-4.385-17.709-9.061c-0.549,0.987-0.966,1.994-1.233,3.011l-0.42-0.484
		v3.328l0.003-0.002c-0.031,4.929,3.198,9.865,9.699,13.617l24.633,14.222c3.791,2.189,5.08,5.275,3.904,8.085
		C282.381,359.094,286.394,352.804,291.382,348.609z"/>
	<path fill="#2E2D40" d="M295.631,355.571c-0.619-2.424-2.034-4.792-4.249-6.962c-4.989,4.195-9.001,10.485-14.124,11.801
		c-0.619,1.476-1.91,2.88-3.904,4.03l-28.233,16.301c-3.778,2.182-6.413,4.766-7.973,7.514c4.947,4.47,10.324,8.078,17.265,8.559
		c-1.56-2.937-0.339-6.265,3.678-8.583l28.233-16.301c6.409-3.701,9.633-8.553,9.691-13.412l0.01,0.01v-0.131v-0.026v-3.271
		L295.631,355.571z"/>
	<path fill="#FFFFFF" d="M248.722,334.662l24.633,14.221c2.589,1.495,4.009,3.409,4.282,5.368c0.336-2.42-1.086-4.903-4.282-6.747
		l-24.633-14.224c-6.165-3.559-9.355-8.183-9.646-12.855C238.757,325.558,241.948,330.75,248.722,334.662z"/>
	<path fill="#FFFFFF" d="M276.178,420.976l-31.057-17.965c-6.164-3.562-9.356-8.185-9.645-12.856
		c-0.318,5.133,2.872,10.325,9.645,14.235l31.057,17.966l12.967-7.488l-1.195-0.689L276.178,420.976z"/>
	<path fill="#FFFFFF" d="M333.463,307.287l-19.903-11.44c-5.787-3.34-15.201-3.34-20.987,0l-30.882,17.829
		c-3.198,1.847-4.618,4.331-4.283,6.749c0.273-1.958,1.694-3.873,4.283-5.368l30.882-17.829c5.787-3.341,15.201-3.341,20.987,0
		l19.903,11.439l12.97-7.487l-1.197-0.689L333.463,307.287z"/>
	<path fill="#FFFFFF" d="M286.324,367.106l-28.233,16.299c-3.198,1.847-4.619,4.332-4.282,6.75c0.272-1.96,1.692-3.874,4.282-5.369
		l28.233-16.301c6.773-3.908,9.964-9.103,9.645-14.234C295.679,358.923,292.488,363.546,286.324,367.106z"/>
	<path fill="#E5E5E5" d="M276.178,422.355l-31.057-17.965c-12.938-7.47-12.938-19.622,0-27.091l28.233-16.303
		c5.785-3.339,5.785-8.773,0-12.114l-24.633-14.221c-12.938-7.47-12.938-19.624,0-27.093l30.881-17.83
		c12.938-7.469,33.988-7.468,46.926,0.001l19.904,11.44l-12.97,7.487l-19.903-11.44c-5.787-3.34-15.201-3.34-20.987,0.001
		l-30.882,17.829c-5.787,3.341-5.787,8.776,0,12.117l24.633,14.222c12.938,7.47,12.938,19.621,0,27.091l-28.233,16.301
		c-5.787,3.34-5.787,8.775,0,12.116l31.055,17.965L276.178,422.355z"/>
	<path fill="#2E2D40" d="M291.76,412.321l-0.012,0.009c-0.545-0.396-1.334-0.396-2.22,0.114l-14.296,8.255
		c-1.646,0.949-2.979,3.263-2.979,5.162c0,0.885,0.297,1.511,0.773,1.847l15.328,8.958l18.497-15.553L291.76,412.321z"/>
	<path fill="#5793CE" d="M304.7,421.294l-14.296,8.253c-1.645,0.953-2.979,3.263-2.979,5.163c0,1.899,1.335,2.669,2.979,1.721
		l14.296-8.256c1.646-0.95,2.979-3.262,2.979-5.161C307.679,421.116,306.346,420.343,304.7,421.294z"/>
	<path fill="#2E2D40" d="M584.11,361.047c-1.406,0-2.809-0.374-4.059-1.123l-24.325-14.583l1.473-2.456l24.326,14.584
		c1.573,0.945,3.54,0.954,5.118,0.027l39.593-23.155c0.633-0.369,1.001-1.025,0.987-1.756c-0.011-0.73-0.406-1.37-1.047-1.716
		l-52.765-28.255l1.351-2.526l52.765,28.256c1.57,0.841,2.525,2.409,2.562,4.189c0.031,1.783-0.871,3.382-2.411,4.279
		l-39.586,23.153C586.86,360.687,585.485,361.047,584.11,361.047z"/>
	<path fill="#2E2D40" d="M636.903,529.308c-1.718,0-3.436-0.431-4.981-1.287l-97.078-54.043c-1.432-0.794-2.288-2.248-2.295-3.883
		c-0.003-1.641,0.843-3.099,2.27-3.908l43.936-24.776c0.692-0.392,0.771-1.053,0.771-1.318c0.003-0.271-0.071-0.931-0.763-1.33
		l-48.879-28.065c-1.344-0.773-2.165-2.162-2.2-3.712c-0.031-1.549,0.731-2.971,2.039-3.803l19.97-12.65l1.532,2.417l-19.97,12.654
		c-0.653,0.417-0.713,1.063-0.706,1.318c0.004,0.26,0.091,0.904,0.763,1.292l48.878,28.065c1.385,0.797,2.208,2.225,2.201,3.82
		c-0.007,1.599-0.841,3.02-2.229,3.806l-43.935,24.777c-0.734,0.416-0.811,1.119-0.811,1.399c0,0.283,0.083,0.982,0.821,1.396
		l97.078,54.038c2.309,1.288,5.148,1.236,7.416-0.135l36.914-22.692c0.289-0.178,0.336-0.455,0.336-0.602
		c-0.004-0.119-0.036-0.413-0.341-0.599l-26.714-16.24l1.486-2.445l26.715,16.24c1.07,0.65,1.711,1.787,1.714,3.037
		c0.005,1.252-0.633,2.389-1.696,3.047l-36.924,22.699C640.591,528.811,638.747,529.308,636.903,529.308z"/>
	<path fill="#2E2D40" d="M520.224,359.518l-46.804-27.021c-2.872-1.658-2.512-4.555,0.806-6.471l45.193-26.092
		c3.317-1.914,8.334-2.122,11.205-0.463l46.804,27.021c2.873,1.658,2.513,4.555-0.804,6.471l-45.194,26.093
		C528.114,360.971,523.096,361.177,520.224,359.518z"/>
	<path fill="#3E3C55" d="M592.956,305.91L592.956,305.91v-20.222l-45.345-0.024l-15.674-9.049c-3.597-2.076-9.88-1.817-14.032,0.581
		l-14.624,8.444l-45.387-0.027v20.797c-0.103,1.407,0.683,2.762,2.41,3.761l58.608,33.837c3.596,2.076,9.879,1.816,14.031-0.583
		l56.594-32.671C591.933,309.37,593.088,307.579,592.956,305.91z"/>
	<path fill="#3E3C55" d="M525.426,275.224c-2.634,0.063-5.366,0.726-7.521,1.972l-14.624,8.444l-45.387-0.027v20.797
		c-0.103,1.407,0.683,2.762,2.41,3.761l58.608,33.837c1.728,0.999,4.078,1.45,6.514,1.39V275.224z"/>
	<path fill="#4F4E63" d="M463.034,285.616l-5.14-0.003v20.797c-0.103,1.407,0.683,2.762,2.41,3.761l2.729,1.575V285.616z"/>
	<path fill="#4F4E63" d="M519.814,344.45c3.104,1.329,7.593,1.255,11.221-0.128v-23.613h-11.221V344.45z"/>
	<path fill="#EF9659" d="M518.913,323.285l-58.608-33.836c-3.596-2.078-3.146-5.706,1.008-8.102l56.593-32.673
		c4.152-2.398,10.436-2.659,14.032-0.582l58.607,33.837c3.597,2.076,3.146,5.705-1.007,8.103l-56.594,32.671
		C528.792,325.101,522.508,325.361,518.913,323.285z"/>
	<path fill="#F17B1C" d="M519.968,317.194l-49.116-28.356c-3.011-1.741-2.634-4.779,0.848-6.79l47.423-27.379
		c3.48-2.01,8.745-2.229,11.758-0.488l49.116,28.356c3.013,1.74,2.634,4.781-0.846,6.789l-47.423,27.381
		C528.247,318.717,522.981,318.934,519.968,317.194z"/>
	<path fill="#D4ECFF" d="M571.398,311.246c0,1.51-1.061,3.347-2.369,4.101c-1.305,0.754-2.365,0.144-2.365-1.366
		c0-1.51,1.061-3.345,2.365-4.101C570.337,309.125,571.398,309.737,571.398,311.246z"/>
	<path fill="#D4ECFF" d="M579.014,306.851c0,1.507-1.061,3.345-2.369,4.099c-1.305,0.756-2.364,0.144-2.364-1.366
		s1.06-3.345,2.364-4.101C577.954,304.729,579.014,305.339,579.014,306.851z"/>
	<path fill="#D4ECFF" d="M586.63,302.453c0,1.51-1.061,3.345-2.369,4.101c-1.306,0.754-2.364,0.142-2.364-1.368
		s1.059-3.345,2.364-4.1C585.57,300.331,586.63,300.943,586.63,302.453z"/>
	<path fill="#3E3C55" d="M592.956,273.594L592.956,273.594v-20.222l-45.345-0.024l-15.674-9.049
		c-3.597-2.077-9.88-1.817-14.032,0.581l-14.624,8.444l-45.387-0.026v20.797c-0.103,1.407,0.683,2.762,2.41,3.761l58.608,33.835
		c3.596,2.076,9.879,1.818,14.031-0.582l56.594-32.671C591.933,277.053,593.088,275.262,592.956,273.594z"/>
	<path fill="#3E3C55" d="M525.426,242.906c-2.634,0.064-5.366,0.728-7.521,1.973l-14.624,8.444l-45.387-0.026v20.797
		c-0.103,1.407,0.683,2.762,2.41,3.761l58.608,33.835c1.728,1,4.078,1.45,6.514,1.391V242.906z"/>
	<path fill="#4F4E63" d="M463.034,253.3l-5.14-0.003v20.797c-0.103,1.407,0.683,2.762,2.41,3.761l2.729,1.574V253.3z"/>
	<path fill="#4F4E63" d="M519.814,312.133c3.104,1.33,7.593,1.256,11.221-0.128v-23.613h-11.221V312.133z"/>
	<path fill="#EF9659" d="M518.913,290.969l-58.608-33.836c-3.596-2.077-3.146-5.705,1.008-8.103l56.593-32.672
		c4.152-2.398,10.436-2.659,14.032-0.582l58.607,33.837c3.597,2.076,3.146,5.704-1.007,8.102l-56.594,32.671
		C528.792,292.784,522.508,293.045,518.913,290.969z"/>
	<path fill="#F17B1C" d="M519.968,284.88l-49.116-28.357c-3.011-1.74-2.634-4.779,0.848-6.79l47.423-27.379
		c3.48-2.01,8.745-2.229,11.758-0.488l49.116,28.355c3.013,1.741,2.634,4.781-0.846,6.789l-47.423,27.381
		C528.247,286.402,522.981,286.618,519.968,284.88z"/>
	<path fill="#D4ECFF" d="M571.398,278.931c0,1.509-1.061,3.346-2.369,4.1c-1.305,0.754-2.365,0.144-2.365-1.366
		s1.061-3.344,2.365-4.1C570.337,276.809,571.398,277.421,571.398,278.931z"/>
	<path fill="#D4ECFF" d="M579.014,274.535c0,1.508-1.061,3.344-2.369,4.099c-1.305,0.755-2.364,0.144-2.364-1.366
		s1.06-3.345,2.364-4.101C577.954,272.413,579.014,273.023,579.014,274.535z"/>
	<path fill="#D4ECFF" d="M586.63,270.137c0,1.51-1.061,3.345-2.369,4.101c-1.306,0.754-2.364,0.142-2.364-1.368
		s1.059-3.345,2.364-4.101C585.57,268.015,586.63,268.627,586.63,270.137z"/>
	<path fill="#3E3C55" d="M592.956,241.278L592.956,241.278v-20.222l-45.345-0.025l-15.674-9.049
		c-3.597-2.076-9.88-1.816-14.032,0.582l-14.624,8.443l-45.387-0.026v20.798c-0.103,1.405,0.683,2.761,2.41,3.759l58.608,33.836
		c3.596,2.077,9.879,1.817,14.031-0.581l56.594-32.673C591.933,244.738,593.088,242.946,592.956,241.278z"/>
	<path fill="#3E3C55" d="M525.426,210.591c-2.634,0.063-5.366,0.727-7.521,1.973l-14.624,8.443l-45.387-0.026v20.798
		c-0.103,1.405,0.683,2.761,2.41,3.759l58.608,33.836c1.728,0.999,4.078,1.45,6.514,1.391V210.591z"/>
	<path fill="#4F4E63" d="M463.034,220.984l-5.14-0.003v20.798c-0.103,1.405,0.683,2.761,2.41,3.759l2.729,1.575V220.984z"/>
	<path fill="#4F4E63" d="M519.814,279.817c3.104,1.33,7.593,1.256,11.221-0.127v-23.614h-11.221V279.817z"/>
	<path fill="#F17B1C" d="M518.913,258.652l-58.608-33.837c-3.596-2.076-3.146-5.703,1.008-8.102l56.593-32.673
		c4.152-2.398,10.436-2.658,14.032-0.582l58.607,33.837c3.597,2.076,3.146,5.705-1.007,8.103l-56.594,32.671
		C528.792,260.471,522.508,260.729,518.913,258.652z"/>
	<path fill="#EF9659" d="M589.538,221.419l-56.594,32.673c-4.152,2.396-10.436,2.659-14.031,0.58l-58.608-33.837
		c-0.801-0.463-1.389-1.005-1.795-1.592c-1.234,1.989-0.675,4.146,1.795,5.572l58.608,33.837c3.596,2.077,9.879,1.816,14.031-0.582
		l56.594-32.671c3.226-1.863,4.208-4.467,2.802-6.509C591.776,219.796,590.838,220.668,589.538,221.419z"/>
	<path fill="#D4ECFF" d="M571.398,246.614c0,1.51-1.061,3.346-2.369,4.101c-1.305,0.756-2.365,0.144-2.365-1.366
		c0-1.509,1.061-3.345,2.365-4.1C570.337,244.493,571.398,245.105,571.398,246.614z"/>
	<path fill="#D4ECFF" d="M579.014,242.217c0,1.51-1.061,3.346-2.369,4.101c-1.305,0.755-2.364,0.143-2.364-1.367
		s1.06-3.345,2.364-4.1C577.954,240.096,579.014,240.708,579.014,242.217z"/>
	<path fill="#D4ECFF" d="M586.63,237.82c0,1.51-1.061,3.345-2.369,4.1c-1.306,0.754-2.364,0.144-2.364-1.366
		s1.059-3.346,2.364-4.101C585.57,235.699,586.63,236.312,586.63,237.82z"/>
	<path fill="#5793CE" d="M522.379,237.675l-27.426-15.833c-1.683-0.973-1.472-2.669,0.469-3.792l26.484-15.289
		c1.942-1.122,4.884-1.244,6.566-0.272l27.426,15.834c1.683,0.973,1.473,2.67-0.473,3.792l-26.48,15.29
		C527.001,238.524,524.062,238.646,522.379,237.675z"/>
	<path fill="#D4ECFF" d="M525.002,224.417l-3.791-2.191c-0.235-0.135-0.207-0.369,0.063-0.525l3.666-2.115
		c0.267-0.156,0.675-0.172,0.906-0.039l3.796,2.192c0.23,0.134,0.203,0.37-0.065,0.525l-3.663,2.115
		C525.644,224.535,525.238,224.551,525.002,224.417z"/>
	<path fill="#396CAA" d="M494.954,221.841l0.077,0.043c0.127-0.091,0.246-0.185,0.392-0.271l26.484-15.289
		c1.942-1.122,4.884-1.244,6.566-0.272l27.348,15.79c1.551-1.111,1.631-2.624,0.078-3.522l-27.426-15.834
		c-1.683-0.971-4.624-0.85-6.566,0.272l-26.484,15.289C493.482,219.172,493.271,220.869,494.954,221.841z"/>
	<polygon fill="#404051" points="564.704,183.75 575.644,177.306 565.226,164.301 562.485,168.777 	"/>
	<path fill="#404051" d="M485.261,112.376l17.461-10.045c0,0-0.656,10.025-0.656,10.045c0,0.021-10.031,3.107-10.031,3.107
		L485.261,112.376z"/>
	<path fill="#3E3C55" d="M567.744,151.048c-1.329-0.768-2.598-1.216-3.777-1.4c-1.761-9.252-8.198-19.078-15.875-23.51
		c-2.309-1.333-4.505-2.045-6.496-2.199c-1.049-11.214-8.847-23.96-18.315-29.426c-4.947-2.856-9.435-3.194-12.745-1.445
		l0.001-0.009l-0.162,0.093c-0.084,0.047-0.168,0.095-0.251,0.145l-10.298,6.081l3.423,2.703c-3.071,1.342-5.013,4.787-5.013,9.877
		c0,9.39,6.593,20.808,14.725,25.502l54.784,39.121c6.106,3.525,11.056,0.668,11.056-6.382S573.85,154.573,567.744,151.048z"/>
	<path fill="#404051" d="M498.743,107.824l23.634-13.807c-4.589-2.393-8.734-2.59-11.842-0.949l0.001-0.009l-0.162,0.093
		c-0.084,0.047-0.168,0.095-0.251,0.145l-10.298,6.081l3.423,2.703C501.101,103.018,499.509,104.986,498.743,107.824z"/>
	<path fill="#404051" d="M542.386,148.444l17.243-10.119c-2.958-5.116-7.03-9.584-11.538-12.187
		c-0.598-0.345-1.187-0.646-1.766-0.909l-21.932,12.827L542.386,148.444z"/>
	<path fill="#4F4E68" d="M504.684,100.507l7.685,4.436l14.073-8.288c-1.027-0.799-2.085-1.521-3.162-2.143
		c-1.704-0.984-3.351-1.662-4.918-2.066L504.684,100.507z"/>
	<path fill="#4F4E68" d="M557.727,135.347l-13.762,8.109l4.787,5.339l12.493-7.376C560.257,139.303,559.07,137.257,557.727,135.347z
		"/>
	<path fill="#F17B1C" d="M556.933,157.416c-1.328-0.768-2.597-1.215-3.777-1.4c-1.76-9.251-8.199-19.078-15.874-23.511
		c-2.311-1.333-4.505-2.044-6.497-2.198c-1.048-11.215-8.846-23.96-18.314-29.427c-10.183-5.879-18.439-1.114-18.439,10.645
		c0,0.399,0.011,0.801,0.03,1.206c-7.446-3.454-13.265,0.438-13.265,9.259c0,9.389,6.593,20.806,14.724,25.501l61.413,35.457
		c6.107,3.525,11.057,0.668,11.057-6.383C567.99,169.515,563.041,160.941,556.933,157.416z"/>
	<path fill="#515166" d="M494.061,112.73c-0.02-0.404-0.03-0.806-0.03-1.206c0-0.017,0-0.033,0-0.049
		c-4.113-1.6-7.647-0.903-9.865,1.663C486.575,111.155,490.08,110.884,494.061,112.73z"/>
	<path fill="#515166" d="M557.834,156.539c-1.331-0.767-2.6-1.214-3.778-1.399c-1.762-9.253-8.199-19.078-15.876-23.511
		c-2.309-1.333-4.505-2.045-6.497-2.198c-1.048-11.216-8.846-23.96-18.314-29.427c-6.345-3.663-11.939-3.193-15.256,0.525
		c3.379-2.889,8.553-3,14.357,0.351c9.469,5.467,17.267,18.212,18.314,29.427c1.992,0.153,4.187,0.865,6.497,2.198
		c7.675,4.433,14.114,14.258,15.874,23.511c1.181,0.185,2.449,0.633,3.777,1.4c6.107,3.525,11.057,12.099,11.057,19.149
		c0,2.545-0.65,4.533-1.763,5.882c1.655-1.275,2.663-3.588,2.663-6.758C568.89,168.638,563.939,160.064,557.834,156.539z"/>
	<path fill="#3E3C55" d="M492.763,115.531l4.616,2.14l-0.235-5.083c-0.016-0.357-0.026-0.711-0.026-1.064
		c0-4.538,1.37-7.827,3.857-9.264c2.487-1.434,6.021-0.977,9.951,1.292c8.452,4.879,15.823,16.757,16.784,27.041l0.242,2.591
		l2.595,0.199c1.596,0.123,3.342,0.726,5.189,1.794c6.714,3.875,12.765,12.881,14.387,21.415l0.407,2.136l2.147,0.335
		c0.856,0.135,1.769,0.479,2.713,1.025c5.155,2.977,9.512,10.522,9.512,16.476c0,2.229-0.617,3.863-1.694,4.485
		c-1.076,0.621-2.802,0.339-4.731-0.774l-61.414-35.458c-7.145-4.125-13.181-14.579-13.181-22.829c0-3.237,0.955-5.703,2.62-6.767
		c0.685-0.437,1.513-0.655,2.448-0.655C490.086,114.567,491.38,114.89,492.763,115.531z"/>
	<polygon fill="#5793CE" points="523.415,154.021 525.034,153.208 523.439,152 	"/>
	<polygon fill="#5793CE" points="518.548,132.137 520.122,131.341 520.149,132.165 	"/>
	<polygon fill="#5793CE" points="528.037,148.906 529.676,148.081 526.518,145.076 	"/>
	<path fill="#B75A1C" d="M524.559,153.157l-7.671-4.518c-0.389-0.229-0.701-0.807-0.701-1.29l0.025-8.88l9.08,5.348l-0.025,8.88
		C525.267,153.18,524.95,153.386,524.559,153.157z"/>
	<path fill="#B75A1C" d="M520.104,131.352l-8.284,5.331c-0.352,0.226-0.067,1.07,0.466,1.384l8.46,4.983l8.463,4.983
		c0.534,0.314,0.82-0.192,0.472-0.831l-8.227-15.055C521.099,131.496,520.462,131.122,520.104,131.352z"/>
	<path fill="#F17B1C" d="M522.915,153.984l-7.67-4.518c-0.389-0.229-0.704-0.806-0.702-1.289l0.024-8.88l9.08,5.348l-0.024,8.88
		C523.621,154.008,523.304,154.214,522.915,153.984z"/>
	<path fill="#F17B1C" d="M518.458,132.18l-8.283,5.331c-0.353,0.226-0.068,1.069,0.465,1.383l8.463,4.983l8.459,4.983
		c0.535,0.314,0.821-0.192,0.475-0.831l-8.229-15.055C519.454,132.325,518.817,131.949,518.458,132.18z"/>
	<path fill="#2E2D40" d="M348.701,365.459l-46.803-27.023c-2.872-1.658-2.512-4.555,0.805-6.469l45.191-26.093
		c3.316-1.914,8.333-2.124,11.205-0.464l46.804,27.021c2.872,1.659,2.512,4.556-0.805,6.47l-45.191,26.093
		C356.59,366.909,351.573,367.118,348.701,365.459z"/>
	<path fill="#396CAA" d="M421.429,311.851L421.429,311.851v-20.222l-45.344-0.024l-15.674-9.051
		c-3.596-2.077-9.88-1.816-14.033,0.583l-14.622,8.444l-45.385-0.026v20.797c-0.102,1.407,0.682,2.761,2.41,3.762l58.608,33.833
		c3.596,2.079,9.88,1.816,14.033-0.581l56.588-32.672C420.407,315.311,421.565,313.52,421.429,311.851z"/>
	<path fill="#3E3C55" d="M353.899,281.163c-2.63,0.065-5.363,0.728-7.521,1.973l-14.622,8.444l-45.385-0.026v20.797
		c-0.102,1.407,0.682,2.761,2.41,3.762l58.608,33.833c1.729,1.001,4.075,1.453,6.51,1.393V281.163z"/>
	<path fill="#4F4E63" d="M291.507,291.555l-5.136-0.001v20.797c-0.102,1.407,0.682,2.761,2.41,3.762l2.726,1.57V291.555z"/>
	<path fill="#4F4E63" d="M348.292,350.39c3.104,1.33,7.589,1.254,11.216-0.128v-23.616h-11.216V350.39z"/>
	<path fill="#EF9659" d="M347.389,329.225l-58.608-33.837c-3.596-2.076-3.147-5.704,1.007-8.101l56.589-32.673
		c4.153-2.398,10.437-2.659,14.033-0.583l58.608,33.838c3.6,2.076,3.148,5.705-1.008,8.103l-56.588,32.672
		C357.269,331.041,350.985,331.303,347.389,329.225z"/>
	<path fill="#F17B1C" d="M348.442,323.134l-49.113-28.355c-3.014-1.74-2.636-4.78,0.843-6.789l47.423-27.38
		c3.48-2.009,8.747-2.228,11.762-0.488l49.113,28.356c3.016,1.741,2.638,4.78-0.843,6.789l-47.423,27.38
		C356.724,324.655,351.458,324.876,348.442,323.134z"/>
	<path fill="#D4ECFF" d="M399.875,317.186c0,1.512-1.06,3.345-2.369,4.101c-1.308,0.755-2.369,0.144-2.369-1.365
		c0-1.511,1.061-3.348,2.369-4.1C398.814,315.066,399.875,315.678,399.875,317.186z"/>
	<path fill="#D4ECFF" d="M407.49,312.788c0,1.512-1.06,3.348-2.369,4.101c-1.308,0.756-2.368,0.144-2.368-1.364
		c0-1.512,1.06-3.345,2.368-4.101C406.43,310.668,407.49,311.28,407.49,312.788z"/>
	<path fill="#D4ECFF" d="M415.103,308.394c0,1.508-1.057,3.346-2.365,4.097c-1.309,0.756-2.369,0.144-2.369-1.364
		c0-1.512,1.06-3.345,2.369-4.101C414.046,306.271,415.103,306.882,415.103,308.394z"/>
	<path fill="#3E3C55" d="M421.429,279.534L421.429,279.534v-20.222l-45.344-0.024l-15.674-9.051
		c-3.596-2.074-9.88-1.815-14.033,0.583l-14.622,8.444l-45.385-0.027v20.797c-0.102,1.407,0.682,2.762,2.41,3.761l58.608,33.835
		c3.596,2.078,9.88,1.816,14.033-0.581l56.588-32.672C420.407,282.994,421.565,281.203,421.429,279.534z"/>
	<path fill="#3E3C55" d="M353.899,248.846c-2.63,0.065-5.363,0.728-7.521,1.974l-14.622,8.444l-45.385-0.027v20.797
		c-0.102,1.407,0.682,2.762,2.41,3.761l58.608,33.835c1.729,1,4.075,1.452,6.51,1.393V248.846z"/>
	<path fill="#4F4E63" d="M291.507,259.239l-5.136-0.002v20.797c-0.102,1.407,0.682,2.762,2.41,3.761l2.726,1.575V259.239z"/>
	<path fill="#4F4E63" d="M348.292,318.074c3.104,1.33,7.589,1.253,11.216-0.129v-23.612h-11.216V318.074z"/>
	<path fill="#EF9659" d="M347.389,296.909l-58.608-33.837c-3.596-2.076-3.147-5.705,1.007-8.102l56.589-32.672
		c4.153-2.398,10.437-2.659,14.033-0.583l58.608,33.838c3.6,2.076,3.148,5.705-1.008,8.101l-56.588,32.673
		C357.269,298.725,350.985,298.986,347.389,296.909z"/>
	<path fill="#F17B1C" d="M348.442,290.819l-49.113-28.356c-3.014-1.741-2.636-4.781,0.843-6.79l47.423-27.379
		c3.48-2.01,8.747-2.229,11.762-0.488l49.113,28.356c3.016,1.74,2.638,4.781-0.843,6.789l-47.423,27.379
		C356.724,292.34,351.458,292.559,348.442,290.819z"/>
	<path fill="#D4ECFF" d="M399.875,284.871c0,1.51-1.06,3.345-2.369,4.101c-1.308,0.754-2.369,0.144-2.369-1.366
		c0-1.509,1.061-3.347,2.369-4.1C398.814,282.749,399.875,283.361,399.875,284.871z"/>
	<path fill="#D4ECFF" d="M407.49,280.473c0,1.51-1.06,3.347-2.369,4.101c-1.308,0.756-2.368,0.144-2.368-1.366
		s1.06-3.345,2.368-4.101C406.43,278.352,407.49,278.963,407.49,280.473z"/>
	<path fill="#D4ECFF" d="M415.103,276.077c0,1.508-1.057,3.345-2.365,4.101c-1.309,0.754-2.369,0.142-2.369-1.368
		s1.06-3.345,2.369-4.1C414.046,273.955,415.103,274.566,415.103,276.077z"/>
	<path fill="#3E3C55" d="M421.429,247.217L421.429,247.217v-20.221l-45.344-0.024l-15.674-9.049
		c-3.596-2.077-9.88-1.818-14.033,0.581l-14.622,8.444l-45.385-0.026v20.797c-0.102,1.406,0.682,2.762,2.41,3.762l58.608,33.835
		c3.596,2.076,9.88,1.816,14.033-0.582l56.588-32.671C420.407,250.678,421.565,248.886,421.429,247.217z"/>
	<path fill="#3E3C55" d="M353.899,216.53c-2.63,0.065-5.363,0.728-7.521,1.973l-14.622,8.444l-45.385-0.026v20.797
		c-0.102,1.406,0.682,2.762,2.41,3.762l58.608,33.835c1.729,1,4.075,1.45,6.51,1.391V216.53z"/>
	<path fill="#4F4E63" d="M291.507,226.924l-5.136-0.003v20.797c-0.102,1.406,0.682,2.762,2.41,3.762l2.726,1.574V226.924z"/>
	<path fill="#4F4E63" d="M348.292,285.758c3.104,1.33,7.589,1.254,11.216-0.13v-23.611h-11.216V285.758z"/>
	<path fill="#F17B1C" d="M347.389,264.594l-58.608-33.836c-3.596-2.079-3.147-5.706,1.007-8.103l56.589-32.672
		c4.153-2.399,10.437-2.659,14.033-0.583l58.608,33.838c3.6,2.077,3.148,5.705-1.008,8.101l-56.588,32.673
		C357.269,266.409,350.985,266.67,347.389,264.594z"/>
	<path fill="#FFFFFF" d="M418.01,227.36l-56.588,32.671c-4.153,2.398-10.437,2.659-14.033,0.583l-58.608-33.838
		c-0.803-0.461-1.392-1.004-1.794-1.592c-1.237,1.989-0.675,4.146,1.794,5.571l58.608,33.839c3.596,2.076,9.88,1.815,14.033-0.583
		l56.588-32.673c3.229-1.861,4.209-4.464,2.803-6.509C420.25,225.737,419.313,226.608,418.01,227.36z"/>
	<path fill="#D4ECFF" d="M399.875,252.555c0,1.51-1.06,3.345-2.369,4.1c-1.308,0.754-2.369,0.144-2.369-1.366s1.061-3.346,2.369-4.1
		C398.814,250.433,399.875,251.045,399.875,252.555z"/>
	<path fill="#D4ECFF" d="M407.49,248.157c0,1.51-1.06,3.346-2.369,4.101c-1.308,0.755-2.368,0.143-2.368-1.366
		c0-1.51,1.06-3.345,2.368-4.101C406.43,246.035,407.49,246.647,407.49,248.157z"/>
	<path fill="#D4ECFF" d="M415.103,243.761c0,1.508-1.057,3.345-2.365,4.1c-1.309,0.754-2.369,0.142-2.369-1.368
		s1.06-3.345,2.369-4.101C414.046,241.639,415.103,242.25,415.103,243.761z"/>
	<path fill="#5793CE" d="M350.853,243.614l-27.425-15.834c-1.683-0.971-1.472-2.669,0.472-3.791l26.48-15.288
		c1.945-1.124,4.884-1.244,6.566-0.273l27.425,15.834c1.686,0.971,1.473,2.669-0.469,3.791l-26.484,15.289
		C355.478,244.465,352.536,244.587,350.853,243.614z"/>
	<path fill="#D4ECFF" d="M353.48,230.356l-3.796-2.19c-0.231-0.135-0.203-0.369,0.066-0.525l3.663-2.115
		c0.27-0.156,0.675-0.171,0.91-0.038l3.792,2.189c0.234,0.135,0.206,0.371-0.063,0.525l-3.667,2.117
		C354.12,230.474,353.711,230.491,353.48,230.356z"/>
	<path fill="#396CAA" d="M323.428,227.78l0.079,0.045c0.128-0.091,0.247-0.185,0.394-0.271l26.48-15.288
		c1.945-1.122,4.884-1.244,6.566-0.271l27.348,15.79c1.553-1.113,1.634-2.625,0.077-3.522l-27.425-15.834
		c-1.683-0.971-4.621-0.851-6.566,0.273l-26.48,15.288C321.956,225.111,321.745,226.809,323.428,227.78z"/>
	<path fill="#D4ECFF" d="M343.61,270.502c0,1.016-0.713,1.427-1.591,0.92c-0.882-0.509-1.595-1.744-1.595-2.758
		c0-1.016,0.713-1.428,1.595-0.92C342.897,268.251,343.61,269.486,343.61,270.502z"/>
	<path fill="#D4ECFF" d="M338.671,267.668c0,1.016-0.713,1.428-1.595,0.92c-0.878-0.509-1.592-1.744-1.592-2.76
		s0.714-1.428,1.592-0.918C337.958,265.417,338.671,266.652,338.671,267.668z"/>
	<path fill="#D4ECFF" d="M343.61,276.465c0,1.017-0.713,1.428-1.591,0.92c-0.882-0.507-1.595-1.743-1.595-2.759
		s0.713-1.427,1.595-0.92C342.897,274.216,343.61,275.451,343.61,276.465z"/>
	<path fill="#D4ECFF" d="M338.671,273.632c0,1.016-0.713,1.427-1.595,0.92c-0.878-0.507-1.592-1.744-1.592-2.76
		c0-1.014,0.714-1.427,1.592-0.918C337.958,271.381,338.671,272.616,338.671,273.632z"/>
	<path fill="#D4ECFF" d="M343.61,302.658c0,1.016-0.713,1.429-1.591,0.92c-0.882-0.507-1.595-1.744-1.595-2.758
		c0-1.016,0.713-1.428,1.595-0.92C342.897,300.407,343.61,301.643,343.61,302.658z"/>
	<path fill="#D4ECFF" d="M338.671,299.824c0,1.016-0.713,1.428-1.595,0.92c-0.878-0.509-1.592-1.744-1.592-2.759
		c0-1.016,0.714-1.427,1.592-0.919C337.958,297.572,338.671,298.807,338.671,299.824z"/>
	<path fill="#D4ECFF" d="M343.61,308.623c0,1.014-0.713,1.426-1.591,0.919c-0.882-0.507-1.595-1.744-1.595-2.76
		s0.713-1.427,1.595-0.918C342.897,306.372,343.61,307.606,343.61,308.623z"/>
	<path fill="#D4ECFF" d="M338.671,305.787c0,1.016-0.713,1.427-1.595,0.92c-0.878-0.507-1.592-1.742-1.592-2.758
		s0.714-1.428,1.592-0.92C337.958,303.537,338.671,304.772,338.671,305.787z"/>
	<path fill="#D4ECFF" d="M343.61,334.815c0,1.015-0.713,1.428-1.591,0.917c-0.882-0.508-1.595-1.742-1.595-2.757
		c0-1.019,0.713-1.428,1.595-0.921C342.897,332.562,343.61,333.797,343.61,334.815z"/>
	<path fill="#D4ECFF" d="M338.671,331.978c0,1.018-0.713,1.427-1.595,0.92c-0.878-0.507-1.592-1.742-1.592-2.757
		c0-1.018,0.714-1.427,1.592-0.92C337.958,329.728,338.671,330.963,338.671,331.978z"/>
	<path fill="#D4ECFF" d="M343.61,340.777c0,1.018-0.713,1.428-1.591,0.92c-0.882-0.508-1.595-1.742-1.595-2.76
		c0-1.016,0.713-1.428,1.595-0.917C342.897,338.527,343.61,339.762,343.61,340.777z"/>
	<path fill="#D4ECFF" d="M338.671,337.943c0,1.015-0.713,1.428-1.595,0.92c-0.878-0.507-1.592-1.742-1.592-2.761
		c0-1.014,0.714-1.427,1.592-0.919C337.958,335.693,338.671,336.928,338.671,337.943z"/>
	<path fill="#2E2D40" d="M354.662,389.508c-1.679,0-3.355-0.434-4.849-1.297l-29.531-17.144c-1.004-0.584-1.603-1.624-1.603-2.781
		c0-1.162,0.599-2.203,1.603-2.784l19.423-11.268l1.438,2.482l-19.422,11.262c-0.148,0.087-0.178,0.213-0.178,0.308
		c0,0.092,0.03,0.224,0.177,0.305l29.531,17.139c2.085,1.211,4.681,1.218,6.773,0.029l57.844-32.965
		c2.978-1.697,6.672-1.68,9.632,0.041l48.455,27.986c2.104,1.225,4.718,1.229,6.817,0.011l23.364-13.511l1.434,2.479l-23.362,13.513
		c-2.992,1.728-6.7,1.721-9.688-0.016l-48.454-27.984c-2.089-1.216-4.685-1.225-6.78-0.032l-57.845,32.964
		C357.965,389.085,356.314,389.508,354.662,389.508z"/>
	<path fill="#2E2D40" d="M622.223,501.55l-46.8-27.022c-2.876-1.658-2.517-4.555,0.804-6.468l45.191-26.094
		c3.317-1.913,8.333-2.122,11.206-0.465l46.803,27.023c2.873,1.657,2.513,4.556-0.804,6.469l-45.19,26.092
		C630.116,503.003,625.095,503.209,622.223,501.55z"/>
	<path fill="#3E3C55" d="M694.955,447.943L694.955,447.943v-20.222l-45.345-0.024l-15.674-9.052
		c-3.597-2.073-9.88-1.814-14.032,0.585l-14.624,8.442l-45.384-0.027v20.798c-0.104,1.406,0.68,2.764,2.407,3.762l58.607,33.833
		c3.601,2.079,9.88,1.819,14.036-0.58l56.59-32.672C693.932,451.404,695.087,449.612,694.955,447.943z"/>
	<path fill="#3E3C55" d="M627.425,417.256c-2.631,0.063-5.363,0.725-7.521,1.974l-14.624,8.442l-45.384-0.027v20.798
		c-0.104,1.406,0.68,2.764,2.407,3.762l58.607,33.833c1.729,1.001,4.08,1.452,6.515,1.394V417.256z"/>
	<path fill="#4F4E63" d="M565.033,427.647l-5.137-0.002v20.798c-0.104,1.406,0.68,2.764,2.407,3.762l2.729,1.574V427.647z"/>
	<path fill="#4F4E63" d="M621.817,486.482c3.101,1.33,7.589,1.257,11.217-0.128v-23.612h-11.217V486.482z"/>
	<path fill="#EF9659" d="M620.911,465.321l-58.607-33.839c-3.597-2.078-3.146-5.706,1.007-8.102l56.594-32.674
		c4.152-2.397,10.436-2.659,14.032-0.58l58.607,33.833c3.597,2.079,3.146,5.707-1.007,8.103l-56.59,32.674
		C630.791,467.136,624.511,467.394,620.911,465.321z"/>
	<path fill="#F17B1C" d="M621.967,459.229l-49.112-28.355c-3.015-1.743-2.638-4.783,0.844-6.791l47.423-27.379
		c3.479-2.013,8.746-2.229,11.762-0.491l49.112,28.356c3.013,1.742,2.634,4.783-0.846,6.791l-47.424,27.379
		C630.246,460.751,624.983,460.967,621.967,459.229z"/>
	<path fill="#D4ECFF" d="M673.397,453.282c0,1.507-1.061,3.345-2.366,4.096c-1.309,0.756-2.367,0.144-2.367-1.363
		c0-1.512,1.059-3.345,2.367-4.101C672.336,451.158,673.397,451.77,673.397,453.282z"/>
	<path fill="#D4ECFF" d="M681.013,448.884c0,1.508-1.061,3.345-2.365,4.1c-1.31,0.753-2.368,0.141-2.368-1.367
		c0-1.512,1.059-3.345,2.368-4.101C679.953,446.76,681.013,447.373,681.013,448.884z"/>
	<path fill="#D4ECFF" d="M688.628,444.486c0,1.508-1.061,3.345-2.368,4.101c-1.306,0.752-2.364,0.144-2.364-1.368
		c0-1.508,1.059-3.345,2.364-4.1C687.568,442.363,688.628,442.975,688.628,444.486z"/>
	<path fill="#3E3C55" d="M694.955,415.627L694.955,415.627v-20.223l-45.345-0.024l-15.674-9.05
		c-3.597-2.075-9.88-1.817-14.032,0.583l-14.624,8.442l-45.384-0.027v20.799c-0.104,1.405,0.68,2.764,2.407,3.761l58.607,33.835
		c3.601,2.077,9.88,1.819,14.036-0.581l56.59-32.674C693.932,419.086,695.087,417.294,694.955,415.627z"/>
	<path fill="#3E3C55" d="M627.425,384.942c-2.631,0.063-5.363,0.723-7.521,1.972l-14.624,8.442l-45.384-0.027v20.799
		c-0.104,1.405,0.68,2.764,2.407,3.761l58.607,33.835c1.729,1,4.08,1.451,6.515,1.392V384.942z"/>
	<path fill="#4F4E63" d="M565.033,395.333l-5.137-0.004v20.799c-0.104,1.405,0.68,2.764,2.407,3.761l2.729,1.574V395.333z"/>
	<path fill="#4F4E63" d="M621.817,454.167c3.101,1.328,7.589,1.256,11.217-0.13v-23.612h-11.217V454.167z"/>
	<path fill="#EF9659" d="M620.911,433.004l-58.607-33.838c-3.597-2.079-3.146-5.707,1.007-8.103l56.594-32.674
		c4.152-2.397,10.436-2.659,14.032-0.581l58.607,33.835c3.597,2.078,3.146,5.706-1.007,8.104l-56.59,32.672
		C630.791,434.819,624.511,435.079,620.911,433.004z"/>
	<path fill="#F17B1C" d="M621.967,426.914l-49.112-28.356c-3.015-1.742-2.638-4.783,0.844-6.791l47.423-27.379
		c3.479-2.013,8.746-2.229,11.762-0.487l49.112,28.353c3.013,1.743,2.634,4.783-0.846,6.791l-47.424,27.379
		C630.246,428.435,624.983,428.652,621.967,426.914z"/>
	<path fill="#D4ECFF" d="M673.397,420.965c0,1.509-1.061,3.345-2.366,4.098c-1.309,0.756-2.367,0.144-2.367-1.366
		s1.059-3.344,2.367-4.099C672.336,418.842,673.397,419.455,673.397,420.965z"/>
	<path fill="#D4ECFF" d="M681.013,416.568c0,1.508-1.061,3.345-2.365,4.101c-1.31,0.752-2.368,0.14-2.368-1.368
		c0-1.512,1.059-3.345,2.368-4.101C679.953,414.444,681.013,415.056,681.013,416.568z"/>
	<path fill="#D4ECFF" d="M688.628,412.17c0,1.508-1.061,3.345-2.368,4.1c-1.306,0.753-2.364,0.144-2.364-1.367
		c0-1.509,1.059-3.345,2.364-4.101C687.568,410.046,688.628,410.659,688.628,412.17z"/>
	<path fill="#3E3C55" d="M694.955,383.311L694.955,383.311v-20.222l-45.345-0.024l-15.674-9.053
		c-3.597-2.073-9.88-1.815-14.032,0.585l-14.624,8.443l-45.384-0.024v20.795c-0.104,1.406,0.68,2.764,2.407,3.761l58.607,33.837
		c3.601,2.075,9.88,1.817,14.036-0.583l56.59-32.674C693.932,386.77,695.087,384.98,694.955,383.311z"/>
	<path fill="#3E3C55" d="M627.425,352.624c-2.631,0.063-5.363,0.725-7.521,1.974l-14.624,8.443l-45.384-0.024v20.795
		c-0.104,1.406,0.68,2.764,2.407,3.761l58.607,33.837c1.729,0.998,4.08,1.449,6.515,1.391V352.624z"/>
	<path fill="#4F4E63" d="M565.033,363.016h-5.137v20.795c-0.104,1.406,0.68,2.764,2.407,3.761l2.729,1.574V363.016z"/>
	<path fill="#4F4E63" d="M621.817,421.851c3.101,1.329,7.589,1.256,11.217-0.13V398.11h-11.217V421.851z"/>
	<path fill="#F17B1C" d="M620.911,400.685l-58.607-33.835c-3.597-2.078-3.146-5.707,1.007-8.103l56.594-32.674
		c4.152-2.396,10.436-2.659,14.032-0.581l58.607,33.834c3.597,2.078,3.146,5.707-1.007,8.104l-56.59,32.673
		C630.791,402.504,624.511,402.762,620.911,400.685z"/>
	<path fill="#EF9659" d="M691.537,363.454l-56.59,32.672c-4.156,2.397-10.436,2.659-14.036,0.58l-58.607-33.837
		c-0.801-0.463-1.389-1.004-1.795-1.592c-1.234,1.987-0.675,4.146,1.795,5.573l58.607,33.835c3.601,2.077,9.88,1.819,14.036-0.581
		l56.59-32.673c3.226-1.862,4.208-4.465,2.802-6.508C693.775,361.83,692.837,362.7,691.537,363.454z"/>
	<path fill="#D4ECFF" d="M673.397,388.65c0,1.508-1.061,3.345-2.366,4.097c-1.309,0.756-2.367,0.144-2.367-1.364
		c0-1.512,1.059-3.345,2.367-4.101C672.336,386.526,673.397,387.138,673.397,388.65z"/>
	<path fill="#D4ECFF" d="M681.013,384.251c0,1.509-1.061,3.345-2.365,4.101c-1.31,0.752-2.368,0.141-2.368-1.368
		c0-1.511,1.059-3.345,2.368-4.1C679.953,382.128,681.013,382.741,681.013,384.251z"/>
	<path fill="#D4ECFF" d="M688.628,379.854c0,1.508-1.061,3.345-2.368,4.101c-1.306,0.752-2.364,0.144-2.364-1.368
		c0-1.508,1.059-3.345,2.364-4.101C687.568,377.73,688.628,378.342,688.628,379.854z"/>
	<path fill="#5793CE" d="M624.378,379.707l-27.426-15.834c-1.683-0.973-1.472-2.669,0.473-3.789l26.48-15.293
		c1.942-1.119,4.884-1.241,6.566-0.269l27.426,15.831c1.683,0.974,1.472,2.67-0.473,3.793l-26.48,15.288
		C629,380.556,626.061,380.679,624.378,379.707z"/>
	<path fill="#D4ECFF" d="M627.001,366.451l-3.791-2.193c-0.235-0.133-0.204-0.367,0.065-0.523l3.663-2.113
		c0.27-0.159,0.675-0.173,0.906-0.04l3.796,2.191c0.234,0.137,0.203,0.37-0.066,0.524l-3.663,2.116
		C627.643,366.567,627.237,366.584,627.001,366.451z"/>
	<path fill="#396CAA" d="M596.953,363.873l0.078,0.045c0.128-0.09,0.244-0.184,0.395-0.269l26.48-15.293
		c1.942-1.119,4.884-1.242,6.566-0.269l27.348,15.788c1.55-1.111,1.635-2.623,0.078-3.522l-27.426-15.831
		c-1.683-0.973-4.624-0.851-6.566,0.269l-26.48,15.293C595.481,361.204,595.27,362.9,596.953,363.873z"/>
	<path fill="#3E3C55" d="M511.305,164.391c0,0.5-0.352,0.702-0.785,0.452c-0.432-0.25-0.783-0.858-0.783-1.357
		c0-0.5,0.352-0.702,0.783-0.453C510.954,163.283,511.305,163.891,511.305,164.391z"/>
	<path fill="#3E3C55" d="M518.208,168.577c0,0.5-0.352,0.702-0.784,0.452c-0.434-0.25-0.782-0.857-0.782-1.357
		c0-0.5,0.349-0.703,0.782-0.453C517.856,167.469,518.208,168.077,518.208,168.577z"/>
	<path fill="#3E3C55" d="M525.111,172.763c0,0.5-0.351,0.703-0.782,0.453c-0.434-0.25-0.785-0.858-0.785-1.357
		c0-0.5,0.352-0.702,0.785-0.453C524.76,171.655,525.111,172.263,525.111,172.763z"/>
	<path fill="#3E3C55" d="M532.016,176.949c0,0.5-0.352,0.703-0.785,0.452c-0.433-0.25-0.783-0.857-0.783-1.357
		c0-0.5,0.351-0.703,0.783-0.453C531.665,175.841,532.016,176.45,532.016,176.949z"/>
	
		<linearGradient id="SVGID_1_" gradientUnits="userSpaceOnUse" x1="488.2368" y1="-94.1362" x2="488.2368" y2="-40.3252" gradientTransform="matrix(0.8671 0.4981 0.9987 -0.5796 -1.5597 -55.9617)">
		<stop  offset="0" style="stop-color:#808080;stop-opacity:0.25"/>
		<stop  offset="0.54" style="stop-color:#808080;stop-opacity:0.12"/>
		<stop  offset="1" style="stop-color:#808080;stop-opacity:0.1"/>
	</linearGradient>
	<path fill="url(#SVGID_1_)" d="M361.343,199.015l40.351,23.176c3.392,1.949,2.976,5.369-0.933,7.638l-39.583,22.97
		c-3.91,2.271-9.829,2.529-13.226,0.579l-40.351-23.177c-3.39-1.948-2.974-5.368,0.934-7.638l39.583-22.97
		C352.026,197.323,357.947,197.066,361.343,199.015z"/>
	<path fill="#E0E0E0" d="M361.322,200.152l38.398,22.055c3.396,1.95,2.977,5.371-0.931,7.639l-37.592,21.815
		c-3.911,2.269-9.831,2.528-13.226,0.578l-38.4-22.057c-3.396-1.949-2.976-5.369,0.932-7.638l37.592-21.817
		C352.005,198.46,357.927,198.202,361.322,200.152z"/>
	<path fill="#6762A6" d="M322.777,233.527l3.883-2.255c0.215-0.121,0.248-0.306,0.068-0.417c-0.016-0.01-0.037-0.02-0.056-0.028
		c-0.493-0.27-1.088-0.471-1.746-0.592l-3.913,2.268l-0.952-0.545l7.193-4.175l0.948,0.545l-2.374,1.38
		c0.703,0.152,1.342,0.377,1.879,0.667c0.862,0.497,0.572,1.035-0.264,1.52l-3.729,2.167l-0.941-0.541L322.777,233.527z
		 M327.836,233.72c-1.27,0.774-1.304,1.048-0.609,1.448c0.591,0.306,1.285,0.541,2.052,0.698l-0.66,0.566
		c-0.905-0.143-1.713-0.403-2.371-0.766c-1.583-0.907-0.834-1.626,0.765-2.555c0.789-0.478,1.676-0.9,2.627-1.251
		c0.854,0.213,1.613,0.516,2.238,0.901c1.298,0.744,0.862,1.452-0.586,2.292l-0.553,0.321l-2.881-1.654L327.836,233.72z
		 M330.956,233.295c-0.365-0.217-0.763-0.413-1.196-0.583c-0.418,0.167-0.812,0.357-1.177,0.563l1.973,1.135
		C331.315,233.973,331.604,233.668,330.956,233.295z M334.058,235.486l-3.913,2.27l-0.946-0.545l4.401-2.553
		c1.089,0.154,2.08,0.445,2.902,0.857l-0.913,0.526c-0.443-0.234-0.958-0.42-1.527-0.553L334.058,235.486z M333.762,239.981
		c-1.413-0.812-1.256-1.643,0.576-2.707c1.939-1.123,3.52-1.066,4.728-0.372c1.415,0.813,1.252,1.644-0.577,2.707
		C336.551,240.733,334.969,240.674,333.762,239.981z M338.156,237.432c-0.726-0.419-1.609-0.37-2.893,0.374
		c-1.399,0.813-1.373,1.188-0.581,1.642c0.725,0.417,1.6,0.374,2.883-0.37c1.397-0.813,1.377-1.193,0.588-1.645L338.156,237.432z
		 M340.515,243.711l-1.115-0.64c0.591-0.646,0.978-1.333,1.141-2.028l-0.5-0.287l-2.322,1.348l-0.929-0.532l7.201-4.177l0.946,0.544
		l-4.132,2.396l0.449,0.255c1.053-0.065,2.102-0.24,3.103-0.515l1.065,0.613c-1.158,0.271-2.356,0.441-3.551,0.501
		c-0.288,0.854-0.731,1.702-1.322,2.527L340.515,243.711z M342.167,244.806c-0.864-0.496-0.573-1.035,0.261-1.519l3.728-2.163
		l0.938,0.54l-3.87,2.247c-0.216,0.118-0.246,0.305-0.067,0.415c0.017,0.011,0.038,0.02,0.057,0.028
		c0.506,0.281,1.118,0.491,1.797,0.622l3.902-2.266l0.96,0.551l-4.385,2.546c-1.277-0.141-2.417-0.481-3.302-0.987L342.167,244.806z
		 M350.905,239.251l-18.883-10.848c-1.618-0.926-1.425-2.555,0.432-3.638c0-0.001,0.002-0.001,0.002-0.002l28.611-16.603
		c1.864-1.081,4.683-1.204,6.297-0.275l18.903,10.857c1.626,0.925,1.438,2.555-0.418,3.639c-0.003,0-0.007,0.003-0.01,0.006
		l-28.611,16.603c-1.861,1.081-4.681,1.204-6.298,0.275c0,0,0,0-0.001,0L350.905,239.251z"/>
	<path fill="#FFFFFF" d="M349.471,232.814l14.041-8.147c0,0,4.151-1.495-11.143-4.813c-0.079,0.024,12.964-7.545,12.964-7.545
		l3.479,1.971l-8.355,4.849c0,0,14.04,3.007,6.343,7.474l-13.994,8.121l-3.329-1.913L349.471,232.814z M372.054,221.978l-3.66-2.103
		c3.167-0.32,7.536-1.479,7.536-1.479l3.787,2.174c0,0-2.719,0.829-7.667,1.406L372.054,221.978z M339.776,227.213l7.992-4.639
		l-0.526,4.313L339.776,227.213z"/>
	
		<linearGradient id="SVGID_2_" gradientUnits="userSpaceOnUse" x1="683.9653" y1="-79.124" x2="683.9653" y2="-25.3447" gradientTransform="matrix(0.8642 0.5032 1.0022 -0.5736 -12.947 -155.329)">
		<stop  offset="0" style="stop-color:#808080;stop-opacity:0.25"/>
		<stop  offset="0.54" style="stop-color:#808080;stop-opacity:0.12"/>
		<stop  offset="1" style="stop-color:#808080;stop-opacity:0.1"/>
	</linearGradient>
	<path fill="url(#SVGID_2_)" d="M532.641,191.68l40.187,23.402c3.382,1.97,2.944,5.384-0.978,7.628l-39.694,22.721
		c-3.922,2.244-9.842,2.467-13.223,0.498l-40.188-23.402c-3.382-1.968-2.944-5.384,0.978-7.628l39.696-22.721
		C523.34,189.934,529.259,189.71,532.641,191.68z"/>
	<path fill="#E0E0E0" d="M532.611,192.814l38.247,22.272c3.38,1.969,2.941,5.385-0.979,7.628l-37.699,21.58
		c-3.92,2.245-9.84,2.467-13.22,0.498l-38.245-22.271c-3.383-1.97-2.942-5.385,0.976-7.629l37.698-21.58
		C523.312,191.07,529.231,190.846,532.611,192.814z"/>
	<path fill="#252F3E" d="M520.693,211.312c-0.492,0.267-0.917,0.57-1.269,0.9c-0.271,0.296-0.507,0.601-0.708,0.912
		c-0.048,0.098-0.137,0.19-0.267,0.267c-0.217,0.103-0.49,0.148-0.74,0.123l-1.528-0.121c-0.191-0.011-0.365-0.057-0.5-0.128
		c-0.146-0.098-0.212-0.229-0.19-0.367c0.047-0.24,0.133-0.479,0.253-0.716c0.136-0.235,0.29-0.494,0.52-0.786
		c-2.398,0.239-4.702-0.164-6.239-1.093c-1.146-0.668-1.691-1.427-1.601-2.259c0.387-1.885,3.324-3.449,6.574-3.493
		c1.667,0.014,3.194,0.423,4.609,1.247c0.484,0.287,0.929,0.594,1.332,0.921c0.426,0.342,0.823,0.719,1.23,1.121l1.164-0.667
		c1.212-0.692,1.833-1.305,1.904-1.833c0.064-0.53-0.451-1.106-1.51-1.723c-0.499-0.292-1.066-0.542-1.688-0.746
		c-0.646-0.215-1.322-0.399-2.027-0.553c-0.236-0.045-0.469-0.101-0.688-0.163c-0.099-0.026-0.188-0.062-0.27-0.104
		c-0.19-0.111-0.124-0.258,0.208-0.447l0.78-0.447c0.181-0.119,0.408-0.212,0.656-0.264c0.249-0.022,0.494-0.01,0.718,0.034
		c0.864,0.138,1.683,0.335,2.44,0.591c0.908,0.288,1.731,0.649,2.444,1.075c1.637,0.953,2.404,1.895,2.312,2.835
		c-0.093,0.942-1.018,1.908-2.773,2.912l-5.17,2.961L520.693,211.312z M512.69,209.449c0.488,0.278,1.065,0.5,1.702,0.66
		c0.708,0.178,1.512,0.238,2.327,0.175c0.516-0.039,1.025-0.145,1.49-0.311c0.547-0.205,1.06-0.446,1.525-0.714l0.664-0.381
		c-0.299-0.31-0.635-0.607-0.993-0.891c-0.368-0.285-0.767-0.554-1.194-0.806c-0.925-0.536-1.805-0.812-2.69-0.828
		c-1.615-0.087-3.234,0.613-3.612,1.565c-0.232,0.591,0.057,1.169,0.776,1.531H512.69z M522.005,216.859
		c-0.206-0.094-0.335-0.235-0.362-0.395c0.03-0.182,0.145-0.363,0.334-0.523l9.082-8.925c0.146-0.155,0.32-0.302,0.516-0.438
		c0.167-0.124,0.456-0.159,0.65-0.08c0.031,0.012,0.059,0.026,0.078,0.043l1.347,0.783c0.217,0.096,0.351,0.24,0.378,0.405
		c-0.031,0.182-0.147,0.362-0.335,0.522l-8.255,7.375l12.692-4.791c0.262-0.117,0.571-0.188,0.881-0.205
		c0.283,0.029,0.535,0.111,0.713,0.23l1.096,0.639c0.221,0.101,0.358,0.246,0.393,0.413c-0.021,0.181-0.15,0.359-0.359,0.509
		l-8.505,7.375l13.055-4.726c0.277-0.105,0.592-0.17,0.908-0.189c0.278,0.026,0.521,0.104,0.696,0.222l1.277,0.744
		c0.192,0.081,0.215,0.247,0.046,0.371c-0.028,0.022-0.063,0.042-0.103,0.058c-0.089,0.047-0.183,0.09-0.282,0.13
		c-0.162,0.064-0.328,0.122-0.498,0.17l-15.619,5.117c-0.278,0.112-0.593,0.178-0.91,0.19c-0.271-0.024-0.51-0.1-0.682-0.212
		l-1.184-0.688c-0.215-0.1-0.355-0.246-0.39-0.412c0.031-0.186,0.164-0.366,0.377-0.518l8.149-7.122l-12.38,4.639
		c-0.27,0.118-0.579,0.192-0.896,0.214c-0.288-0.024-0.539-0.106-0.712-0.229L522.005,216.859z M539.23,227.385
		c-0.712-0.414-1.328-0.883-1.831-1.396c-0.418-0.394-0.737-0.827-0.941-1.286c-0.081-0.158-0.074-0.333,0.021-0.501
		c0.089-0.112,0.209-0.216,0.363-0.305l0.81-0.464c0.332-0.19,0.6-0.219,0.809-0.098c0.084,0.048,0.152,0.106,0.201,0.17
		c0.051,0.068,0.109,0.176,0.182,0.292c0.239,0.425,0.56,0.827,0.956,1.2c0.41,0.386,0.896,0.743,1.446,1.061
		c0.648,0.435,1.529,0.735,2.532,0.868c0.775,0.083,1.625-0.087,2.227-0.448c0.425-0.232,0.694-0.541,0.748-0.854
		c-0.01-0.462-0.2-0.9-0.563-1.284l-1.285-1.577c-0.64-0.796-0.838-1.537-0.569-2.213c0.219-0.635,0.788-1.24,1.621-1.719
		c0.605-0.361,1.342-0.637,2.141-0.799c0.76-0.15,1.541-0.209,2.297-0.172c0.807,0.035,1.575,0.159,2.264,0.361
		c0.744,0.22,1.416,0.505,1.989,0.848c0.31,0.178,0.599,0.369,0.856,0.572c0.271,0.21,0.492,0.417,0.717,0.622
		c0.224,0.201,0.377,0.403,0.526,0.601c0.13,0.157,0.224,0.324,0.288,0.497c0.067,0.149,0.074,0.311,0.015,0.471
		c-0.065,0.141-0.206,0.27-0.401,0.373l-0.748,0.429c-0.332,0.189-0.619,0.227-0.825,0.106c-0.158-0.12-0.27-0.26-0.331-0.412
		c-0.406-0.727-1.095-1.373-2.021-1.893c-0.587-0.394-1.372-0.673-2.271-0.81c-0.722-0.081-1.517,0.088-2.063,0.437
		c-0.435,0.24-0.696,0.563-0.717,0.888c0.034,0.494,0.252,0.964,0.636,1.38l1.235,1.547c0.621,0.787,0.826,1.493,0.597,2.115
		c-0.223,0.612-0.785,1.191-1.603,1.646c-0.634,0.372-1.389,0.661-2.209,0.849c-0.788,0.17-1.607,0.244-2.404,0.218
		c-0.862-0.032-1.683-0.159-2.419-0.379c-0.859-0.241-1.635-0.562-2.295-0.953L539.23,227.385z"/>
	<path fill="#FF9900" d="M534.088,233.326c-8.394-0.416-17.015-3.063-22.661-6.351c-7.59-4.367-11.652-10.454-11.393-17.068
		c0.019-0.504,1.007-0.626,1.166-0.13c3.644,10.618,16.017,18.934,33.438,22.474C535.792,232.46,535.47,233.395,534.088,233.326
		L534.088,233.326z"/>
	<path fill="#FF9900" d="M538.446,233.003c0.293-0.827-3.398-2.461-5.08-3.198c-0.504-0.22-0.125-0.515,0.609-0.475
		c4.684,0.3,8.325,3.118,8.12,3.809c-0.206,0.69-5.795,3.157-10.542,3.082c-0.735-0.005-0.905-0.322-0.273-0.508
		C533.409,235.144,538.186,233.822,538.446,233.003z"/>
	
		<linearGradient id="SVGID_3_" gradientUnits="userSpaceOnUse" x1="835.2983" y1="-148.2192" x2="835.2983" y2="-93.3921" gradientTransform="matrix(0.8675 0.4974 0.9983 -0.5803 22.5357 -124.3029)">
		<stop  offset="0" style="stop-color:#808080;stop-opacity:0.25"/>
		<stop  offset="0.54" style="stop-color:#808080;stop-opacity:0.12"/>
		<stop  offset="1" style="stop-color:#808080;stop-opacity:0.1"/>
	</linearGradient>
	<path fill="url(#SVGID_3_)" d="M633.355,333.578l41.131,23.585c3.46,1.983,3.037,5.468-0.943,7.782l-40.313,23.436
		c-3.98,2.315-10.014,2.582-13.476,0.598l-41.129-23.584c-3.461-1.983-3.038-5.468,0.941-7.783l40.314-23.436
		C623.861,331.862,629.897,331.594,633.355,333.578z"/>
	<path fill="#E0E0E0" d="M633.335,334.735l39.145,22.447c3.459,1.981,3.034,5.466-0.946,7.78l-38.287,22.259
		c-3.979,2.313-10.016,2.581-13.476,0.598l-39.143-22.445c-3.46-1.983-3.036-5.469,0.947-7.784l38.284-22.255
		C623.841,333.022,629.872,332.751,633.335,334.735z"/>
	<path fill="#CAC9C2" d="M605.638,365.136l6.905-12.038l20.798-4.069l13.89,7.965l-6.902,12.036l-20.803,4.068L605.638,365.136"/>
	<path fill="#FFFFFF" d="M620.343,364.88c-2.989-1.716-2.622-4.727,0.817-6.728c3.44-1.999,8.654-2.231,11.644-0.516
		c2.989,1.711,2.625,4.724-0.814,6.725C628.544,366.361,623.335,366.591,620.343,364.88"/>
	<path fill="#5072AA" d="M656.037,356.703c0.394-0.824,0.101-1.652-0.776-2.231l-17.119-9.813c-1.006-0.505-2.438-0.666-3.868-0.435
		l-14.957,2.933c-0.67,0.335-1.189,0.761-1.494,1.229l-3.274,5.813l18.056-3.521l19.101,10.952c0.476,0.299,0.783,0.677,0.894,1.098
		l3.45-6.022"/>
	<path fill="#4D6796" d="M619.959,347.024l-0.656,0.127c-0.674,0.336-1.194,0.761-1.496,1.23l-3.279,5.81l5.384-1.048l0.041-6.128"
		/>
	<path fill="#FFFFFF" d="M633.455,347.889c-0.572-0.33-0.505-0.911,0.16-1.298c0.663-0.387,1.669-0.432,2.25-0.101
		c0.575,0.332,0.505,0.913-0.159,1.298l0,0C635.042,348.177,634.036,348.219,633.455,347.889 M651.776,357.004
		c-0.608,0.362-1.54,0.41-2.08,0.108c-0.546-0.303-0.488-0.841,0.117-1.2c0,0,0.02-0.012,0.028-0.019
		c0.615-0.354,1.548-0.397,2.079-0.091C652.456,356.109,652.391,356.648,651.776,357.004z"/>
	<path fill="#CC4232" d="M647.532,371.525l5.055-8.807c-0.109-0.422-0.414-0.8-0.892-1.098l-6.882-3.946l-6.129,10.445
		l-28.604,5.736c-0.685,0.121-1.384,0.144-2.036,0.066l6.927,3.973c1.007,0.505,2.443,0.669,3.87,0.434l25.616-5.007
		c1.394-0.321,2.539-0.985,3.082-1.795"/>
	<path fill="#B23F33" d="M652.354,363.117l0.229-0.394c-0.11-0.421-0.417-0.8-0.893-1.096l-6.886-3.949l-1.839,3.14l9.394,2.299"/>
	<path fill="#FFFFFF" d="M617.386,375.879c-0.578-0.332-0.509-0.913,0.158-1.302c0.664-0.384,1.67-0.43,2.246-0.098
		c0.58,0.33,0.508,0.911-0.155,1.298l0,0C618.971,376.165,617.961,376.208,617.386,375.879 M641.541,371.226
		c-0.581-0.332-0.511-0.913,0.154-1.298c0.662-0.386,1.674-0.43,2.248-0.102c0.58,0.331,0.507,0.912-0.157,1.3l0,0
		C643.12,371.513,642.114,371.556,641.541,371.226"/>
	<path fill="#ECB02A" d="M608.557,364.799l9.257-16.414c0.303-0.469,0.821-0.896,1.494-1.23l-10.652,2.086
		c-1.393,0.319-2.538,0.985-3.081,1.792l-8.489,14.823c-0.391,0.826-0.103,1.651,0.78,2.227l10.185,5.842
		c0.656,0.077,1.355,0.055,2.039-0.066l10.582-2.124l-12.104-6.941"/>
	<path fill="#C79732" d="M607.456,373.588l0.588,0.336c0.654,0.077,1.355,0.054,2.039-0.065l10.582-2.125l-3.711-2.127l-9.491,3.978
		"/>
	<path fill="#FFFFFF" d="M601.239,366.619c-0.58-0.331-0.507-0.913,0.156-1.297c0.666-0.387,1.672-0.431,2.247-0.103
		c0.579,0.332,0.512,0.913-0.156,1.299l0,0C602.822,366.906,601.816,366.951,601.239,366.619 M609.117,352.634
		c-0.578-0.329-0.509-0.911,0.154-1.298c0.665-0.386,1.673-0.43,2.25-0.101c0.578,0.331,0.506,0.915-0.159,1.301l0,0
		C610.699,352.921,609.692,352.965,609.117,352.634"/>
	<path fill="#2E2D40" d="M539.961,355.375l-155.06-89.524c-1.802-1.039-3.631-1.2-5.254-0.644l0.01-0.016l-0.28,0.106
		c-0.023,0.01-0.048,0.017-0.069,0.026l-5.605,2.145l5.031,2.462c-0.024,0.093-0.052,0.179-0.074,0.273l-25.256,114.965
		c-1.263,5.756,1.267,12.473,5.654,15.005l151.33,87.372l-0.54,6.412l6.124-2.376c2.057-0.962,3.704-3.138,4.386-6.236
		l25.257-114.968C546.878,364.626,544.348,357.908,539.961,355.375z"/>
	<path fill="#3E3C55" d="M539.961,355.375l-155.06-89.524c-1.802-1.039-3.631-1.2-5.254-0.644l0.01-0.016l-0.28,0.106
		c-0.023,0.01-0.048,0.017-0.069,0.026l-5.605,2.145l5.031,2.462c-0.024,0.093-0.052,0.179-0.074,0.273l-16.646,75.771
		l75.869,59.108l106.976-43.529C543.83,358.889,542.123,356.624,539.961,355.375z"/>
	<path fill="#474759" d="M534.116,373.045l11.804-5.022c0.217-4.572-1.676-9.296-4.782-11.822l-18.687,7.862L534.116,373.045z"/>
	<path fill="#2E2D40" d="M504.461,493.349l-155.059-89.526c-4.388-2.532-6.917-9.25-5.654-15.001l25.256-114.968
		c1.267-5.753,5.846-8.364,10.234-5.833l155.055,89.523c4.388,2.532,6.92,9.251,5.653,15.004l-25.256,114.969
		C513.428,493.269,508.848,495.882,504.461,493.349z"/>
	<path fill="#3E3C55" d="M535.785,356.999l-155.06-89.521c-2.124-1.227-4.289-1.225-6.105-0.266
		c1.459-0.319,3.047-0.095,4.619,0.811l155.055,89.521c4.388,2.532,6.92,9.251,5.653,15.004l-25.256,114.969
		c-0.65,2.963-2.189,5.072-4.125,6.095c2.618-0.57,4.804-2.945,5.615-6.641l25.257-114.967
		C542.701,366.25,540.17,359.532,535.785,356.999z"/>
	<path fill="#FFFFFF" d="M501.099,484.795L355.27,400.643c-4.013-2.32-6.33-8.467-5.173-13.731l23.113-105.202
		c1.155-5.266,5.346-7.655,9.362-5.338l145.83,84.154c4.014,2.317,6.329,8.465,5.171,13.729L510.46,479.459
		C509.307,484.726,505.115,487.115,501.099,484.795z"/>
	<path fill="#E5E5E5" d="M501.099,484.795L355.27,400.643c-4.013-2.32-6.33-8.467-5.173-13.731l23.113-105.202
		c1.155-5.266,5.346-7.655,9.362-5.338l145.83,84.154c4.014,2.317,6.329,8.465,5.171,13.729L510.46,479.459
		C509.307,484.726,505.115,487.115,501.099,484.795z"/>
	<path fill="#3E3C55" d="M502.37,484.278l-145.829-84.153c-4.015-2.319-6.331-8.466-5.172-13.728l23.112-105.206
		c0.584-2.664,1.952-4.583,3.673-5.537c-2.313,0.594-4.223,2.762-4.944,6.055l-23.113,105.202
		c-1.157,5.265,1.16,11.411,5.173,13.731l145.829,84.152c1.983,1.146,4.007,1.133,5.689,0.202
		C505.402,485.355,503.874,485.148,502.37,484.278z"/>
	<path fill="#1F1F30" d="M506.602,497.247l-21.197-2.798l-136.819-78.996c-4.385-2.531-12.047-2.215-17.113,0.709l-96.949,55.955
		l-12.817-1.689v7.269l0.014,0.005c-0.084,1.678,0.872,3.295,2.942,4.491l155.059,89.521c4.383,2.534,12.045,2.216,17.112-0.709
		l105.582-60.938c2.851-1.645,4.272-3.765,4.188-5.755l0,0V497.247z"/>
	<path fill="#1F1F30" d="M403.801,447.333l-9.723-5.612h-106.87l-52.686,30.396l-12.817-1.689v7.269l0.014,0.005
		c-0.084,1.678,0.872,3.295,2.942,4.491l155.059,89.521c2.316,1.341,5.549,1.875,8.831,1.655L403.801,447.333z"/>
	<path fill="#272630" d="M227.394,471.175l-5.688-0.748v7.269l0.014,0.005c-0.084,1.678,0.872,3.295,2.942,4.491l2.732,1.578
		V471.175z"/>
	<path fill="#272630" d="M381.281,572.441c4.156,1.574,10.1,1.231,14.54-0.903v-16.222h-14.54V572.441z"/>
	<path fill="#3E3C55" d="M379.721,564.451l-155.059-89.525c-4.387-2.528-3.837-6.954,1.228-9.879l105.583-60.94
		c5.066-2.922,12.728-3.239,17.113-0.708l155.058,89.525c4.386,2.532,3.838,6.954-1.229,9.879L396.833,563.74
		C391.766,566.665,384.104,566.983,379.721,564.451z"/>
	<path fill="#3E3C55" d="M502.415,500.147l-105.582,60.938c-5.066,2.923-12.729,3.242-17.112,0.709l-155.059-89.523
		c-1.438-0.829-2.336-1.865-2.729-2.981c-0.686,2.075,0.189,4.171,2.729,5.64l155.059,89.521c4.383,2.532,12.045,2.214,17.112-0.711
		l105.582-60.938c3.404-1.967,4.758-4.607,3.957-6.896C505.871,497.418,504.549,498.916,502.415,500.147z"/>
	<g>
		<path fill="#4F4E63" d="M290.609,445.29l-7.015-4.052c-0.563-0.325-0.493-0.893,0.157-1.266l8.281-4.782
			c0.651-0.375,1.634-0.417,2.197-0.092l7.015,4.052c0.563,0.325,0.493,0.893-0.157,1.27l-8.281,4.78
			C292.156,445.573,291.173,445.615,290.609,445.29z"/>
		<path fill="#4F4E63" d="M301.444,451.545l-7.017-4.051c-0.563-0.326-0.491-0.893,0.158-1.268l8.281-4.782
			c0.651-0.375,1.636-0.416,2.199-0.091l7.015,4.052c0.563,0.325,0.493,0.891-0.157,1.266l-8.281,4.782
			C302.99,451.829,302.008,451.871,301.444,451.545z"/>
		<path fill="#4F4E63" d="M312.28,457.8l-7.019-4.052c-0.563-0.325-0.491-0.893,0.16-1.266l8.281-4.782
			c0.649-0.375,1.633-0.417,2.197-0.092l7.016,4.052c0.563,0.325,0.494,0.893-0.157,1.267l-8.281,4.783
			C313.826,458.083,312.843,458.125,312.28,457.8z"/>
		<path fill="#4F4E63" d="M327.264,452.636l-7.016-4.052c-0.564-0.325-0.493-0.895,0.157-1.27l6.952-4.013
			c0.651-0.375,1.636-0.416,2.199-0.091l7.015,4.052c0.563,0.325,0.494,0.892-0.158,1.266l-6.951,4.013
			C328.81,452.92,327.827,452.958,327.264,452.636z"/>
		<path fill="#4F4E63" d="M338.097,458.888l-7.016-4.047c-0.563-0.325-0.491-0.896,0.159-1.271l6.95-4.013
			c0.651-0.379,1.636-0.417,2.199-0.092l7.017,4.052c0.563,0.325,0.494,0.893-0.158,1.267l-6.951,4.014
			C339.646,459.175,338.66,459.213,338.097,458.888z"/>
		<path fill="#4F4E63" d="M348.932,465.144l-7.016-4.048c-0.563-0.326-0.493-0.896,0.157-1.271l6.952-4.013
			c0.65-0.377,1.634-0.416,2.197-0.091l7.018,4.052c0.563,0.321,0.494,0.892-0.158,1.266l-6.951,4.014
			C350.479,465.431,349.495,465.469,348.932,465.144z"/>
		<path fill="#4F4E63" d="M359.766,471.399l-7.015-4.047c-0.563-0.325-0.493-0.896,0.157-1.271l6.952-4.013
			c0.65-0.374,1.633-0.417,2.197-0.092l7.018,4.052c0.563,0.322,0.489,0.893-0.162,1.267l-6.952,4.014
			C361.315,471.686,360.329,471.724,359.766,471.399z"/>
		<path fill="#4F4E63" d="M370.601,477.655l-7.015-4.048c-0.563-0.326-0.494-0.896,0.157-1.271l6.952-4.013
			c0.65-0.377,1.633-0.416,2.197-0.09l7.014,4.047c0.564,0.325,0.494,0.896-0.157,1.27l-6.952,4.014
			C372.146,477.942,371.164,477.981,370.601,477.655z"/>
		<path fill="#4F4E63" d="M381.436,483.91l-7.015-4.047c-0.564-0.325-0.494-0.896,0.157-1.27l6.952-4.014
			c0.65-0.379,1.633-0.417,2.196-0.092l7.015,4.049c0.563,0.325,0.493,0.896-0.157,1.27l-6.952,4.014
			C382.981,484.197,381.999,484.235,381.436,483.91z"/>
		<path fill="#4F4E63" d="M392.27,490.166l-7.014-4.051c-0.567-0.322-0.494-0.893,0.157-1.268l6.952-4.013
			c0.647-0.377,1.633-0.416,2.197-0.09l7.015,4.047c0.563,0.329,0.493,0.896-0.157,1.27l-6.952,4.014
			C393.816,490.453,392.833,490.492,392.27,490.166z"/>
		<path fill="#4F4E63" d="M403.105,496.42l-7.018-4.047c-0.563-0.325-0.489-0.896,0.158-1.27l6.951-4.014
			c0.651-0.379,1.638-0.417,2.201-0.092l7.015,4.049c0.563,0.325,0.494,0.896-0.157,1.27l-6.952,4.014
			C404.651,496.708,403.668,496.746,403.105,496.42z"/>
		<path fill="#4F4E63" d="M413.94,502.676l-7.018-4.051c-0.563-0.325-0.494-0.893,0.158-1.268l6.951-4.013
			c0.651-0.377,1.634-0.415,2.197-0.09l7.018,4.047c0.563,0.325,0.494,0.896-0.157,1.27l-6.952,4.014
			C415.486,502.963,414.503,503.002,413.94,502.676z"/>
		<path fill="#4F4E63" d="M424.771,508.931l-7.015-4.051c-0.563-0.325-0.494-0.893,0.158-1.266l6.951-4.014
			c0.651-0.378,1.633-0.417,2.198-0.092l7.018,4.049c0.563,0.325,0.489,0.896-0.162,1.271l-6.947,4.013
			C426.322,509.214,425.334,509.256,424.771,508.931z"/>
		<path fill="#4F4E63" d="M343.228,449.673l-7.017-4.052c-0.563-0.325-0.493-0.892,0.158-1.266l6.951-4.013
			c0.65-0.379,1.635-0.42,2.199-0.095l7.014,4.052c0.564,0.325,0.494,0.891-0.157,1.27l-6.952,4.013
			C344.774,449.958,343.791,449.999,343.228,449.673z"/>
		<path fill="#4F4E63" d="M332.231,443.327l-7.018-4.052c-0.563-0.325-0.491-0.895,0.159-1.27l6.952-4.013
			c0.648-0.378,1.633-0.416,2.197-0.091l7.016,4.048c0.563,0.325,0.494,0.895-0.157,1.27l-6.952,4.013
			C333.778,443.611,332.794,443.649,332.231,443.327z"/>
		<path fill="#4F4E63" d="M321.217,436.966l-15.111-8.727c-0.563-0.326-0.491-0.893,0.16-1.269l6.95-4.014
			c0.65-0.376,1.635-0.415,2.198-0.09l15.111,8.724c0.563,0.325,0.491,0.892-0.157,1.272l-6.952,4.012
			C322.765,437.25,321.78,437.292,321.217,436.966z"/>
		<path fill="#4F4E63" d="M328.915,429.232l-12.262-7.081c-0.564-0.325-0.494-0.894,0.157-1.27l6.952-4.012
			c0.651-0.377,1.633-0.417,2.197-0.092l12.262,7.079c0.563,0.325,0.493,0.895-0.157,1.269l-6.952,4.015
			C330.461,429.516,329.478,429.557,328.915,429.232z"/>
		<path fill="#4F4E63" d="M354.062,455.929l-7.018-4.052c-0.563-0.325-0.491-0.893,0.159-1.267l6.951-4.016
			c0.65-0.375,1.635-0.417,2.199-0.092l7.016,4.051c0.563,0.325,0.493,0.893-0.157,1.271l-6.952,4.013
			C355.609,456.212,354.624,456.254,354.062,455.929z"/>
		<path fill="#4F4E63" d="M364.894,462.184l-7.015-4.052c-0.563-0.325-0.493-0.892,0.158-1.27l6.951-4.014
			c0.651-0.374,1.634-0.415,2.197-0.09l7.018,4.052c0.563,0.325,0.493,0.891-0.157,1.27l-6.952,4.013
			C366.444,462.468,365.457,462.509,364.894,462.184z"/>
		<path fill="#4F4E63" d="M375.729,468.44l-7.015-4.052c-0.563-0.325-0.493-0.893,0.158-1.27l6.951-4.013
			c0.651-0.375,1.634-0.417,2.197-0.092l7.018,4.051c0.563,0.326,0.49,0.893-0.161,1.271l-6.952,4.013
			C377.279,468.723,376.292,468.765,375.729,468.44z"/>
		<path fill="#4F4E63" d="M386.564,474.695l-7.015-4.052c-0.563-0.325-0.494-0.891,0.158-1.266l6.951-4.018
			c0.651-0.374,1.634-0.415,2.197-0.09l7.015,4.052c0.563,0.325,0.494,0.891-0.157,1.27l-6.952,4.013
			C388.11,474.979,387.127,475.02,386.564,474.695z"/>
		<path fill="#4F4E63" d="M397.399,480.951l-7.015-4.052c-0.563-0.325-0.494-0.893,0.158-1.27l6.951-4.013
			c0.651-0.375,1.634-0.417,2.197-0.092l7.015,4.052c0.563,0.325,0.494,0.892-0.157,1.27l-6.952,4.013
			C398.946,481.234,397.962,481.276,397.399,480.951z"/>
		<path fill="#4F4E63" d="M408.234,487.206l-7.018-4.052c-0.56-0.325-0.49-0.891,0.161-1.27l6.952-4.013
			c0.647-0.375,1.634-0.416,2.197-0.091l7.015,4.052c0.563,0.325,0.494,0.891-0.158,1.27l-6.951,4.013
			C409.781,487.49,408.797,487.531,408.234,487.206z"/>
		<path fill="#4F4E63" d="M419.069,493.461l-7.018-4.052c-0.563-0.325-0.49-0.893,0.157-1.27l6.952-4.013
			c0.65-0.375,1.637-0.417,2.2-0.092l7.014,4.052c0.563,0.325,0.494,0.893-0.157,1.27l-6.951,4.013
			C420.616,493.745,419.632,493.787,419.069,493.461z"/>
		<path fill="#4F4E63" d="M429.904,499.716l-7.019-4.052c-0.563-0.325-0.493-0.891,0.157-1.27l6.951-4.013
			c0.652-0.375,1.635-0.416,2.198-0.091l7.017,4.052c0.563,0.325,0.493,0.891-0.157,1.27l-6.952,4.013
			C431.45,500,430.467,500.042,429.904,499.716z"/>
		<path fill="#4F4E63" d="M440.735,505.972l-7.015-4.052c-0.563-0.325-0.493-0.893,0.158-1.27l6.951-4.013
			c0.65-0.375,1.635-0.417,2.197-0.092l7.018,4.052c0.563,0.325,0.491,0.893-0.157,1.267l-6.951,4.016
			C442.285,506.255,441.298,506.297,440.735,505.972z"/>
		<path fill="#4F4E63" d="M459.999,517.09l-15.31-8.837c-0.563-0.325-0.49-0.893,0.16-1.271l6.949-4.012
			c0.65-0.374,1.638-0.416,2.2-0.091l15.307,8.838c0.563,0.325,0.493,0.896-0.157,1.27l-6.952,4.012
			C461.545,517.377,460.561,517.416,459.999,517.09z"/>
		<path fill="#4F4E63" d="M481.091,504.912l-12.921-7.459c-0.563-0.325-0.493-0.892,0.158-1.266l6.951-4.018
			c0.65-0.374,1.635-0.415,2.197-0.09l12.92,7.462c0.563,0.322,0.493,0.893-0.157,1.267l-6.952,4.014
			C482.637,505.199,481.655,505.237,481.091,504.912z"/>
		<path fill="#4F4E63" d="M373.035,454.705l-7.014-4.052c-0.564-0.325-0.494-0.893,0.157-1.267l6.952-4.017
			c0.65-0.374,1.633-0.412,2.197-0.087l7.014,4.047c0.564,0.325,0.494,0.896-0.157,1.271l-6.952,4.012
			C374.582,454.987,373.599,455.03,373.035,454.705z"/>
		<path fill="#4F4E63" d="M361.931,448.295l-7.015-4.052c-0.563-0.325-0.493-0.893,0.158-1.27l6.952-4.014
			c0.651-0.374,1.633-0.416,2.197-0.091l7.015,4.051c0.563,0.325,0.493,0.893-0.157,1.268l-6.952,4.016
			C363.477,448.578,362.494,448.621,361.931,448.295z"/>
		<path fill="#4F4E63" d="M350.826,441.882l-7.015-4.052c-0.563-0.321-0.493-0.893,0.158-1.266l6.951-4.014
			c0.651-0.378,1.634-0.418,2.197-0.093l7.015,4.05c0.563,0.326,0.494,0.896-0.157,1.271l-6.952,4.013
			C352.373,442.168,351.389,442.208,350.826,441.882z"/>
		<path fill="#4F4E63" d="M339.722,435.473l-7.015-4.053c-0.563-0.326-0.493-0.893,0.158-1.269l6.951-4.015
			c0.65-0.375,1.634-0.417,2.197-0.089l7.017,4.049c0.563,0.325,0.491,0.894-0.159,1.27l-6.95,4.015
			C341.27,435.755,340.285,435.798,339.722,435.473z"/>
		<path fill="#4F4E63" d="M383.87,460.959l-7.018-4.052c-0.563-0.325-0.489-0.892,0.158-1.266l6.952-4.016
			c0.65-0.375,1.637-0.417,2.2-0.092l7.015,4.052c0.563,0.325,0.493,0.895-0.157,1.27l-6.952,4.013
			C385.417,461.247,384.434,461.285,383.87,460.959z"/>
		<path fill="#4F4E63" d="M394.705,467.215l-7.018-4.052c-0.563-0.325-0.493-0.893,0.158-1.267l6.951-4.016
			c0.651-0.375,1.634-0.417,2.197-0.092l7.018,4.051c0.563,0.325,0.493,0.896-0.157,1.271l-6.952,4.012
			C396.251,467.499,395.268,467.541,394.705,467.215z"/>
		<path fill="#4F4E63" d="M405.537,473.47l-7.015-4.052c-0.563-0.325-0.493-0.892,0.158-1.266l6.951-4.018
			c0.651-0.373,1.634-0.415,2.197-0.09l7.018,4.052c0.563,0.325,0.49,0.893-0.157,1.27l-6.952,4.013
			C407.086,473.754,406.1,473.795,405.537,473.47z"/>
		<path fill="#4F4E63" d="M416.372,479.726l-7.015-4.052c-0.563-0.325-0.494-0.893,0.158-1.267l6.951-4.016
			c0.651-0.375,1.634-0.417,2.197-0.092l7.015,4.051c0.563,0.326,0.494,0.893-0.157,1.271l-6.952,4.012
			C417.921,480.009,416.935,480.051,416.372,479.726z"/>
		<path fill="#4F4E63" d="M427.208,485.981l-7.016-4.052c-0.563-0.325-0.494-0.891,0.158-1.266l6.952-4.016
			c0.65-0.375,1.633-0.417,2.196-0.092l7.015,4.052c0.563,0.325,0.493,0.893-0.157,1.27l-6.952,4.013
			C428.753,486.265,427.771,486.306,427.208,485.981z"/>
		<path fill="#4F4E63" d="M438.041,492.237l-7.013-4.052c-0.565-0.325-0.494-0.893,0.157-1.27l6.951-4.013
			c0.651-0.375,1.634-0.417,2.197-0.092l7.015,4.051c0.563,0.326,0.493,0.893-0.157,1.271l-6.952,4.012
			C439.588,492.52,438.606,492.562,438.041,492.237z"/>
		<path fill="#4F4E63" d="M448.875,498.492l-7.017-4.052c-0.563-0.325-0.489-0.891,0.161-1.27l6.951-4.014
			c0.647-0.373,1.634-0.415,2.197-0.09l7.015,4.052c0.563,0.325,0.493,0.893-0.157,1.27l-6.952,4.013
			C450.423,498.776,449.441,498.817,448.875,498.492z"/>
		<path fill="#4F4E63" d="M459.711,504.748l-7.018-4.052c-0.563-0.325-0.494-0.893,0.157-1.27l6.951-4.013
			c0.651-0.375,1.638-0.417,2.201-0.092l7.015,4.052c0.563,0.325,0.493,0.893-0.157,1.271l-6.952,4.012
			C461.258,505.031,460.274,505.073,459.711,504.748z"/>
		<path fill="#4F4E63" d="M470.543,511.002l-7.015-4.052c-0.563-0.325-0.493-0.891,0.157-1.27l6.951-4.012
			c0.651-0.375,1.634-0.417,2.197-0.092l7.019,4.052c0.563,0.325,0.493,0.893-0.157,1.27l-6.952,4.013
			C472.093,511.287,471.109,511.328,470.543,511.002z"/>
		<path fill="#4F4E63" d="M367.329,439.234l-7.015-4.051c-0.563-0.325-0.493-0.893,0.158-1.271l6.951-4.015
			c0.651-0.374,1.634-0.415,2.197-0.09l7.015,4.053c0.563,0.325,0.493,0.893-0.157,1.27l-6.952,4.014
			C368.875,439.517,367.892,439.56,367.329,439.234z"/>
		<path fill="#4F4E63" d="M356.55,433.009l-7.016-4.053c-0.565-0.325-0.493-0.893,0.157-1.27l6.952-4.013
			c0.648-0.375,1.635-0.417,2.198-0.092l7.015,4.052c0.563,0.325,0.494,0.892-0.157,1.268l-6.952,4.018
			C358.097,433.292,357.113,433.334,356.55,433.009z"/>
		<path fill="#4F4E63" d="M345.768,426.784l-7.015-4.052c-0.563-0.325-0.494-0.894,0.157-1.27l6.952-4.013
			c0.65-0.373,1.634-0.416,2.197-0.091l7.016,4.052c0.563,0.325,0.492,0.893-0.157,1.269l-6.952,4.015
			C347.315,427.068,346.331,427.109,345.768,426.784z"/>
		<path fill="#4F4E63" d="M334.988,420.56l-7.016-4.051c-0.563-0.325-0.492-0.895,0.157-1.271l6.952-4.013
			c0.65-0.374,1.635-0.417,2.198-0.092l7.015,4.052c0.563,0.325,0.494,0.893-0.158,1.269l-6.951,4.013
			C336.535,420.843,335.552,420.884,334.988,420.56z"/>
		<path fill="#4F4E63" d="M346.074,414.158l-7.016-4.05c-0.564-0.325-0.494-0.894,0.157-1.269l2.298-1.327
			c0.65-0.376,1.634-0.417,2.197-0.089l7.018,4.048c0.563,0.325,0.491,0.895-0.159,1.27l-2.297,1.326
			C347.622,414.445,346.637,414.483,346.074,414.158z"/>
		<path fill="#4F4E63" d="M360.143,422.281l-7.016-4.051c-0.563-0.325-0.491-0.892,0.157-1.269l2.299-1.327
			c0.648-0.375,1.633-0.417,2.198-0.092l7.015,4.052c0.563,0.325,0.494,0.893-0.157,1.271l-2.299,1.326
			C361.689,422.564,360.707,422.607,360.143,422.281z"/>
		<path fill="#4F4E63" d="M370.876,428.481l-7.015-4.051c-0.563-0.325-0.493-0.895,0.157-1.271l2.299-1.325
			c0.651-0.375,1.634-0.417,2.197-0.092l7.018,4.05c0.563,0.325,0.49,0.895-0.161,1.269l-2.295,1.327
			C372.427,428.764,371.44,428.804,370.876,428.481z"/>
		<path fill="#4F4E63" d="M381.614,434.678l-7.015-4.051c-0.564-0.325-0.493-0.895,0.157-1.269l2.298-1.327
			c0.651-0.376,1.634-0.417,2.197-0.092l7.015,4.05c0.563,0.325,0.494,0.895-0.157,1.271l-2.299,1.326
			C383.16,434.965,382.177,435.003,381.614,434.678z"/>
		<path fill="#4F4E63" d="M392.351,440.878l-7.018-4.051c-0.563-0.325-0.494-0.893,0.158-1.271l2.298-1.326
			c0.651-0.373,1.633-0.415,2.197-0.09l7.018,4.051c0.563,0.326,0.493,0.892-0.158,1.271l-2.298,1.325
			C393.897,441.162,392.914,441.204,392.351,440.878z"/>
		<path fill="#4F4E63" d="M452.284,475.482l-7.015-4.052c-0.563-0.325-0.492-0.893,0.158-1.27l2.298-1.326
			c0.65-0.374,1.635-0.416,2.198-0.091l7.015,4.051c0.563,0.325,0.493,0.893-0.159,1.268l-2.298,1.33
			C453.831,475.765,452.848,475.807,452.284,475.482z"/>
		<path fill="#4F4E63" d="M463.022,481.678l-7.02-4.052c-0.563-0.321-0.489-0.892,0.157-1.266l2.3-1.326
			c0.65-0.378,1.633-0.417,2.2-0.092l7.015,4.048c0.563,0.325,0.493,0.896-0.157,1.271l-2.299,1.325
			C464.568,481.965,463.584,482.003,463.022,481.678z"/>
		<path fill="#4F4E63" d="M473.754,487.877l-7.014-4.051c-0.564-0.325-0.493-0.893,0.157-1.27l2.298-1.326
			c0.65-0.375,1.635-0.417,2.197-0.092l7.016,4.052c0.563,0.325,0.493,0.893-0.157,1.27l-2.3,1.326
			C475.304,488.161,474.319,488.204,473.754,487.877z"/>
		<path fill="#4F4E63" d="M484.492,494.077l-7.015-4.052c-0.563-0.325-0.493-0.891,0.157-1.27l2.3-1.326
			c0.646-0.374,1.633-0.417,2.196-0.09l7.015,4.052c0.563,0.325,0.493,0.891-0.157,1.266l-2.299,1.329
			C486.038,494.361,485.055,494.402,484.492,494.077z"/>
		<path fill="#4F4E63" d="M378.164,445.489l-7.015-4.051c-0.563-0.325-0.494-0.893,0.158-1.271l6.951-4.013
			c0.65-0.375,1.634-0.416,2.197-0.09l7.015,4.051c0.563,0.325,0.493,0.892-0.157,1.266l-6.952,4.018
			C379.71,445.772,378.727,445.814,378.164,445.489z"/>
		<path fill="#4F4E63" d="M388.999,451.745l-7.015-4.051c-0.563-0.325-0.494-0.893,0.158-1.271l6.951-4.012
			c0.65-0.374,1.634-0.417,2.197-0.092l7.015,4.052c0.563,0.325,0.494,0.893-0.157,1.267l-6.952,4.017
			C390.545,452.028,389.562,452.071,388.999,451.745z"/>
		<path fill="#4F4E63" d="M399.834,458l-7.018-4.051c-0.563-0.325-0.49-0.893,0.157-1.271l6.952-4.013
			c0.651-0.374,1.638-0.415,2.201-0.09l7.015,4.051c0.563,0.325,0.494,0.892-0.158,1.266l-6.951,4.017
			C401.38,458.283,400.397,458.325,399.834,458z"/>
		<path fill="#4F4E63" d="M410.669,464.256l-7.018-4.052c-0.563-0.325-0.493-0.893,0.157-1.271l6.952-4.012
			c0.651-0.374,1.634-0.417,2.197-0.091l7.018,4.051c0.563,0.325,0.494,0.893-0.158,1.268l-6.951,4.016
			C412.216,464.539,411.232,464.582,410.669,464.256z"/>
		<path fill="#4F4E63" d="M421.5,470.51l-7.015-4.051c-0.563-0.325-0.493-0.896,0.157-1.27l6.952-4.014
			c0.65-0.374,1.634-0.415,2.197-0.09l7.018,4.051c0.563,0.325,0.49,0.892-0.157,1.266l-6.952,4.014
			C423.05,470.793,422.064,470.835,421.5,470.51z"/>
		<path fill="#4F4E63" d="M432.335,476.767l-7.015-4.052c-0.563-0.326-0.493-0.896,0.157-1.271l6.952-4.012
			c0.65-0.374,1.633-0.417,2.196-0.091l7.015,4.051c0.563,0.325,0.493,0.893-0.157,1.268l-6.952,4.012
			C433.881,477.049,432.899,477.088,432.335,476.767z"/>
		<path fill="#4F4E63" d="M443.17,483.017l-7.015-4.047c-0.563-0.325-0.493-0.896,0.157-1.27l6.952-4.014
			c0.65-0.374,1.634-0.415,2.196-0.09l7.015,4.051c0.563,0.325,0.493,0.892-0.157,1.266l-6.951,4.014
			C444.716,483.304,443.734,483.342,443.17,483.017z"/>
		<path fill="#4F4E63" d="M454.005,489.273l-7.015-4.047c-0.563-0.325-0.493-0.896,0.157-1.271l6.952-4.012
			c0.65-0.378,1.634-0.417,2.196-0.091l7.015,4.051c0.563,0.323,0.494,0.893-0.157,1.268l-6.951,4.012
			C455.551,489.56,454.569,489.603,454.005,489.273z"/>
		<path fill="#4F4E63" d="M464.84,495.528l-7.019-4.047c-0.563-0.325-0.489-0.896,0.161-1.27l6.948-4.014
			c0.65-0.377,1.638-0.417,2.2-0.09l7.015,4.051c0.563,0.321,0.494,0.892-0.157,1.267l-6.951,4.013
			C466.387,495.815,465.404,495.855,464.84,495.528z"/>
		<path fill="#4F4E63" d="M316.222,446.258l-20.663-11.926c-0.563-0.325-0.493-0.896,0.158-1.271l6.952-4.015
			c0.65-0.376,1.633-0.416,2.196-0.091l20.663,11.932c0.563,0.325,0.494,0.893-0.157,1.267l-6.952,4.014
			C317.769,446.545,316.786,446.583,316.222,446.258z"/>
		<path fill="#4F4E63" d="M449.325,523.107l-20.663-11.93c-0.563-0.325-0.489-0.892,0.161-1.266l6.948-4.018
			c0.65-0.373,1.637-0.415,2.2-0.09l20.663,11.93c0.563,0.325,0.489,0.893-0.161,1.27l-6.948,4.014
			C450.875,523.391,449.887,523.434,449.325,523.107z"/>
		<path fill="#4F4E63" d="M405.999,511.909l-7.018-4.052c-0.563-0.325-0.494-0.891,0.157-1.266l8.281-4.782
			c0.651-0.375,1.638-0.417,2.201-0.092l7.015,4.052c0.563,0.325,0.494,0.892-0.157,1.27l-8.281,4.779
			C407.545,512.193,406.562,512.234,405.999,511.909z"/>
		<path fill="#4F4E63" d="M327.316,466.484l-11.22-6.479c-0.564-0.326-0.494-0.893,0.157-1.268l8.281-4.782
			c0.651-0.375,1.636-0.416,2.199-0.091l11.22,6.479c0.564,0.325,0.492,0.893-0.157,1.266l-8.281,4.782
			C328.864,466.767,327.879,466.809,327.316,466.484z"/>
		<path fill="#4F4E63" d="M395.559,505.88l-11.22-6.476c-0.563-0.325-0.493-0.896,0.158-1.271l8.281-4.782
			c0.65-0.373,1.633-0.413,2.196-0.09l11.221,6.479c0.563,0.325,0.493,0.893-0.158,1.27l-8.281,4.78
			C397.105,506.167,396.123,506.206,395.559,505.88z"/>
		<path fill="#4F4E63" d="M342.948,475.51l-11.22-6.479c-0.563-0.326-0.492-0.892,0.157-1.271l8.281-4.778
			c0.651-0.379,1.636-0.417,2.199-0.092l11.22,6.477c0.563,0.325,0.493,0.896-0.158,1.27l-8.281,4.78
			C344.496,475.793,343.511,475.832,342.948,475.51z"/>
		<path fill="#4F4E63" d="M342.44,462.933l48.784,28.166c0.605,0.347,0.605,0.913,0,1.264l-8.446,4.877
			c-0.605,0.35-1.585,0.35-2.189,0l-48.784-28.167L342.44,462.933z"/>
		<path fill="#4F4E63" d="M436.278,523.25l7.815,4.514c0.462,0.267,0.403,0.731-0.128,1.039l-3.391,1.955
			c-0.531,0.308-1.341,0.341-1.803,0.074l-7.812-4.509c-0.462-0.27-0.406-0.735,0.13-1.043l3.386-1.956
			C435.008,523.017,435.817,522.986,436.278,523.25z"/>
		<path fill="#4F4E63" d="M425.353,516.944l7.816,4.512c0.462,0.267,0.401,0.731-0.13,1.041l-3.386,1.954
			c-0.536,0.309-1.341,0.343-1.803,0.074l-7.815-4.51c-0.462-0.267-0.402-0.735,0.129-1.043l3.387-1.956
			C424.086,516.708,424.891,516.677,425.353,516.944z"/>
		<path fill="#4F4E63" d="M414.518,510.688l7.815,4.514c0.462,0.265,0.406,0.73-0.129,1.038l-3.387,1.956
			c-0.532,0.308-1.339,0.344-1.802,0.074l-7.815-4.511c-0.462-0.266-0.402-0.734,0.129-1.039l3.391-1.959
			C413.251,510.457,414.055,510.422,414.518,510.688z"/>
		<path fill="#4F4E63" d="M431.335,513.49l7.816,4.511c0.462,0.27,0.406,0.734-0.13,1.042l-3.387,1.956
			c-0.532,0.307-1.34,0.339-1.802,0.073l-7.816-4.514c-0.462-0.267-0.402-0.73,0.13-1.038l3.39-1.956
			C430.068,513.256,430.873,513.225,431.335,513.49z"/>
	</g>
	<polygon fill="#FFFFFF" points="474.132,391.431 415.773,357.737 416.525,353.944 474.884,387.637 	"/>
	<polygon fill="#FFFFFF" points="453.232,397.833 412.495,374.313 413.244,370.518 453.984,394.04 	"/>
	<polygon fill="#F17B1C" points="449.376,386.373 414.133,366.024 414.884,362.231 450.129,382.579 	"/>
	<polygon fill="#F17B1C" points="472.496,399.72 454.873,389.545 455.622,385.752 473.245,395.925 	"/>
	<path fill="#D4ECFF" d="M441.897,353.818c-0.56,1.226-1.98,1.662-3.17,0.977c-1.187-0.685-1.693-2.235-1.133-3.46
		c0.563-1.225,1.98-1.662,3.17-0.976C441.95,351.043,442.46,352.593,441.897,353.818z"/>
	<path fill="#FFFFFF" d="M449.489,358.202c-0.563,1.225-1.979,1.662-3.17,0.975c-1.189-0.687-1.696-2.234-1.134-3.459
		c0.561-1.226,1.981-1.662,3.167-0.977C449.542,355.427,450.048,356.976,449.489,358.202z"/>
	<path fill="#D4ECFF" d="M457.077,362.583c-0.559,1.227-1.98,1.662-3.169,0.976c-1.187-0.686-1.694-2.235-1.134-3.459
		c0.563-1.225,1.979-1.662,3.17-0.978C457.129,359.808,457.637,361.358,457.077,362.583z"/>
	<path fill="#F17B1C" d="M464.666,366.966c-0.56,1.225-1.98,1.662-3.167,0.976c-1.188-0.688-1.696-2.236-1.133-3.459
		c0.561-1.227,1.977-1.662,3.166-0.977C464.722,364.191,465.229,365.742,464.666,366.966z"/>
</g>
</svg>
