<?xml version="1.0" encoding="utf-8"?>
<!-- Generator: Adobe Illustrator 16.0.0, SVG Export Plug-In . SVG Version: 6.00 Build 0)  -->
<!DOCTYPE svg PUBLIC "-//W3C//DTD SVG 1.1//EN" "http://www.w3.org/Graphics/SVG/1.1/DTD/svg11.dtd">
<svg version="1.1" id="Layer_1" xmlns="http://www.w3.org/2000/svg" xmlns:xlink="http://www.w3.org/1999/xlink" x="0px" y="0px"
	 width="412px" height="412px" viewBox="0 0 412 412" enable-background="new 0 0 412 412" xml:space="preserve">
<g>
	<rect x="63.229" y="334.007" fill="#DC4E2C" width="20.196" height="26.449"/>
	<rect x="83.426" y="334.007" fill="#AF1F24" width="20.196" height="26.449"/>
	<rect x="83.426" y="334.007" fill="#B4E2F9" width="18.415" height="24.538"/>
	<rect x="83.426" y="331.204" fill="#7AC0DB" width="18.415" height="24.538"/>
	<polygon fill="#B4E2F9" points="83.426,355.742 98.736,350.314 98.736,325.774 83.426,331.204 	"/>
	<rect x="65.01" y="334.007" fill="#7AC0DB" width="18.416" height="24.538"/>
	<rect x="65.01" y="331.204" fill="#B4E2F9" width="18.416" height="24.538"/>
	<polygon fill="#7AC0DB" points="83.426,355.742 68.115,350.314 68.115,325.774 83.426,331.204 	"/>
</g>
<g>
	<path fill="#113956" d="M306.754,268.045h43.476v-33.596h-43.476V268.045z M311.617,239.314h33.748v23.866h-33.748V239.314z"/>
	<polygon fill="#B4E2F9" points="340.424,239.314 311.617,239.314 311.617,263.181 316.558,263.181 345.365,263.181 
		345.365,239.314 	"/>
	<path fill="#113956" d="M297.464,271.142c0,2.894,2.346,4.006,5.236,4.006h51.58c2.894,0,5.236-1.112,5.236-4.006H297.464z"/>
	<path fill="#DC4E2C" d="M337.307,249.242v-1.563h-5.248v-5.249h-1.561v5.249h-1.226v-5.249h-1.562v5.249h-1.226v-5.249h-1.563
		v5.249h-5.248v1.563h5.248v1.224h-5.248v1.563h5.248v1.226h-5.248v1.562h5.248v5.249h1.563v-5.249h1.226v5.249h1.562v-5.249h1.226
		v5.249h1.561v-5.249h5.248v-1.562h-5.248v-1.226h5.248v-1.563h-5.248v-1.224H337.307z M326.485,249.242h1.226v1.224h-1.226V249.242
		z M326.485,253.254v-1.226h1.226v1.226H326.485z M330.498,253.254h-1.226v-1.226h1.226V253.254z M330.498,250.466h-1.226v-1.224
		h1.226V250.466z"/>
	<rect x="323.719" y="246.476" fill="#113956" width="9.544" height="9.544"/>
	<rect x="300.671" y="269.738" fill="#DC4E2C" width="4.019" height="1.403"/>
	<rect x="352.294" y="269.738" fill="#DC4E2C" width="4.017" height="1.403"/>
	<rect x="345.841" y="269.738" fill="#DC4E2C" width="4.018" height="1.403"/>
	<rect x="339.389" y="269.738" fill="#DC4E2C" width="4.018" height="1.403"/>
	<rect x="332.936" y="269.738" fill="#DC4E2C" width="4.017" height="1.403"/>
	<rect x="326.482" y="269.738" fill="#DC4E2C" width="4.019" height="1.403"/>
	<rect x="320.029" y="269.738" fill="#DC4E2C" width="4.018" height="1.403"/>
	<rect x="313.577" y="269.738" fill="#DC4E2C" width="4.017" height="1.403"/>
	<rect x="307.125" y="269.738" fill="#DC4E2C" width="4.016" height="1.403"/>
</g>
<g>
	<polygon fill="#113956" points="204.61,170.533 179.679,145.602 182.739,142.541 204.61,164.411 226.476,142.541 229.538,145.602 	
		"/>
	<path fill="#DC4E2C" d="M244.559,226.309c0,7.171-5.816,12.986-12.985,12.986h-54.371c-7.171,0-12.986-5.815-12.986-12.986v-51.67
		c0-7.17,5.814-12.983,12.986-12.983h54.371c7.169,0,12.985,5.813,12.985,12.983V226.309z"/>
	<ellipse fill="#B4E2F9" cx="186.508" cy="190.952" rx="10.327" ry="12.782"/>
	<path fill="#B4E2F9" d="M232.596,190.952c0,7.058-4.623,12.782-10.325,12.782c-5.705,0-10.324-5.724-10.324-12.782
		c0-7.061,4.619-12.784,10.324-12.784C227.973,178.168,232.596,183.892,232.596,190.952z"/>
	<circle fill="#113956" cx="186.507" cy="194.072" r="6.402"/>
	<circle fill="#FFFFFF" cx="181.706" cy="190.218" r="2.547"/>
	<circle fill="#113956" cx="222.271" cy="194.072" r="6.401"/>
	<circle fill="#FFFFFF" cx="217.469" cy="190.218" r="2.547"/>
	<path fill="#DC4E2C" d="M186.89,144.074c0,3.136-2.543,5.677-5.682,5.677c-3.136,0-5.68-2.542-5.68-5.677
		c0-3.14,2.544-5.682,5.68-5.682C184.347,138.393,186.89,140.934,186.89,144.074z"/>
	<path fill="#DC4E2C" d="M233.685,144.074c0,3.136-2.542,5.677-5.677,5.677c-3.139,0-5.68-2.542-5.68-5.677
		c0-3.14,2.541-5.682,5.68-5.682C231.143,138.393,233.685,140.934,233.685,144.074z"/>
	<polygon fill="#113956" points="204.39,289.111 261.512,266.612 261.512,205.48 204.39,229.915 	"/>
	<polygon fill="#3B80B0" points="204.39,289.111 147.266,266.612 147.266,205.48 204.39,229.915 	"/>
	<path fill="#7AC0DB" d="M204.61,223.558c8.842-14.88,35.891-22.587,52.975-16.537l-53.195,22.895l-52.976-22.895
		c17.081-6.05,44.132,1.657,52.976,16.537H204.61z"/>
	<path fill="#DC4E2C" d="M152.824,223.992l-6.105-2.669c-2.119-0.936-4.594,0.025-5.528,2.143c-0.934,2.12,0.028,4.597,2.147,5.531
		l6.107,2.668c2.119,0.935,4.592-0.026,5.525-2.147C155.904,227.4,154.944,224.925,152.824,223.992z M153.487,228.863
		c-0.555,1.26-2.102,1.883-3.394,1.315l-1.879-0.82l2.012-4.732l1.943,0.852c0.628,0.277,1.111,0.78,1.359,1.421
		C153.779,227.536,153.763,228.238,153.487,228.863z"/>
	<path fill="#B4E2F9" d="M153.53,226.898c-0.248-0.641-0.731-1.144-1.359-1.421l-1.943-0.852l-2.012,4.732l1.879,0.82
		c1.292,0.567,2.838-0.056,3.394-1.315C153.763,228.238,153.779,227.536,153.53,226.898z"/>
	<path fill="#DC4E2C" d="M152.824,232.536l-6.105-2.674c-2.119-0.932-4.594,0.029-5.528,2.149c-0.934,2.119,0.028,4.596,2.147,5.528
		l6.107,2.669c2.119,0.936,4.592-0.028,5.525-2.147C155.904,235.941,154.944,233.47,152.824,232.536z M153.487,237.407
		c-0.555,1.26-2.102,1.882-3.394,1.317l-1.879-0.824l2.012-4.731l1.943,0.852c0.628,0.277,1.111,0.781,1.359,1.423
		C153.779,236.082,153.763,236.779,153.487,237.407z"/>
	<path fill="#B4E2F9" d="M153.53,235.443c-0.248-0.642-0.731-1.146-1.359-1.423l-1.943-0.852l-2.012,4.731l1.879,0.824
		c1.292,0.564,2.838-0.058,3.394-1.317C153.763,236.779,153.779,236.082,153.53,235.443z"/>
	<path fill="#DC4E2C" d="M152.824,241.08l-6.105-2.672c-2.119-0.935-4.594,0.026-5.528,2.146s0.028,4.593,2.147,5.528l6.107,2.669
		c2.119,0.935,4.592-0.027,5.525-2.147C155.904,244.486,154.944,242.013,152.824,241.08z M153.487,245.954
		c-0.555,1.257-2.102,1.879-3.394,1.313l-1.879-0.824l2.012-4.73l1.943,0.854c0.628,0.274,1.111,0.781,1.359,1.418
		C153.779,244.626,153.763,245.323,153.487,245.954z"/>
	<path fill="#B4E2F9" d="M153.53,243.984c-0.248-0.637-0.731-1.144-1.359-1.418l-1.943-0.854l-2.012,4.73l1.879,0.824
		c1.292,0.565,2.838-0.057,3.394-1.313C153.763,245.323,153.779,244.626,153.53,243.984z"/>
	<path fill="#DC4E2C" d="M254.247,229.518c0.931,2.121,3.405,3.082,5.524,2.147l6.106-2.668c2.121-0.935,3.08-3.411,2.147-5.531
		c-0.935-2.117-3.404-3.078-5.525-2.143l-6.107,2.669C254.272,224.925,253.309,227.4,254.247,229.518z M255.688,226.898
		c0.25-0.641,0.73-1.144,1.362-1.421l1.939-0.852l2.015,4.732l-1.883,0.82c-1.289,0.567-2.839-0.056-3.393-1.315
		C255.454,228.238,255.435,227.536,255.688,226.898z"/>
	<path fill="#B4E2F9" d="M255.688,226.898c0.25-0.641,0.73-1.144,1.362-1.421l1.939-0.852l2.015,4.732l-1.883,0.82
		c-1.289,0.567-2.839-0.056-3.393-1.315C255.454,228.238,255.435,227.536,255.688,226.898z"/>
	<path fill="#DC4E2C" d="M254.247,238.062c0.931,2.119,3.405,3.083,5.524,2.147l6.106-2.669c2.121-0.933,3.08-3.409,2.147-5.528
		c-0.935-2.12-3.404-3.081-5.525-2.149l-6.107,2.674C254.272,233.47,253.309,235.941,254.247,238.062z M255.688,235.443
		c0.25-0.642,0.73-1.146,1.362-1.423l1.939-0.852l2.015,4.731l-1.883,0.824c-1.289,0.564-2.839-0.058-3.393-1.317
		C255.454,236.779,255.435,236.082,255.688,235.443z"/>
	<path fill="#B4E2F9" d="M255.688,235.443c0.25-0.642,0.73-1.146,1.362-1.423l1.939-0.852l2.015,4.731l-1.883,0.824
		c-1.289,0.564-2.839-0.058-3.393-1.317C255.454,236.779,255.435,236.082,255.688,235.443z"/>
	<path fill="#DC4E2C" d="M254.247,246.604c0.931,2.12,3.405,3.082,5.524,2.147l6.106-2.669c2.121-0.936,3.08-3.408,2.147-5.528
		c-0.935-2.12-3.404-3.081-5.525-2.146l-6.107,2.672C254.272,242.013,253.309,244.486,254.247,246.604z M255.688,243.984
		c0.25-0.637,0.73-1.144,1.362-1.418l1.939-0.854l2.015,4.73l-1.883,0.824c-1.289,0.565-2.839-0.057-3.393-1.313
		C255.454,245.323,255.435,244.626,255.688,243.984z"/>
	<path fill="#B4E2F9" d="M255.688,243.984c0.25-0.637,0.73-1.144,1.362-1.418l1.939-0.854l2.015,4.73l-1.883,0.824
		c-1.289,0.565-2.839-0.057-3.393-1.313C255.454,245.323,255.435,244.626,255.688,243.984z"/>
</g>
<g>
	<rect x="40.77" y="230.101" fill="#B4E2F9" width="53.061" height="24.696"/>
	<rect x="42.744" y="232.074" fill="#3B80B0" width="3.73" height="3.729"/>
	<rect x="48.417" y="232.074" fill="#3B80B0" width="3.729" height="3.729"/>
	<rect x="54.09" y="232.074" fill="#3B80B0" width="3.729" height="3.729"/>
	<rect x="59.764" y="232.074" fill="#3B80B0" width="3.728" height="3.729"/>
	<rect x="65.437" y="232.074" fill="#3B80B0" width="3.729" height="3.729"/>
	<rect x="71.111" y="232.074" fill="#3B80B0" width="3.728" height="3.729"/>
	<rect x="76.784" y="232.074" fill="#3B80B0" width="3.729" height="3.729"/>
	<rect x="82.457" y="232.074" fill="#3B80B0" width="3.729" height="3.729"/>
	<rect x="88.129" y="232.074" fill="#3B80B0" width="3.729" height="3.729"/>
	<rect x="48.417" y="237.749" fill="#3B80B0" width="3.729" height="3.728"/>
	<rect x="54.09" y="237.749" fill="#3B80B0" width="3.729" height="3.728"/>
	<rect x="59.764" y="237.749" fill="#3B80B0" width="3.728" height="3.728"/>
	<rect x="71.111" y="237.749" fill="#3B80B0" width="3.728" height="3.728"/>
	<rect x="76.784" y="237.749" fill="#3B80B0" width="3.729" height="3.728"/>
	<rect x="82.457" y="237.749" fill="#3B80B0" width="3.729" height="3.728"/>
	<rect x="88.129" y="237.749" fill="#3B80B0" width="3.729" height="3.728"/>
	<rect x="48.417" y="243.422" fill="#3B80B0" width="3.729" height="3.728"/>
	<rect x="54.09" y="243.422" fill="#3B80B0" width="3.729" height="3.728"/>
	<polygon fill="#3B80B0" points="65.437,237.749 65.437,243.422 59.764,243.422 59.764,247.149 65.437,247.149 69.166,247.149 
		69.166,243.422 69.166,237.749 	"/>
	<rect x="76.784" y="243.422" fill="#3B80B0" width="3.729" height="3.728"/>
	<rect x="88.129" y="243.422" fill="#3B80B0" width="3.729" height="3.728"/>
	<rect x="48.417" y="249.096" fill="#3B80B0" width="3.729" height="3.728"/>
	<rect x="54.09" y="249.096" fill="#3B80B0" width="3.729" height="3.728"/>
	<rect x="59.764" y="249.096" fill="#3B80B0" width="3.728" height="3.728"/>
	<rect x="65.437" y="249.096" fill="#3B80B0" width="3.729" height="3.728"/>
	<rect x="71.111" y="249.096" fill="#3B80B0" width="3.728" height="3.728"/>
	<rect x="76.784" y="249.096" fill="#3B80B0" width="3.729" height="3.728"/>
	<rect x="76.783" y="232.074" fill="#3B80B0" width="3.73" height="3.729"/>
	<rect x="76.783" y="237.749" fill="#3B80B0" width="3.73" height="3.728"/>
	<rect x="82.457" y="249.096" fill="#3B80B0" width="3.729" height="3.728"/>
	<rect x="88.129" y="249.096" fill="#3B80B0" width="3.729" height="3.728"/>
	<rect x="42.744" y="249.095" fill="#3B80B0" width="3.73" height="3.729"/>
	<rect x="42.744" y="243.422" fill="#3B80B0" width="3.73" height="3.728"/>
	<rect x="42.744" y="237.749" fill="#3B80B0" width="3.73" height="3.728"/>
	<rect x="42.744" y="232.074" fill="#3B80B0" width="3.73" height="3.729"/>
	<polygon fill="#F3BD33" points="79.305,234.599 79.305,221.937 61.408,221.937 61.408,223.252 77.99,223.252 77.99,233.282 
		49.624,233.282 49.624,245.943 64.743,245.943 64.743,244.629 50.94,244.629 50.94,234.599 	"/>
	<circle fill="#3B80B0" cx="61.628" cy="222.594" r="3.831"/>
	<path fill="#DC4E2C" d="M66.94,244.544c0-1.334-1.082-2.417-2.418-2.417c-1.333,0-2.416,1.083-2.416,2.417v15.057h4.834V244.544z"
		/>
	<path fill="#DC4E2C" d="M72.86,253.317c0-1.333-1.081-2.417-2.416-2.417s-2.417,1.084-2.417,2.417v6.283h4.832V253.317z"/>
	<path fill="#DC4E2C" d="M76.366,253.752c-1.335,0-2.416,1.083-2.416,2.416v3.433h4.833v-3.433
		C78.782,254.835,77.7,253.752,76.366,253.752z"/>
	<path fill="#DC4E2C" d="M54.71,259.337c-0.944-0.944-2.475-0.944-3.417,0c-0.944,0.944-0.944,2.474,0,3.418l12.609,12.611
		c0.001,0.001-1.796-1.797-1.796-1.797v-6.834L54.71,259.337z"/>
	<polygon fill="#3B80B0" points="75.708,275.829 75.708,259.601 73.95,259.601 72.86,259.601 71.103,259.601 71.103,275.829 	"/>
	<polygon fill="#3B80B0" points="69.787,259.601 68.028,259.601 66.94,259.601 62.106,259.601 62.106,262.379 62.106,266.735 
		62.106,273.569 64.367,275.829 69.787,275.829 	"/>
	<polygon fill="#3B80B0" points="78.782,275.829 78.782,274.002 78.782,259.601 77.024,259.601 77.024,275.829 	"/>
	<rect x="69.787" y="259.601" fill="#113956" width="1.315" height="16.229"/>
	<rect x="75.708" y="259.601" fill="#113956" width="1.316" height="16.229"/>
	<circle fill="#B4E2F9" cx="70.445" cy="259.601" r="1.663"/>
	<circle fill="#B4E2F9" cx="76.367" cy="259.601" r="1.662"/>
	<path fill="#113956" d="M63.864,259.601c0,0,0,7.919,0,11.379l-6.131-6.133l-0.932,0.93l6.189,6.19
		c1.227,1.104,2.191,0.47,2.191-0.678v-11.688H63.864z"/>
	<circle fill="#B4E2F9" cx="64.522" cy="259.601" r="1.664"/>
	<circle fill="#B4E2F9" cx="57.244" cy="265.334" r="1.663"/>
</g>
<g>
	<path fill="#3B80B0" d="M322.362,209.939h5.355v13.062h-2.678h-1.493h-2.368h-1.493c0-0.001,0-10.384,0-10.384
		C319.686,211.139,320.885,209.939,322.362,209.939z"/>
	<path fill="#3B80B0" d="M326.413,212.082c-0.608-7.623-4.646-11.796-11.54-11.796v-2.067c8.089,0,12.966,5.024,13.617,13.864
		H326.413z"/>
	<path fill="#DC4E2C" d="M322.283,212.082c0-2.824,2.291-5.115,5.116-5.115c2.822,0,5.113,2.291,5.113,5.115h-6.1v5.018
		C324.061,216.641,322.283,214.57,322.283,212.082z"/>
	<path fill="#3B80B0" d="M274.345,185.362c0.61,7.623,4.648,11.796,11.541,11.796v2.067c-8.089,0-12.966-5.024-13.617-13.864
		H274.345z"/>
	<polygon fill="#3B80B0" points="279.036,166.118 302.532,174.527 326.025,166.118 302.532,157.708 	"/>
	<path fill="#3B80B0" d="M308.398,211.28h2.087c-0.834,7.474-6.489,11.721-15.826,11.721v-2.066
		C302.783,220.935,307.58,217.519,308.398,211.28z"/>
	<path fill="#DC4E2C" d="M284.707,205.305c0,3.299,2.677,5.975,5.976,5.975h25.023c3.301,0,5.977-2.676,5.977-5.975v-23.779
		c0-3.3-2.676-5.975-5.977-5.975h-25.023c-3.299,0-5.976,2.674-5.976,5.975V205.305z"/>
	<ellipse fill="#B4E2F9" cx="294.965" cy="188.359" rx="4.752" ry="5.883"/>
	<ellipse fill="#B4E2F9" cx="311.424" cy="188.359" rx="4.751" ry="5.883"/>
	<circle fill="#113956" cx="294.965" cy="189.795" r="2.946"/>
	<circle fill="#FFFFFF" cx="292.756" cy="188.021" r="1.173"/>
	<circle fill="#113956" cx="311.424" cy="189.795" r="2.946"/>
	<circle fill="#FFFFFF" cx="309.215" cy="188.021" r="1.173"/>
	<path fill="#113956" d="M303.175,205.149c3.8,0,7.256-1.784,9.248-4.777l-1.722-1.146c-1.608,2.417-4.42,3.856-7.526,3.856
		c-3.119-0.01-5.905-1.449-7.483-3.851l-1.728,1.136C295.924,203.351,299.354,205.139,303.175,205.149z"/>
	<rect x="301.497" y="211.28" fill="#113956" width="2.068" height="13.826"/>
	<rect x="291.904" y="218.797" fill="#DC4E2C" width="5.509" height="10.796"/>
	<rect x="299.777" y="224.085" fill="#DC4E2C" width="10.796" height="5.508"/>
	<path fill="#113956" d="M291.726,168.273c0-2.395,4.792-4.334,10.705-4.334s10.704,1.94,10.704,4.334v7.278h-21.409V168.273z"/>
	<path fill="#DC4E2C" d="M273.496,180.248c0.557,0,1.092,0.091,1.593,0.256v-4.215c0-0.974,0.788-1.762,1.76-1.762
		c0.974,0,1.763,0.789,1.763,1.762v9.044c0,2.853-2.29,5.144-5.115,5.144s-5.114-2.291-5.114-5.115S270.671,180.248,273.496,180.248
		z"/>
	<path fill="#113956" d="M327.717,209.939c1.479,0,2.679,1.199,2.679,2.678V223c0,0.001-1.494,0.001-1.494,0.001v-10.377h-2.368
		v10.377h-1.493c0-0.001,0-10.384,0-10.384C325.04,211.139,326.239,209.939,327.717,209.939z"/>
	<rect x="326.533" y="212.624" fill="#7AC0DB" width="2.368" height="10.377"/>
</g>
<g>
	<path fill="#7AC0DB" d="M130.981,323.995c0.813,10.878,10.178,17.584,17.415,17.584v-41.684
		C138.147,299.896,130.022,311.17,130.981,323.995z"/>
	<path fill="#DC4E2C" d="M144.355,326.873v14.069c0.55,0.167,1.099,0.301,1.643,0.403v-14.473H144.355z"/>
	<path fill="#DC4E2C" d="M134.13,315.209v17.992c0.504,0.759,1.055,1.472,1.644,2.135v-20.127H134.13z"/>
	<path fill="#DC4E2C" d="M146.113,319.932v-12.299h-1.643v11.618l-5.227,5.227v13.954c0.536,0.375,1.085,0.713,1.643,1.024v-14.298
		L146.113,319.932z"/>
	<path fill="#DC4E2C" d="M140.886,319.592V302.06c-0.565,0.343-1.113,0.724-1.643,1.14v16.393H140.886z"/>
	<circle fill="#113956" cx="145.177" cy="307.633" r="2.088"/>
	<circle fill="#113956" cx="134.952" cy="315.7" r="2.088"/>
	<circle fill="#113956" cx="145.177" cy="326.873" r="2.088"/>
	<circle fill="#113956" cx="140.065" cy="318.648" r="2.088"/>
	<path fill="#113956" d="M168.788,323.995c-0.813,10.878-10.18,17.584-17.416,17.584v-41.684
		C161.622,299.896,169.747,311.17,168.788,323.995z"/>
	<path fill="#DC4E2C" d="M155.414,326.873v14.069c-0.552,0.167-1.1,0.301-1.644,0.403v-14.473H155.414z"/>
	<path fill="#DC4E2C" d="M165.638,315.209v17.992c-0.504,0.759-1.055,1.472-1.643,2.135v-20.127H165.638z"/>
	<path fill="#DC4E2C" d="M153.656,319.932v-12.299h1.643v11.618l5.227,5.227v13.954c-0.536,0.375-1.086,0.713-1.643,1.024v-14.298
		L153.656,319.932z"/>
	<path fill="#DC4E2C" d="M158.883,319.592V302.06c0.565,0.343,1.112,0.724,1.643,1.14v16.393H158.883z"/>
	<circle fill="#7AC0DB" cx="154.592" cy="307.633" r="2.088"/>
	<circle fill="#7AC0DB" cx="164.816" cy="315.7" r="2.088"/>
	<circle fill="#7AC0DB" cx="154.592" cy="326.873" r="2.088"/>
	<circle fill="#7AC0DB" cx="159.704" cy="318.648" r="2.088"/>
</g>
<g>
	<path fill="#3B80B0" d="M73.008,179.712c0.613,7.662,4.672,11.858,11.602,11.858v2.081c-8.132,0-13.036-5.054-13.693-13.938H73.008
		z"/>
	<path fill="#DC4E2C" d="M77.294,170.59c0-0.979-0.79-1.774-1.769-1.774c-0.978,0-1.77,0.795-1.77,1.774v1.045
		c-0.174-0.727-0.821-1.27-1.603-1.27c-0.904,0-1.639,0.735-1.639,1.643v1.139c-0.202-0.681-0.825-1.184-1.572-1.184
		c-0.908,0-1.644,0.736-1.644,1.645v4.418c0,4.18,1.472,5.804,2.764,6.38c0.639,0.285,1.346,0.446,2.09,0.446
		c2.841,0,5.141-2.302,5.141-5.14C77.294,179.683,77.294,170.59,77.294,170.59z"/>
	<path fill="#113956" d="M130.615,179.712c-0.615,7.662-4.676,11.858-11.605,11.858v2.081c8.132,0,13.037-5.054,13.692-13.938
		H130.615z"/>
	<path fill="#DC4E2C" d="M126.325,170.59c0-0.979,0.792-1.774,1.77-1.774c0.979,0,1.771,0.795,1.771,1.774v1.045
		c0.166-0.727,0.818-1.27,1.599-1.27c0.909,0,1.641,0.735,1.641,1.643v1.139c0.2-0.681,0.823-1.184,1.57-1.184
		c0.908,0,1.644,0.736,1.644,1.645v4.418c0,4.18-1.472,5.804-2.764,6.38c-0.639,0.285-1.346,0.446-2.091,0.446
		c-2.84,0-5.14-2.302-5.14-5.14C126.325,179.683,126.325,170.59,126.325,170.59z"/>
	<polygon fill="#3B80B0" points="92.76,162.451 91.467,163.748 102.009,174.29 102.009,171.702 	"/>
	<polygon fill="#113956" points="112.554,163.748 111.262,162.451 102.011,171.703 102.009,174.29 	"/>
	<circle fill="#DC4E2C" cx="92.114" cy="163.1" r="2.403"/>
	<circle fill="#DC4E2C" cx="111.908" cy="163.1" r="2.403"/>
	<path fill="#DC4E2C" d="M83.426,199.76c0,3.316,2.689,6.009,6.008,6.009h25.158c3.317,0,6.008-2.693,6.008-6.009v-23.905
		c0-3.317-2.691-6.008-6.008-6.008H89.434c-3.318,0-6.008,2.691-6.008,6.008V199.76z"/>
	<ellipse fill="#B4E2F9" cx="93.737" cy="182.723" rx="4.777" ry="5.916"/>
	<ellipse fill="#B4E2F9" cx="110.286" cy="182.723" rx="4.778" ry="5.916"/>
	<circle fill="#113956" cx="93.738" cy="184.167" r="2.963"/>
	<circle fill="#FFFFFF" cx="91.517" cy="182.383" r="1.177"/>
	<path fill="#113956" d="M113.248,184.167c0,1.636-1.323,2.962-2.963,2.962c-1.638,0-2.962-1.326-2.962-2.962
		c0-1.634,1.324-2.961,2.962-2.961C111.924,181.205,113.248,182.532,113.248,184.167z"/>
	<circle fill="#FFFFFF" cx="108.062" cy="182.383" r="1.179"/>
	<path fill="#113956" d="M101.993,199.606c3.82,0,7.292-1.795,9.297-4.806l-1.729-1.15c-1.619,2.428-4.445,3.875-7.568,3.875
		c-3.136-0.012-5.939-1.458-7.525-3.872l-1.738,1.142C94.703,197.796,98.15,199.594,101.993,199.606z"/>
	<rect x="106.586" y="205.769" fill="#113956" width="2.082" height="9.902"/>
	<rect x="104.859" y="215.671" fill="#DC4E2C" width="10.852" height="5.537"/>
	<rect x="95.357" y="205.769" fill="#3B80B0" width="2.08" height="9.902"/>
	<rect x="88.312" y="215.671" fill="#DC4E2C" width="10.852" height="5.537"/>
	<path fill="#3B80B0" d="M68.1,172.479c0.001-2.318,1.878-4.198,4.199-4.198v-5.182h-1.77v2.56
		c-0.635,0.164-1.239,0.414-1.806,0.747l-1.812-1.809l-2.494,2.498l1.808,1.811c-0.333,0.565-0.584,1.171-0.749,1.807h-2.558v3.532
		h2.558c0.164,0.638,0.414,1.24,0.749,1.809l-1.808,1.81l2.496,2.498l1.81-1.81c0.568,0.333,1.171,0.585,1.806,0.749v2.56h1.77
		v-5.183C69.978,176.676,68.101,174.798,68.1,172.479z"/>
	<path fill="#113956" d="M81.678,174.245v-3.532h-2.56c-0.162-0.639-0.413-1.242-0.747-1.808l1.809-1.81l-2.5-2.498l-1.808,1.811
		c-0.566-0.335-1.171-0.586-1.807-0.749v-2.56h-1.765v5.182c2.316,0.001,4.198,1.88,4.198,4.2c0,2.317-1.878,4.196-4.198,4.197
		v5.183h1.765v-2.56c0.636-0.166,1.24-0.415,1.807-0.749l1.808,1.81l2.502-2.498l-1.811-1.811c0.333-0.565,0.585-1.17,0.747-1.807
		L81.678,174.245z"/>
	<path fill="#3B80B0" d="M143.75,176.421h3.516c-0.812-1.621-2.469-2.745-4.407-2.745c-1.936,0-3.593,1.124-4.405,2.745h-6.67h-1.42
		h-6.669c-0.679-1.358-1.956-2.356-3.489-2.649c0.242,0.652,0.394,1.348,0.394,2.083v2.765h20.952
		C141.552,177.405,142.535,176.421,143.75,176.421z"/>
	<path fill="#113956" d="M141.552,178.619H120.6v4.759c1.355-0.376,2.474-1.32,3.095-2.562h6.669h1.42h6.67
		c0.812,1.623,2.469,2.745,4.405,2.745c1.936,0,3.595-1.123,4.407-2.745h-3.516C142.535,180.817,141.552,179.834,141.552,178.619z"
		/>
</g>
<g>
	<path fill="#113956" d="M78.956,115.631c-0.38-0.521-9.499-12.734-24.865-12.734s-24.483,12.213-24.865,12.734l-0.392,0.534
		l0.367,0.553c0.346,0.521,8.666,12.769,24.889,12.769c16.223,0,24.544-12.247,24.889-12.769l0.367-0.553L78.956,115.631z
		 M54.09,127.584c-13.274,0-21.096-9.027-22.902-11.37c1.931-2.331,10.275-11.416,22.902-11.416
		c12.603,0,20.965,9.086,22.902,11.416C75.184,118.56,67.363,127.584,54.09,127.584z"/>
	<path fill="#B4E2F9" d="M54.09,104.799v22.786c13.272,0,21.094-9.024,22.902-11.37C75.056,113.885,66.693,104.799,54.09,104.799z"
		/>
	<path fill="#FFFFFF" d="M31.188,116.215c1.806,2.342,9.627,11.37,22.902,11.37v-22.786
		C41.463,104.799,33.12,113.884,31.188,116.215z"/>
	<path fill="#AF1F24" d="M54.09,105.694c5.789,0,10.498,4.71,10.498,10.498c0,5.79-4.71,10.497-10.498,10.498
		c-5.788,0-10.497-4.708-10.499-10.498C43.594,110.404,48.302,105.694,54.09,105.694z M54.09,124.788
		c4.739,0,8.596-3.856,8.596-8.596c0-4.739-3.857-8.597-8.596-8.595c-4.739-0.002-8.595,3.855-8.595,8.595
		C45.495,120.932,49.351,124.788,54.09,124.788z"/>
	<path fill="#DC4E2C" d="M50.207,116.192h3.884v-3.883C51.945,112.309,50.207,114.048,50.207,116.192z"/>
	<path fill="#113956" d="M50.207,116.192c0,2.144,1.738,3.883,3.884,3.883c2.145,0,3.883-1.738,3.883-3.883
		c0-2.144-1.739-3.883-3.883-3.883v3.883H50.207z"/>
	<path fill="#3B80B0" d="M59.413,116.192c0,2.935-2.387,5.322-5.322,5.322s-5.322-2.387-5.322-5.322h-1.901
		c0,3.984,3.24,7.225,7.224,7.225s7.225-3.241,7.225-7.225c0-3.983-3.241-7.224-7.225-7.224v1.901
		C57.026,110.869,59.413,113.257,59.413,116.192z"/>
</g>
<g>
	<path fill="#7AC0DB" d="M370.53,102.966c-1.053,0-2.06,0.203-2.983,0.567c-1.783-3.534-5.442-5.957-9.672-5.957
		c-3.781,0-7.106,1.939-9.044,4.875c-0.729-0.563-1.646-0.904-2.641-0.904c-2.391,0-4.328,1.938-4.328,4.329
		c0,0.291,0.029,0.573,0.084,0.849c-2.815,0.646-4.917,3.161-4.917,6.174c0,3.5,2.837,6.338,6.338,6.338h27.163
		c4.492,0,8.135-3.642,8.135-8.136C378.665,106.609,375.022,102.966,370.53,102.966z"/>
	<rect x="356.737" y="119.237" fill="#DC4E2C" width="2.218" height="12.486"/>
	<polygon fill="#DC4E2C" points="350.326,122.931 343.125,130.982 344.779,132.461 352.545,123.777 352.545,119.237 
		350.326,119.237 	"/>
	<polygon fill="#DC4E2C" points="365.365,122.929 365.365,119.237 363.149,119.237 363.149,123.777 370.917,132.461 
		372.569,130.982 	"/>
	<circle fill="#113956" cx="357.847" cy="131.723" r="3.084"/>
	<circle fill="#113956" cx="344.066" cy="131.723" r="3.084"/>
	<circle fill="#113956" cx="371.627" cy="131.723" r="3.084"/>
	<path fill="#113956" d="M357.865,108.747c-1.189,0-2.156,0.966-2.156,2.155c0,1.188,0.967,2.155,2.156,2.155
		c1.188,0,2.154-0.966,2.154-2.155C360.02,109.713,359.053,108.747,357.865,108.747z"/>
	<path fill="#113956" d="M349.442,108.747c-1.189,0-2.156,0.966-2.156,2.155c0,1.188,0.967,2.155,2.156,2.155
		c1.188,0,2.154-0.966,2.154-2.155C351.597,109.713,350.63,108.747,349.442,108.747z"/>
	<path fill="#113956" d="M366.251,108.747c-1.188,0-2.155,0.966-2.155,2.155c0,1.188,0.967,2.155,2.155,2.155
		c1.188,0,2.155-0.966,2.155-2.155C368.406,109.713,367.438,108.747,366.251,108.747z"/>
</g>
<g>
	<circle fill="#7AC0DB" cx="127.732" cy="49.994" r="11.793"/>
	<path fill="#DC4E2C" d="M136.577,62.326l4.59,4.588l3.485-3.484l-4.588-4.589c-0.497,0.638-1.04,1.258-1.634,1.852
		C137.836,61.286,137.216,61.828,136.577,62.326z"/>
	<path fill="#113956" d="M117,39.263c-5.927,5.928-5.927,15.536,0,21.462c5.334,5.333,13.648,5.864,19.577,1.601
		c0.661-0.475,1.292-1.008,1.885-1.601c0.594-0.594,1.126-1.227,1.602-1.885c4.264-5.932,3.732-14.245-1.602-19.577
		C132.537,33.336,122.927,33.336,117,39.263z M136.071,58.333c-4.606,4.606-12.073,4.606-16.678,0
		c-4.606-4.604-4.606-12.072,0-16.676c4.605-4.607,12.072-4.607,16.678,0C140.676,46.261,140.676,53.728,136.071,58.333z"/>
	
		<rect x="141.213" y="66.803" transform="matrix(-0.7071 -0.7071 0.7071 -0.7071 201.9736 222.2009)" fill="#113956" width="11.59" height="4.93"/>
	<path fill="#FFFFFF" d="M134.136,50.607c0.06-0.598,0.033-1.193-0.077-1.783l2.116-0.988l-1.363-2.926l-2.119,0.99
		c-0.379-0.462-0.821-0.866-1.314-1.208l0.798-2.195l-3.032-1.104l-0.8,2.196c-0.597-0.057-1.192-0.03-1.782,0.079l-0.989-2.12
		l-2.924,1.364l0.989,2.121c-0.465,0.38-0.869,0.822-1.208,1.316l-2.194-0.799l-1.105,3.031l2.196,0.799
		c-0.058,0.598-0.032,1.193,0.078,1.785l-2.118,0.987l1.363,2.923l2.119-0.987c0.38,0.465,0.82,0.869,1.314,1.206l-0.798,2.197
		l3.032,1.104l0.799-2.195c0.597,0.058,1.194,0.033,1.784-0.079l0.987,2.117l2.925-1.363l-0.986-2.117
		c0.463-0.38,0.868-0.82,1.204-1.317l2.197,0.8l1.102-3.031L134.136,50.607z M131.335,51.306c-0.724,1.987-2.925,3.015-4.914,2.291
		c-1.991-0.725-3.016-2.923-2.292-4.913c0.724-1.99,2.922-3.016,4.913-2.293C131.033,47.116,132.06,49.314,131.335,51.306z"/>
	<path fill="#DC4E2C" d="M141.423,40.579c0.172-0.356,0.291-0.734,0.356-1.125l1.542-0.136l-0.187-2.129l-1.543,0.136
		c-0.13-0.375-0.313-0.727-0.545-1.049l0.996-1.184l-1.638-1.376l-0.995,1.187c-0.359-0.17-0.734-0.289-1.126-0.356l-0.134-1.541
		l-2.128,0.187l0.136,1.542c-0.377,0.132-0.728,0.315-1.051,0.546l-1.186-0.994l-1.373,1.635l1.186,0.995
		c-0.173,0.359-0.291,0.735-0.355,1.128l-1.542,0.136l0.186,2.128l1.541-0.136c0.133,0.375,0.315,0.727,0.546,1.048l-0.996,1.186
		l1.637,1.374l0.996-1.185c0.357,0.171,0.735,0.291,1.127,0.354l0.135,1.542l2.127-0.186l-0.133-1.541
		c0.374-0.132,0.725-0.314,1.046-0.547l1.188,0.996l1.373-1.638L141.423,40.579z M139.522,40.38
		c-0.902,1.074-2.503,1.213-3.577,0.313c-1.075-0.902-1.214-2.502-0.313-3.575c0.902-1.074,2.502-1.216,3.577-0.313
		C140.283,37.706,140.424,39.308,139.522,40.38z"/>
</g>
<g>
	<path fill="#113956" d="M186.723,110.921c0.572-7.154,4.362-11.072,10.833-11.072v-1.944c-7.594,0-12.171,4.718-12.784,13.016
		H186.723z"/>
	<rect x="204.562" y="110.983" fill="#113956" width="1.943" height="12.98"/>
	<rect x="197.984" y="123.002" fill="#DC4E2C" width="10.134" height="5.171"/>
	<rect x="215.716" y="110.983" fill="#3B80B0" width="1.941" height="12.98"/>
	<rect x="214.102" y="123.002" fill="#DC4E2C" width="10.133" height="5.171"/>
	<path fill="#3B80B0" d="M235.554,86.522c-0.576,7.195-4.389,11.133-10.893,11.133v1.954c7.635,0,12.237-4.746,12.853-13.087
		H235.554z"/>
	<path fill="#DC4E2C" d="M231.527,77.961c0-0.92,0.744-1.665,1.661-1.665c0.92,0,1.665,0.745,1.665,1.665v0.982
		c0.153-0.684,0.767-1.194,1.499-1.194c0.854,0,1.541,0.69,1.541,1.543v1.069c0.188-0.64,0.773-1.111,1.473-1.111
		c0.854,0,1.544,0.692,1.544,1.543v4.149c0,3.923-1.381,5.448-2.595,5.988c-0.601,0.27-1.263,0.417-1.963,0.417
		c-2.666,0-4.825-2.16-4.825-4.826C231.527,86.496,231.527,77.961,231.527,77.961z"/>
	<polygon fill="#113956" points="202.427,70.32 201.213,71.536 211.108,81.435 211.108,79.004 	"/>
	<polygon fill="#3B80B0" points="221.01,71.536 219.795,70.32 211.11,79.004 211.108,81.435 	"/>
	<circle fill="#DC4E2C" cx="201.821" cy="70.931" r="2.256"/>
	<path fill="#DC4E2C" d="M222.658,70.931c0,1.246-1.015,2.255-2.256,2.255c-1.246,0-2.257-1.009-2.257-2.255
		c0-1.247,1.011-2.256,2.257-2.256C221.644,68.674,222.658,69.684,222.658,70.931z"/>
	<path fill="#DC4E2C" d="M193.663,105.344c0,3.112,2.526,5.639,5.641,5.639h23.617c3.112,0,5.639-2.527,5.639-5.639v-22.44
		c0-3.115-2.526-5.639-5.639-5.639h-23.617c-3.115,0-5.641,2.524-5.641,5.639V105.344z"/>
	<path fill="#B4E2F9" d="M207.828,89.351c0,3.068-2.005,5.553-4.482,5.553c-2.479,0-4.486-2.485-4.486-5.553
		c0-3.067,2.007-5.552,4.486-5.552C205.823,83.798,207.828,86.284,207.828,89.351z"/>
	<ellipse fill="#B4E2F9" cx="218.878" cy="89.351" rx="4.484" ry="5.553"/>
	<circle fill="#113956" cx="203.345" cy="90.707" r="2.781"/>
	<circle fill="#FFFFFF" cx="201.26" cy="89.031" r="1.106"/>
	<path fill="#113956" d="M221.66,90.707c0,1.535-1.243,2.779-2.782,2.779c-1.54,0-2.781-1.244-2.781-2.779
		c0-1.535,1.241-2.781,2.781-2.781C220.417,87.926,221.66,89.172,221.66,90.707z"/>
	<circle fill="#FFFFFF" cx="216.792" cy="89.031" r="1.106"/>
	<path fill="#113956" d="M211.094,105.199c3.586,0,6.846-1.686,8.729-4.511l-1.625-1.079c-1.52,2.278-4.173,3.636-7.104,3.636
		c-2.943-0.011-5.575-1.365-7.063-3.636l-1.633,1.074C204.251,103.502,207.486,105.188,211.094,105.199z"/>
	<circle fill="#DC4E2C" cx="185.843" cy="110.875" r="4.755"/>
	<path fill="#113956" d="M182.316,113.443c-1.389,0-2.513,1.127-2.513,2.513v9.747c0,0.003,1.401,0.003,1.401,0.003h1.112h1.11
		h1.402c0-0.003,0-9.75,0-9.75C184.829,114.57,183.703,113.443,182.316,113.443z"/>
	<path fill="#3B80B0" d="M191.883,115.957c0-1.386-1.124-2.513-2.513-2.513h-7.054c1.387,0,2.513,1.127,2.513,2.513v2.528h7.054
		V115.957z"/>
	<polygon fill="#3B80B0" points="184.829,125.703 186.23,125.706 190.482,125.706 191.883,125.706 191.883,119.574 184.829,119.574 
			"/>
	<rect x="184.829" y="118.485" fill="#113956" width="7.054" height="1.089"/>
	<ellipse fill="#F3BD33" cx="188.357" cy="119.03" rx="1.395" ry="2.131"/>
	<path fill="#113956" d="M239.429,81.083c0,1.771-1.437,3.208-3.209,3.208c-1.773,0-3.21-1.437-3.21-3.208v-3.2h6.419V81.083z"/>
	<path fill="#F3BD33" d="M236.218,60.596c4.23,0,7.66,3.428,7.66,7.658c0,3.081-1.824,5.731-4.449,6.946v2.683h-6.419v-2.683
		c-2.625-1.214-4.45-3.863-4.45-6.946C228.56,64.024,231.99,60.596,236.218,60.596z"/>
	<circle fill="#FFFFFF" cx="239.227" cy="65.685" r="1.423"/>
	<path fill="#113956" d="M185.984,109.244v1.313c-0.929,0-1.715,1.321-1.715,2.887h-1.313
		C182.956,111.088,184.287,109.244,185.984,109.244z"/>
</g>
<g>
	<rect x="312.4" y="329.808" fill="#B4E2F9" width="30.636" height="16.728"/>
	<polygon fill="#7AC0DB" points="340.137,346.535 340.137,351.341 337.527,351.341 337.527,346.535 334.579,346.535 
		334.579,351.341 331.973,351.341 331.973,346.535 329.021,346.535 329.021,351.341 326.415,351.341 326.415,346.535 
		323.464,346.535 323.464,351.341 320.857,351.341 320.857,346.535 317.909,346.535 317.909,351.341 315.301,351.341 
		315.301,346.535 312.4,346.535 312.4,353.651 343.036,353.651 343.036,346.535 	"/>
	<rect x="315.301" y="346.535" fill="#AF1F24" width="2.608" height="4.806"/>
	<rect x="320.857" y="346.535" fill="#F3BD33" width="2.606" height="4.806"/>
	<rect x="326.415" y="346.535" fill="#113956" width="2.606" height="4.806"/>
	<rect x="331.973" y="346.535" fill="#F3BD33" width="2.606" height="4.806"/>
	<rect x="337.527" y="346.535" fill="#AF1F24" width="2.609" height="4.806"/>
	<polygon fill="#DC4E2C" points="316.605,338.86 314.109,341.729 315.301,341.729 315.301,346.535 317.909,346.535 317.909,341.729 
		319.102,341.729 	"/>
	<polygon fill="#FFFFFF" points="322.16,343.665 319.664,346.535 324.657,346.535 	"/>
	<polygon fill="#3B80B0" points="327.718,334.054 325.222,336.923 326.415,336.923 326.415,341.729 326.415,346.535 
		329.021,346.535 329.021,341.729 329.021,336.923 330.215,336.923 	"/>
	<polygon fill="#FFFFFF" points="333.275,338.86 330.779,341.729 331.973,341.729 331.973,346.535 334.579,346.535 334.579,341.729 
		335.771,341.729 	"/>
	<polygon fill="#DC4E2C" points="338.833,334.054 336.337,336.923 337.527,336.923 337.527,341.729 337.527,346.535 
		340.137,346.535 340.137,341.729 340.137,336.923 341.329,336.923 	"/>
	<rect x="310.581" y="327.498" fill="#3B80B0" width="34.274" height="2.31"/>
	<rect x="310.581" y="353.651" fill="#113956" width="34.274" height="2.308"/>
	<polygon fill="#3B80B0" points="338.159,365.052 329.066,355.959 326.369,355.959 317.276,365.052 320.543,365.052 
		326.563,359.033 326.563,365.052 328.873,365.052 328.873,359.033 334.893,365.052 	"/>
</g>
<g>
	<path fill="#113956" d="M242.552,302.141v29.249c0-2.837,2.301-5.139,5.137-5.139v-18.974v-5.137v-5.139
		C244.853,297.002,242.552,299.304,242.552,302.141z"/>
	<path fill="#7AC0DB" d="M243.968,331.39c0,2.052,1.669,3.721,3.721,3.721h29.161v-7.441h-29.161
		C245.637,327.669,243.968,329.338,243.968,331.39z"/>
	<polygon fill="#DC4E2C" points="276.85,302.141 276.85,297.002 247.688,297.002 247.688,302.141 247.688,307.277 247.688,311.628 
		276.85,311.628 	"/>
	<rect x="247.688" y="311.628" fill="#AF1F24" width="29.161" height="14.623"/>
	<path fill="#113956" d="M265.404,335.11h-17.716c-2.052,0-3.721-1.669-3.721-3.721s1.669-3.721,3.721-3.721h17.716h10.027h1.418
		v-1.418h-29.161c-2.836,0-5.137,2.302-5.137,5.139c0,2.838,2.301,5.137,5.137,5.137h29.161v-1.416h-1.418H265.404z"/>
	<polygon fill="#DC4E2C" points="270.18,341.556 267.254,338.957 264.329,341.556 264.329,331.498 270.18,331.498 	"/>
	
		<rect x="267.735" y="288.465" transform="matrix(0.7075 -0.7067 0.7067 0.7075 -139.0925 280.1404)" fill="#7AC0DB" width="2.324" height="39.292"/>
	
		<rect x="269.377" y="286.821" transform="matrix(0.7065 -0.7077 0.7077 0.7065 -137.4884 281.4261)" fill="#3B80B0" width="2.325" height="39.293"/>
	<polygon fill="#113956" points="250.274,287.844 251.957,290.943 253.372,289.528 	"/>
	<polygon fill="#F3BD33" points="251.957,290.943 254.185,295.039 257.469,291.752 253.372,289.528 	"/>
</g>
<g>
	<polygon fill="#DC4E2C" points="295.735,51.951 297.657,51.951 297.657,43.475 285.951,43.475 285.951,45.397 295.735,45.397 	"/>
	<polygon fill="#DC4E2C" points="285.951,55.182 285.951,45.397 284.028,45.397 284.028,57.103 292.505,57.103 292.505,55.182 	"/>
	<rect x="292.198" y="51.644" fill="#3B80B0" width="8.729" height="8.728"/>
	<rect x="266.422" y="28.849" fill="#F3BD33" width="5.965" height="28.673"/>
	<polygon fill="#DC4E2C" points="269.404,55.111 260.495,65.633 278.313,65.633 	"/>
	<circle fill="#113956" cx="269.403" cy="57.522" r="6.356"/>
	<circle fill="#7AC0DB" cx="269.404" cy="57.522" r="2.849"/>
	
		<rect x="275.599" y="25.215" transform="matrix(-0.7071 0.7072 -0.7072 -0.7071 501.4741 -132.49)" fill="#3B80B0" width="5.16" height="24.817"/>
	<circle fill="#113956" cx="269.404" cy="28.849" r="5.502"/>
	<path fill="#113956" d="M283.062,50.29c-2.148-2.148-2.148-5.633,0-7.782c2.15-2.149,5.633-2.149,7.783,0
		c2.146,2.148,2.146,5.634,0,7.78C288.694,52.438,285.212,52.438,283.062,50.29z"/>
	<circle fill="#7AC0DB" cx="269.404" cy="28.849" r="2.23"/>
	<circle fill="#7AC0DB" cx="286.953" cy="46.398" r="2.23"/>
</g>
<g>
	<path fill="#113956" d="M32.739,206.24l-12.835-6.419c-0.584-0.291-2.896-1.449-12.834-6.416l0.491-0.986
		c0,0,12.75,6.377,12.833,6.417l12.836,6.419L32.739,206.24z"/>
	<path fill="#113956" d="M7.561,219.074l-0.493-0.982c9.939-4.969,12.25-6.126,12.848-6.395c-0.012-0.023,12.824-6.441,12.824-6.441
		l0.491,0.984l-12.834,6.417C20.311,212.699,7.561,219.074,7.561,219.074z"/>
	
		<rect x="13.183" y="197.386" transform="matrix(0.8322 0.5545 -0.5545 0.8322 118.17 27.4508)" fill="#113956" width="1.101" height="23.14"/>
	
		<rect x="2.163" y="201.989" transform="matrix(0.5547 0.8321 -0.8321 0.5547 174.6382 78.7642)" fill="#113956" width="23.14" height="1.1"/>
	
		<rect x="13.182" y="182.529" transform="matrix(0.4456 0.8952 -0.8952 0.4456 177.4401 92.8751)" fill="#113956" width="1.101" height="14.349"/>
	
		<rect x="6.556" y="221.244" transform="matrix(0.8943 0.4474 -0.4474 0.8943 100.6761 17.29)" fill="#113956" width="14.352" height="1.099"/>
	<circle fill="#7AC0DB" cx="7.315" cy="192.912" r="4.027"/>
	<circle fill="#7AC0DB" cx="7.315" cy="218.582" r="4.027"/>
	<circle fill="#3B80B0" cx="20.15" cy="186.495" r="4.028"/>
	<circle fill="#3B80B0" cx="20.15" cy="199.331" r="4.028"/>
	<circle fill="#DC4E2C" cx="32.985" cy="205.75" r="4.028"/>
	<circle fill="#3B80B0" cx="20.15" cy="212.166" r="4.028"/>
	<circle fill="#3B80B0" cx="20.15" cy="225.001" r="4.028"/>
</g>
<g>
	<polygon fill="#7AC0DB" points="406.718,199.084 406.324,198.039 387.885,205 395.831,191.025 395.907,190.889 394.935,190.337 
		387.095,204.128 387.095,191.408 385.977,191.408 385.977,205.282 371.317,196.947 371.183,196.872 370.632,197.842 
		385.082,206.058 366.703,212.998 366.56,213.051 366.954,214.099 385.382,207.142 377.24,221.462 377.165,221.595 378.137,222.147 
		385.977,208.355 385.977,220.46 387.095,220.46 387.095,207.203 401.756,215.537 401.889,215.612 402.441,214.641 387.705,206.264 
		406.575,199.14 	"/>
	<circle fill="#113956" cx="386.536" cy="221.475" r="3.148"/>
	<circle fill="#3B80B0" cx="368.937" cy="212.662" r="5.662"/>
	<circle fill="#3B80B0" cx="394.313" cy="192.66" r="3.148"/>
	<circle fill="#113956" cx="386.537" cy="191.561" r="2.248"/>
	<circle fill="#F3BD33" cx="377.643" cy="221.937" r="2.248"/>
	<circle fill="#DC4E2C" cx="402.232" cy="214.909" r="2.248"/>
	<path fill="#DC4E2C" d="M375.18,197.519c0,2.046-1.661,3.707-3.708,3.707c-2.049,0-3.709-1.661-3.709-3.707
		c0-2.05,1.66-3.709,3.709-3.709C373.519,193.81,375.18,195.469,375.18,197.519z"/>
	<path fill="#F3BD33" d="M409.454,199.138c0,2.523-2.043,4.562-4.562,4.562c-2.521,0-4.563-2.039-4.563-4.562
		c0-2.519,2.043-4.563,4.563-4.563C407.411,194.575,409.454,196.619,409.454,199.138z"/>
</g>
<path opacity="0.6" fill="#3B80B0" d="M392.169,154.679v-2.49h-2.76v-4.995l-14.017,4.97l-14.016-4.97v4.995h-2.76v2.49h-1.582
	v24.326h17.948h0.82h17.948v-24.326H392.169z M359.438,154.679v-1.67h1.938v1.67v0.411v0.409v14.374l11.636,4.125h-13.574v-18.499
	v-0.409V154.679z M362.198,152.188v-3.834l10.814,3.834l1.155,0.41l0.815,0.29v0.121v1.67v0.411v0.409v18.329l-12.785-4.534v-13.795
	v-0.409v-0.411v-1.67v-0.411V152.188z M377.775,152.188l10.814-3.834v3.834v0.41v0.411v1.67v0.411v0.409v13.795l-12.786,4.534
	v-18.329v-0.409v-0.411v-1.67v-0.121l0.816-0.29L377.775,152.188z M359.438,174.817h15.545v0.169v1.5h-15.545V174.817z
	 M375.804,174.986v-0.169h15.546v1.67h-15.546V174.986z M391.35,154.679v0.411v0.409v18.499h-13.574l11.634-4.125v-14.374v-0.409
	v-0.411v-1.67h1.94V154.679z"/>
<g opacity="0.6">
	<path fill="#3B80B0" d="M151.597,89.942h-50.542v39.054h50.542V89.942z M145.942,123.342H106.71V95.597h39.232V123.342z"/>
	<path fill="#3B80B0" d="M106.157,132.598v-1.633h-4.67v1.633c-0.997,0-1.938,0-2.831,0v-1.633h-4.67v1.633
		c-2.356,0-3.728,0-3.728,0c0,3.363,2.726,4.655,6.087,4.655h59.961c3.363,0,6.087-1.292,6.087-4.655
		C162.394,132.598,127.397,132.598,106.157,132.598z"/>
	<polygon fill="#3B80B0" points="120.778,115.018 122.179,115.018 122.179,119.719 123.994,119.719 123.994,115.018 
		125.418,115.018 125.418,119.719 127.234,119.719 127.234,115.018 128.658,115.018 128.658,119.719 130.474,119.719 
		130.474,115.018 131.874,115.018 131.874,113.617 136.575,113.617 136.575,111.803 131.874,111.803 131.874,110.377 
		136.575,110.377 136.575,108.563 131.874,108.563 131.874,107.139 136.575,107.139 136.575,105.322 131.874,105.322 
		131.874,103.924 130.474,103.924 130.474,99.221 128.658,99.221 128.658,103.924 127.234,103.924 127.234,99.221 125.418,99.221 
		125.418,103.924 123.994,103.924 123.994,99.221 122.179,99.221 122.179,103.924 120.778,103.924 120.778,105.322 116.076,105.322 
		116.076,107.139 120.778,107.139 120.778,108.563 116.076,108.563 116.076,110.377 120.778,110.377 120.778,111.803 
		116.076,111.803 116.076,113.617 120.778,113.617 	"/>
	<rect x="153.997" y="130.964" fill="#3B80B0" width="4.669" height="1.633"/>
	<rect x="146.496" y="130.964" fill="#3B80B0" width="4.669" height="1.633"/>
	<rect x="138.994" y="130.964" fill="#3B80B0" width="4.67" height="1.633"/>
	<rect x="131.492" y="130.964" fill="#3B80B0" width="4.67" height="1.633"/>
	<rect x="123.992" y="130.964" fill="#3B80B0" width="4.669" height="1.633"/>
	<rect x="116.49" y="130.964" fill="#3B80B0" width="4.67" height="1.633"/>
	<rect x="108.988" y="130.964" fill="#3B80B0" width="4.67" height="1.633"/>
</g>
<g opacity="0.6">
	<path fill="#3B80B0" d="M384.258,268.949c2.715-2.989,7.478-4.362,11.02-4.362c0.048,0.002,0.048-7.918,0.048-7.918
		c0-1.98-1.607-3.586-3.586-3.586h-4.997l3.407-3.409c0.186,0.076,0.39,0.12,0.603,0.12c0.867,0,1.57-0.703,1.57-1.569
		s-0.703-1.569-1.57-1.569c-0.866,0-1.568,0.703-1.568,1.569c0,0.214,0.044,0.417,0.121,0.603l-4.254,4.256h-1.523l-4.254-4.256
		c0.077-0.186,0.12-0.389,0.12-0.603c0-0.866-0.703-1.569-1.569-1.569s-1.569,0.703-1.569,1.569s0.703,1.569,1.569,1.569
		c0.213,0,0.417-0.044,0.603-0.121l3.41,3.41h-5.119c-1.981,0-3.587,1.605-3.587,3.586v7.922c0.036,0,0.072-0.004,0.108-0.004
		C376.782,264.587,381.546,265.96,384.258,268.949z M389.168,257.645c1.575,0,2.853,1.581,2.853,3.532
		c0,1.95-1.277,3.531-2.853,3.531s-2.852-1.581-2.852-3.531C386.316,259.226,387.593,257.645,389.168,257.645z M379.288,257.645
		c1.574,0,2.853,1.581,2.853,3.532c0,1.95-1.278,3.531-2.853,3.531c-1.576,0-2.853-1.581-2.853-3.531
		C376.436,259.226,377.712,257.645,379.288,257.645z"/>
	<path fill="#3B80B0" d="M379.288,263.807c0.977,0,1.768-0.791,1.768-1.769c0-0.977-0.791-1.768-1.768-1.768
		c-0.299,0-0.577,0.08-0.823,0.212c0.123,0.127,0.2,0.3,0.2,0.491c0,0.388-0.313,0.703-0.703,0.703c-0.138,0-0.26-0.051-0.369-0.118
		c-0.042,0.153-0.074,0.313-0.074,0.479C377.519,263.016,378.312,263.807,379.288,263.807z"/>
	<path fill="#3B80B0" d="M389.168,263.807c0.977,0,1.768-0.791,1.768-1.769c0-0.977-0.791-1.768-1.768-1.768
		c-0.299,0-0.576,0.08-0.824,0.212c0.123,0.127,0.201,0.3,0.201,0.491c0,0.388-0.314,0.703-0.703,0.703
		c-0.139,0-0.259-0.051-0.368-0.118c-0.044,0.153-0.074,0.313-0.074,0.479C387.399,263.016,388.19,263.807,389.168,263.807z"/>
	<path fill="#3B80B0" d="M370.576,277.324c0.256-0.585-0.008-1.268-0.594-1.525l-0.351-0.153c0.402-0.041,0.769-0.286,0.944-0.681
		c0.256-0.586-0.008-1.27-0.594-1.526l-0.351-0.153c0.402-0.041,0.769-0.285,0.944-0.681c0.256-0.585-0.008-1.27-0.594-1.526
		l-1.687-0.737c-0.585-0.259-1.27,0.006-1.526,0.591c-0.259,0.587,0.007,1.271,0.593,1.528l0.348,0.152
		c-0.4,0.043-0.768,0.286-0.94,0.681c-0.259,0.586,0.007,1.271,0.593,1.528l0.349,0.151c-0.4,0.042-0.769,0.286-0.941,0.681
		c-0.259,0.587,0.007,1.269,0.593,1.527l1.688,0.738C369.635,278.176,370.317,277.911,370.576,277.324z M369.266,271.252
		l0.536,0.236c0.175,0.076,0.308,0.216,0.375,0.392c0.069,0.177,0.065,0.371-0.011,0.544c-0.154,0.348-0.582,0.52-0.938,0.363
		l-0.52-0.227L369.266,271.252z M369.266,273.613l0.536,0.234c0.175,0.076,0.308,0.216,0.375,0.393
		c0.069,0.178,0.065,0.37-0.011,0.544c-0.154,0.347-0.582,0.521-0.938,0.363l-0.52-0.228L369.266,273.613z M369.266,275.974
		l0.536,0.236c0.175,0.075,0.308,0.214,0.375,0.392c0.069,0.177,0.065,0.369-0.011,0.544c-0.154,0.348-0.582,0.519-0.938,0.362
		l-0.52-0.228L369.266,275.974z"/>
	<path fill="#3B80B0" d="M401.81,273.293c-0.175-0.395-0.542-0.638-0.941-0.681l0.348-0.152c0.586-0.257,0.85-0.941,0.594-1.528
		c-0.259-0.585-0.941-0.85-1.526-0.591l-1.688,0.737c-0.585,0.257-0.851,0.941-0.592,1.526c0.173,0.396,0.542,0.64,0.942,0.681
		l-0.351,0.153c-0.585,0.257-0.851,0.94-0.592,1.526c0.173,0.395,0.542,0.64,0.942,0.681l-0.351,0.153
		c-0.585,0.258-0.851,0.94-0.592,1.525c0.257,0.587,0.94,0.852,1.526,0.595l1.687-0.738c0.586-0.259,0.85-0.94,0.594-1.527
		c-0.175-0.395-0.542-0.639-0.941-0.681l0.348-0.151C401.802,274.563,402.065,273.879,401.81,273.293z M399.349,277.508
		c-0.356,0.156-0.783-0.015-0.937-0.362c-0.075-0.175-0.081-0.367-0.012-0.544c0.069-0.178,0.202-0.316,0.376-0.392l0.537-0.236
		l0.555,1.307L399.349,277.508z M399.349,275.147c-0.356,0.157-0.783-0.017-0.937-0.363c-0.075-0.174-0.081-0.366-0.012-0.544
		c0.069-0.177,0.202-0.316,0.376-0.393l0.537-0.234l0.555,1.307L399.349,275.147z M399.349,272.787
		c-0.356,0.156-0.783-0.016-0.937-0.363c-0.075-0.173-0.081-0.367-0.012-0.544c0.069-0.176,0.202-0.315,0.376-0.392l0.537-0.236
		l0.555,1.309L399.349,272.787z"/>
	<path fill="#3B80B0" d="M399.6,278.752v3.821l-14.962,5.893v-15.48l14.962-6.401v3.16l0.354-0.154
		c0.15-0.065,0.306-0.106,0.466-0.133v-4.115l-1.468,0.629c-1.09-0.371-2.323-0.563-3.675-0.563c-3.863,0-8.759,1.662-11.02,4.847
		c-2.259-3.185-7.154-4.847-11.019-4.847c-1.364,0-2.61,0.194-3.71,0.574l-1.492-0.64v4.102c0.202,0.022,0.4,0.064,0.589,0.147
		l0.23,0.101v-3.107l14.962,6.401v15.48l-14.962-5.893v-3.859c-0.046-0.017-0.093-0.025-0.139-0.046l-0.681-0.297v4.761
		l15.781,6.215v0.323l0.409-0.162l0.41,0.162v-0.323l15.782-6.215v-4.708l-0.563,0.246
		C399.774,278.706,399.687,278.728,399.6,278.752z M384.228,272.269l-13.415-5.798c0.751-0.162,1.562-0.245,2.427-0.245
		c4.462,0,8.936,2.078,10.637,4.941l0.12,0.201h0.525l0.119-0.201c1.702-2.863,6.175-4.941,10.637-4.941
		c0.864,0,1.676,0.082,2.424,0.244L384.228,272.269z"/>
</g>
<g opacity="0.6">
	<path fill="#3B80B0" d="M216.976,366.051c-1.551,0-2.81,1.257-2.81,2.808v3.99H212.9v-7.304c0-1.551-1.258-2.809-2.809-2.809
		s-2.809,1.258-2.809,2.809v7.304h-1.266v-17.502c0-1.551-1.257-2.81-2.811-2.81c-1.549,0-2.808,1.259-2.808,2.81v0.097h-12.98
		v-11.66h32.974v-14.719h-16.173c-0.363-2.095-2.177-3.689-4.376-3.689c-2.46,0-4.454,1.994-4.454,4.452
		c0,2.462,1.993,4.454,4.454,4.454c2.197,0,4.013-1.594,4.376-3.688h14.644v11.66h-32.976v14.719h14.512v15.876v3.229v5.064
		l-8.598-8.6c-1.097-1.097-2.876-1.097-3.973,0c-1.098,1.097-1.098,2.875,0,3.974l14.659,14.66c0,0-0.214-0.214-0.5-0.502
		l1.04,1.042h6.301v-17.093c-0.688-0.296-1.169-0.979-1.169-1.775c0-1.067,0.865-1.934,1.934-1.934c1.066,0,1.934,0.866,1.934,1.934
		c0,0.797-0.482,1.479-1.169,1.775v17.093h5.354v-17.093c-0.688-0.297-1.168-0.979-1.168-1.775c0-1.067,0.865-1.934,1.933-1.934
		c1.068,0,1.934,0.866,1.934,1.934c0,0.797-0.482,1.479-1.169,1.775v17.093h2.044v-2.126v-16.742v-3.99
		C219.784,367.308,218.526,366.051,216.976,366.051z M203.973,374.624v11.813c0,1.335-1.121,2.07-2.547,0.787l-1.028-1.027
		l-4.899-4.899c-0.231,0.098-0.486,0.15-0.753,0.15c-1.068,0-1.934-0.863-1.934-1.934c0-1.065,0.865-1.931,1.934-1.931
		c1.067,0,1.934,0.865,1.934,1.931c0,0.239-0.048,0.463-0.127,0.674l3.845,3.846l2.043,2.044c0-2.923,0-8.577,0-11.453
		c-0.687-0.297-1.169-0.979-1.169-1.775c0-1.067,0.867-1.934,1.934-1.934c1.069,0,1.936,0.866,1.936,1.934
		C205.142,373.646,204.66,374.327,203.973,374.624z"/>
	<path fill="#3B80B0" d="M221.262,338.556v2.294h0.534v4.335c0,0.001-4.335,0.001-4.335,0.001c-0.002-0.001-0.002-0.532-0.002-0.532
		h-2.261v0.532h-4.332v-0.532h-2.261v0.532h-4.335v-0.532h-2.262v0.532h-4.333v-0.532h-2.262v0.532h-4.335v-0.532h-2.26v0.532
		h-0.532v2.262h0.532v4.332h-0.532v2.261h0.532v0.534h2.26v-0.534h4.335v0.534h2.262v-0.534h1.648
		c0.327-0.965,0.995-1.764,1.871-2.261h-3.519v-4.332h4.333v3.982c0.382-0.116,0.779-0.198,1.198-0.198
		c0.371,0,0.723,0.065,1.064,0.158v-3.942h4.335v6.593v4.335h-1.283v2.262h1.283v1.074c0.46-0.18,0.963-0.281,1.486-0.281
		c0.265,0,0.523,0.03,0.774,0.078v-0.871h4.332v4.334h-1.051c0.026,0.188,0.058,0.378,0.058,0.574v0.274
		c0.732-0.666,1.704-1.074,2.771-1.074c0.167,0,0.325,0.03,0.485,0.05v-4.158h4.335v4.334h-3.539
		c1.131,0.374,2.051,1.207,2.509,2.296h16.513v-28.711H221.262z M195.414,351.779h-4.335v-4.332h4.335V351.779z M215.198,351.779
		h-4.332v-4.332h4.332V351.779z M221.796,358.375h-4.335v-4.335h4.335V358.375z M221.796,351.779h-4.335
		c-0.002,0-0.002-4.332-0.002-4.332c0.002,0,4.337,0,4.337,0V351.779z M228.391,364.971h-4.335v-4.334h4.335V364.971z
		 M228.391,351.779h-4.335v-4.332h4.335V351.779z M228.391,345.186h-4.335v-4.336h4.335V345.186z M234.985,364.971h-4.335v-4.334
		h4.335V364.971z M234.985,358.375h-4.335v-4.335h4.335V358.375z M234.985,351.779h-4.335v-4.332h4.335V351.779z M234.985,345.186
		h-4.335v-4.336h4.335V345.186z"/>
	<path fill="#3B80B0" d="M199.093,364.971h-1.417v-4.334h1.417v-2.262h-1.417v-0.532h-2.262v0.532h-4.335v-0.532h-2.26v0.532h-4.334
		v-4.335h0.532v-2.261h-0.532v-4.332h0.532v-2.262h-0.532v-4.336h4.334v0.534h2.26v-0.534h4.335v0.534h2.262v-0.534h4.333v0.534
		h2.262v-0.534h4.335v0.534h2.261v-0.534h4.332v0.534h2.261v-0.534c0.002,0,0.534,0,0.534,0v-2.294h-42.398v28.711h23.498V364.971z
		 M182.225,364.971h-4.336v-4.334h4.336V364.971z M182.225,358.375h-4.336v-4.335h4.336V358.375z M182.225,351.779h-4.336v-4.332
		h4.336V351.779z M182.225,345.186h-4.336v-4.336h4.336V345.186z M188.819,364.971h-4.334v-4.334h4.334V364.971z M195.414,364.971
		h-4.335v-4.334h4.335V364.971z"/>
</g>
<g opacity="0.6">
	<path fill="#3B80B0" d="M234.516,32.21c-0.537-0.736-13.442-18.02-35.19-18.02c-21.748,0-34.65,17.284-35.19,18.02l-0.554,0.756
		l0.521,0.784c0.489,0.737,12.263,18.071,35.224,18.071c22.959,0,34.737-17.334,35.225-18.071l0.52-0.784L234.516,32.21z
		 M199.326,49.129c-18.786,0-29.856-12.776-32.412-16.091c2.732-3.298,14.542-16.156,32.412-16.156
		c17.836,0,29.671,12.86,32.413,16.156C229.179,36.356,218.109,49.129,199.326,49.129z"/>
	<path fill="#3B80B0" d="M199.326,18.149c-8.192,0-14.856,6.665-14.857,14.856c0.001,8.194,6.666,14.857,14.857,14.857
		c8.19-0.001,14.856-6.664,14.856-14.857C214.182,24.814,207.518,18.149,199.326,18.149z M199.326,45.171
		c-6.708,0-12.164-5.457-12.164-12.166c0-6.707,5.456-12.167,12.164-12.165c6.707-0.002,12.165,5.458,12.165,12.165
		C211.49,39.714,206.032,45.171,199.326,45.171z"/>
	<path fill="#3B80B0" d="M199.326,38.5c3.035,0,5.496-2.46,5.496-5.495c0-3.035-2.461-5.496-5.496-5.496v5.496h-5.497
		C193.829,36.04,196.29,38.5,199.326,38.5z"/>
	<path fill="#3B80B0" d="M199.326,22.782v2.691c4.154,0,7.533,3.377,7.533,7.533c0,4.154-3.378,7.532-7.533,7.532
		s-7.532-3.378-7.532-7.532h-2.691c0,5.638,4.585,10.224,10.224,10.224c5.638,0,10.225-4.586,10.225-10.224
		C209.551,27.368,204.963,22.782,199.326,22.782z"/>
</g>
<path opacity="0.6" fill="#3B80B0" d="M348.66,304.285c3.285,0,5.946-2.662,5.946-5.947c0-3.283-2.661-5.946-5.946-5.946
	c-0.77,0-1.504,0.147-2.18,0.414c-1.305-2.582-3.979-4.354-7.071-4.354c-2.764,0-5.195,1.417-6.61,3.563
	c-0.535-0.413-1.204-0.661-1.932-0.661c-1.748,0-3.164,1.416-3.164,3.163c0,0.213,0.022,0.42,0.063,0.621
	c-2.059,0.472-3.596,2.311-3.596,4.513c0,2.56,2.074,4.634,4.633,4.634h5.088v2.701l-3.849,4.302
	c-0.229-0.077-0.471-0.128-0.727-0.128c-1.246,0-2.255,1.008-2.255,2.254c0,1.244,1.009,2.254,2.255,2.254
	c1.244,0,2.255-1.01,2.255-2.254c0-0.395-0.11-0.758-0.289-1.08l4.232-4.729v-3.319h3.063v7.03
	c-0.844,0.325-1.442,1.139-1.442,2.099c0,1.244,1.008,2.254,2.254,2.254c1.245,0,2.255-1.01,2.255-2.254
	c0-0.96-0.601-1.773-1.444-2.099v-7.03h3.065v3.319l4.23,4.729c-0.179,0.321-0.286,0.686-0.286,1.08
	c0,1.244,1.008,2.254,2.254,2.254c1.244,0,2.254-1.01,2.254-2.254c0-1.246-1.01-2.254-2.254-2.254c-0.256,0-0.499,0.051-0.728,0.128
	l-3.85-4.302v-2.701H348.66z M333.244,299.767c-0.867,0-1.576-0.706-1.576-1.574c0-0.869,0.709-1.574,1.576-1.574
	c0.869,0,1.576,0.705,1.576,1.574C334.82,299.061,334.113,299.767,333.244,299.767z M339.402,299.767
	c-0.868,0-1.576-0.706-1.576-1.574c0-0.869,0.708-1.574,1.576-1.574c0.867,0,1.575,0.705,1.575,1.574
	C340.978,299.061,340.27,299.767,339.402,299.767z M345.533,296.618c0.868,0,1.575,0.705,1.575,1.574
	c0,0.868-0.707,1.574-1.575,1.574c-0.869,0-1.577-0.706-1.577-1.574C343.956,297.323,344.664,296.618,345.533,296.618z"/>
<g opacity="0.6">
	<path fill="#3B80B0" d="M307.125,125.572l-6.491-6.494c4.417-6.146,5.181-14.094,2.32-20.875l-0.502,0.599l-1.939-1.626
		l0.218,2.518l-2.262,0.198c2.659,6.106,1.508,13.475-3.488,18.469c-6.517,6.519-17.084,6.519-23.603,0
		c-6.519-6.517-6.519-17.085,0-23.603c4.43-4.431,10.729-5.841,16.357-4.249l-0.163-1.857l2.523-0.221l-1.94-1.626l0.778-0.928
		c-7.215-2-15.27-0.178-20.942,5.495c-8.388,8.389-8.388,21.988,0,30.373c7.549,7.548,19.314,8.301,27.708,2.265l6.495,6.494
		l11.599,11.599l4.934-4.932L307.125,125.572z"/>
	<path fill="#3B80B0" d="M290.682,111.718l3.108,1.131l1.56-4.291l-3.106-1.131c0.086-0.847,0.047-1.689-0.109-2.525l2.995-1.399
		l-1.929-4.14l-2.999,1.4c-0.537-0.654-1.162-1.226-1.86-1.708l1.13-3.108l-4.292-1.563l-1.13,3.109
		c-0.847-0.082-1.688-0.044-2.522,0.112l-1.4-3l-4.138,1.931l1.4,3c-0.658,0.539-1.229,1.161-1.71,1.862l-3.105-1.13l-1.563,4.288
		l3.106,1.132c-0.08,0.847-0.045,1.689,0.11,2.525l-2.997,1.396l1.929,4.137l2.999-1.396c0.538,0.657,1.161,1.228,1.862,1.706
		l-1.132,3.11l4.292,1.561l1.131-3.105c0.846,0.082,1.69,0.045,2.524-0.11l1.398,2.995l4.139-1.93l-1.396-2.996
		C289.632,113.043,290.204,112.42,290.682,111.718z M288.28,108.415c-1.024,2.814-4.141,4.267-6.954,3.242
		c-2.818-1.025-4.269-4.138-3.244-6.953c1.025-2.816,4.136-4.27,6.954-3.245C287.851,102.484,289.305,105.598,288.28,108.415z"/>
	<path fill="#3B80B0" d="M291.168,89.647l-2.182,0.189l0.264,3.011l2.18-0.189c0.188,0.53,0.447,1.027,0.773,1.483l-1.409,1.679
		l2.318,1.944l1.409-1.676c0.504,0.242,1.039,0.41,1.594,0.501l0.191,2.181l3.011-0.262l-0.188-2.181
		c0.53-0.186,1.026-0.444,1.482-0.772l1.68,1.407l1.943-2.316l-1.679-1.409c0.243-0.506,0.411-1.04,0.504-1.593l2.183-0.192
		l-0.266-3.014l-2.184,0.191c-0.185-0.529-0.441-1.026-0.771-1.483l1.41-1.678l-2.319-1.946l-1.409,1.679
		c-0.507-0.241-1.037-0.409-1.593-0.502l-0.19-2.183l-3.012,0.265l0.192,2.182c-0.534,0.187-1.03,0.446-1.488,0.771l-1.677-1.406
		l-1.942,2.315l1.677,1.408C291.429,88.558,291.26,89.091,291.168,89.647z M294.363,88.335c1.275-1.52,3.539-1.719,5.06-0.442
		c1.52,1.275,1.721,3.541,0.443,5.061c-1.275,1.519-3.542,1.716-5.062,0.442C293.283,92.12,293.087,89.854,294.363,88.335z"/>
</g>
<g opacity="0.6">
	<polygon fill="#3B80B0" points="25.091,162.209 27.408,162.209 27.408,157.939 28.468,157.939 26.249,155.389 24.031,157.939 
		25.091,157.939 	"/>
	<polygon fill="#3B80B0" points="20.153,157.939 20.153,162.209 22.47,162.209 22.47,157.939 22.47,153.668 23.529,153.668 
		21.312,151.118 19.093,153.668 20.153,153.668 	"/>
	<polygon fill="#3B80B0" points="30.03,153.668 30.03,157.939 30.03,162.209 32.347,162.209 32.347,157.939 32.347,153.668 
		32.347,149.396 33.406,149.396 31.188,146.848 28.97,149.396 30.03,149.396 	"/>
	<polygon fill="#3B80B0" points="34.969,157.939 34.969,162.209 37.286,162.209 37.286,157.939 37.286,153.668 38.345,153.668 
		36.127,151.118 33.909,153.668 34.969,153.668 	"/>
	<polygon fill="#3B80B0" points="39.906,153.668 39.906,157.939 39.906,162.209 42.224,162.209 42.224,157.939 42.224,153.668 
		42.224,149.396 43.284,149.396 41.065,146.848 38.848,149.396 39.906,149.396 	"/>
	<path fill="#3B80B0" d="M46.417,143.073v-2.053H15.958v2.053h0.797v21.189h-0.797v2.052H29.99l-8.081,8.081h2.903l5.351-5.349
		v5.349h2.052v-5.349l5.35,5.349h2.903l-8.082-8.081h14.032v-2.052H45.62v-21.189H46.417z M44.801,157.939v6.324H17.575v-6.324
		v-14.866h27.226V157.939z"/>
</g>
<g opacity="0.6">
	<rect x="67.305" y="310.638" fill="#3B80B0" width="6.38" height="6.381"/>
	<path fill="#3B80B0" d="M50.642,320.258c-1.228,0-2.355-0.422-3.257-1.122l-3.255,3.846h13.025l-3.256-3.846
		C52.997,319.836,51.869,320.258,50.642,320.258z"/>
	<path fill="#3B80B0" d="M69.892,306.071l0,3.893h1.404l0-5.297h-3.645c0.226,0.439,0.377,0.911,0.454,1.404H69.892z"/>
	<path fill="#3B80B0" d="M62.739,311.438c-0.493-0.077-0.966-0.229-1.405-0.453v3.644h5.298v-1.405h-3.893V311.438z"/>
	<path fill="#3B80B0" d="M59.538,304.238c0.078-0.118,0.162-0.233,0.25-0.345c0.139-0.174,0.247-0.296,0.361-0.411
		c0.116-0.114,0.236-0.222,0.361-0.324c0.161-0.125,0.276-0.209,0.396-0.288c0.284-0.181,0.564-0.325,0.858-0.439l-6.748-6.75
		c-0.233,0.599-0.586,1.148-1.054,1.615c-0.341,0.34-0.727,0.621-1.142,0.841c-0.153,0.081-0.313,0.15-0.473,0.213
		c-0.538,0.208-1.113,0.322-1.706,0.322c-0.772,0-1.515-0.187-2.18-0.536v11.951c0.666-0.301,1.403-0.472,2.179-0.472
		c0.777,0,1.514,0.172,2.18,0.472v-11.264l6.275,6.275C59.211,304.804,59.354,304.523,59.538,304.238z"/>
	<path fill="#3B80B0" d="M50.642,319.584c2.567,0,4.647-2.081,4.647-4.647c0-2.567-2.08-4.647-4.647-4.647
		c-2.567,0-4.647,2.08-4.647,4.647C45.995,317.503,48.075,319.584,50.642,319.584z M50.642,312.853c1.15,0,2.083,0.934,2.083,2.084
		s-0.933,2.082-2.083,2.082c-1.151,0-2.083-0.932-2.083-2.082S49.491,312.853,50.642,312.853z"/>
	<path fill="#3B80B0" d="M53.486,296.818c1.571-1.569,1.572-4.117,0-5.689c-1.571-1.568-4.117-1.569-5.688,0
		c-1.57,1.572-1.571,4.12,0,5.689C49.369,298.39,51.915,298.39,53.486,296.818z M49.489,292.822c0.637-0.637,1.669-0.637,2.306,0
		c0.637,0.635,0.637,1.669,0,2.305c-0.637,0.639-1.669,0.639-2.306,0C48.852,294.491,48.852,293.457,49.489,292.822z"/>
	<path fill="#3B80B0" d="M66.315,309.646c1.571-1.568,1.571-4.116,0-5.687c-1.57-1.572-4.118-1.572-5.688,0
		c-1.571,1.57-1.571,4.117,0,5.688C62.197,311.219,64.745,311.219,66.315,309.646z M62.317,307.956
		c-0.637-0.636-0.636-1.668,0-2.307c0.637-0.636,1.669-0.638,2.307,0c0.637,0.639,0.637,1.671,0,2.307
		C63.987,308.593,62.955,308.593,62.317,307.956z"/>
</g>
<path opacity="0.6" fill="#3B80B0" d="M130.231,264.135c-1.226,0-2.307,0.617-2.951,1.558l-5.066-2.534
	c0.122-0.36,0.19-0.744,0.19-1.146c0-1.978-1.603-3.58-3.58-3.58c-1.225,0-2.307,0.617-2.952,1.558
	c-1.581-0.791-3.486-1.744-5.066-2.534c0.122-0.36,0.191-0.747,0.191-1.147c0-0.402-0.07-0.787-0.191-1.147l5.067-2.533
	c0.645,0.939,1.727,1.556,2.952,1.556c1.977,0,3.58-1.601,3.58-3.578c0-1.977-1.603-3.58-3.58-3.58c-1.976,0-3.58,1.604-3.58,3.58
	c0,0.4,0.07,0.787,0.192,1.147l-5.067,2.532c-0.645-0.938-1.727-1.556-2.952-1.556c-1.976,0-3.579,1.603-3.579,3.579
	c0,1.978,1.603,3.58,3.579,3.58c0.56,0,1.087-0.132,1.559-0.362l5.459,8.188l-5.459,8.189c-0.472-0.229-0.999-0.36-1.559-0.36
	c-1.976,0-3.579,1.601-3.579,3.578c0,1.977,1.603,3.58,3.579,3.58c1.226,0,2.308-0.616,2.952-1.557l5.067,2.532
	c-0.123,0.36-0.192,0.746-0.192,1.149c0,1.977,1.603,3.578,3.58,3.578c1.977,0,3.58-1.602,3.58-3.578c0-1.978-1.603-3.58-3.58-3.58
	c-1.226,0-2.307,0.616-2.952,1.556l-5.066-2.532c0.122-0.36,0.191-0.746,0.191-1.148s-0.07-0.787-0.191-1.147
	c1.581-0.79,3.485-1.743,5.066-2.534c0.645,0.941,1.726,1.559,2.952,1.559c1.977,0,3.58-1.604,3.58-3.58
	c0-0.402-0.069-0.787-0.19-1.147l5.066-2.534c0.645,0.94,1.725,1.558,2.951,1.558c1.977,0,3.58-1.603,3.58-3.579
	C133.811,265.737,132.208,264.135,130.231,264.135z M109.79,258.983c0.218-0.193,0.415-0.412,0.58-0.653
	c2.232,1.115,3.868,1.934,5.067,2.534c-0.123,0.36-0.192,0.746-0.192,1.147c0,1.066,0.47,2.02,1.208,2.675l-1.431,2.146
	L109.79,258.983z M110.37,277.099c-0.166-0.241-0.362-0.46-0.581-0.653l5.233-7.85l1.43,2.146c-0.739,0.655-1.208,1.608-1.208,2.676
	c0,0.402,0.07,0.789,0.192,1.149C114.237,275.166,112.602,275.983,110.37,277.099z M121.781,271.4
	c-0.646-0.941-1.729-1.561-2.957-1.561c-0.56,0-1.086,0.131-1.558,0.359l-1.656-2.484l1.657-2.484
	c0.471,0.229,0.999,0.36,1.558,0.36c1.226,0,2.307-0.617,2.953-1.558l5.066,2.534c-0.121,0.36-0.191,0.746-0.191,1.147
	c0,0.402,0.07,0.787,0.191,1.147C125.264,269.654,123.36,270.606,121.781,271.4z"/>
<path opacity="0.6" fill="#3B80B0" d="M274.039,142.061c-1.843,0-3.335,1.493-3.335,3.335c0,0.28,0.037,0.551,0.103,0.811
	l-9.201,3.475l3.907-6.87c0.247,0.092,0.513,0.148,0.792,0.148c1.272,0,2.302-1.031,2.302-2.301c0-1.271-1.029-2.301-2.302-2.301
	c-1.271,0-2.301,1.03-2.301,2.301c0,0.697,0.316,1.313,0.805,1.735l-3.78,6.649v-7.599c0.71-0.184,1.234-0.82,1.234-1.587
	c0-0.908-0.735-1.644-1.644-1.644c-0.907,0-1.643,0.736-1.643,1.644c0,0.767,0.526,1.404,1.234,1.587v8.442l-8.111-4.611
	c0.141-0.327,0.219-0.687,0.219-1.063c0-1.499-1.216-2.712-2.712-2.712c-1.497,0-2.71,1.213-2.71,2.712
	c0,1.496,1.213,2.71,2.71,2.71c0.826,0,1.564-0.371,2.062-0.953l7.888,4.486l-8.07,3.046c-0.665-1.394-2.083-2.359-3.731-2.359
	c-2.286,0-4.14,1.854-4.14,4.14c0,2.288,1.854,4.14,4.14,4.14s4.139-1.852,4.139-4.14c0-0.349-0.048-0.687-0.129-1.012l8.014-3.025
	l-5.249,9.231c-0.132-0.034-0.267-0.058-0.409-0.058c-0.909,0-1.644,0.736-1.644,1.642c0,0.909,0.734,1.645,1.644,1.645
	c0.907,0,1.643-0.736,1.643-1.645c0-0.47-0.2-0.892-0.518-1.19l4.967-8.738v7.329c-1.074,0.193-1.892,1.13-1.892,2.262
	c0,1.272,1.029,2.301,2.3,2.301c1.272,0,2.302-1.029,2.302-2.301c0-1.131-0.816-2.066-1.893-2.262v-8.17l9.449,5.372
	c-0.015,0.085-0.027,0.173-0.027,0.262c0,0.908,0.735,1.644,1.644,1.644s1.644-0.736,1.644-1.644c0-0.908-0.735-1.644-1.644-1.644
	c-0.523,0-0.983,0.25-1.284,0.629l-9.335-5.307l9.625-3.634c0.561,1.048,1.666,1.76,2.939,1.76c1.842,0,3.335-1.493,3.335-3.335
	C277.374,143.554,275.881,142.061,274.039,142.061z"/>
<g opacity="0.6">
	<path fill="#3B80B0" d="M262.542,375.466c0.661,0.284,1.126,0.94,1.126,1.705c0,1.024-0.831,1.857-1.855,1.857
		c-1.026,0-1.856-0.833-1.856-1.857c0-0.765,0.464-1.421,1.127-1.705V363.44c-4.841,3.793-7.916,10.823-7.344,18.483
		c0.236,3.146,1.28,5.897,2.799,8.182v-4.872v-8.977c-0.661-0.284-1.126-0.94-1.126-1.706c0-1.025,0.831-1.856,1.857-1.856
		c1.023,0,1.854,0.831,1.854,1.856c0,0.766-0.464,1.422-1.125,1.706v8.977V392c0.937,1.059,1.98,1.983,3.084,2.753v-7.197v-5.204
		l4.645-4.645v-8.587c-0.715-0.258-1.227-0.936-1.227-1.739c0-1.025,0.83-1.856,1.855-1.856c1.024,0,1.854,0.831,1.854,1.856
		c0,0.725-0.418,1.345-1.023,1.651v9.279l-4.646,4.646v4.599v8.102c1.011,0.563,2.048,1.013,3.084,1.328v-5.879v-4.92
		c-0.662-0.284-1.125-0.94-1.125-1.706c0-1.025,0.83-1.856,1.855-1.856c1.024,0,1.854,0.831,1.854,1.856
		c0,0.766-0.463,1.422-1.126,1.706v4.92v6.235c0.726,0.137,1.438,0.209,2.132,0.209v-37.046c-2.394,0-4.653,0.698-6.675,1.925
		V375.466z"/>
	<path fill="#3B80B0" d="M279.995,363.44v12.025c0.663,0.284,1.127,0.94,1.127,1.705c0,1.024-0.83,1.857-1.857,1.857
		c-1.023,0-1.854-0.833-1.854-1.857c0-0.765,0.463-1.421,1.126-1.705V362.43c-2.021-1.227-4.281-1.925-6.675-1.925v37.046
		c0.692,0,1.406-0.072,2.131-0.208c0-0.001,0-6.236,0-6.236v-4.92c-0.662-0.284-1.125-0.94-1.125-1.706
		c0-1.025,0.83-1.856,1.854-1.856s1.856,0.831,1.856,1.856c0,0.766-0.464,1.422-1.126,1.706v4.92v5.879
		c1.035-0.315,2.072-0.765,3.084-1.328v-8.102v-4.599l-4.646-4.646v-9.279c-0.605-0.307-1.023-0.927-1.023-1.651
		c0-1.025,0.83-1.856,1.854-1.856s1.856,0.831,1.856,1.856c0,0.804-0.513,1.481-1.228,1.739v8.587l4.645,4.645v5.204v7.197
		c1.104-0.77,2.146-1.694,3.084-2.753v-6.767v-8.977c-0.661-0.284-1.125-0.94-1.125-1.706c0-1.025,0.83-1.856,1.854-1.856
		c1.026,0,1.857,0.831,1.857,1.856c0,0.766-0.465,1.422-1.126,1.706v8.977v4.872c1.518-2.284,2.563-5.035,2.799-8.182
		C287.911,374.264,284.836,367.233,279.995,363.44z"/>
</g>
<g opacity="0.6">
	<path fill="#3B80B0" d="M72.1,61.503c0-2.205,3.568-3.359,7.092-3.359c3.524,0,7.092,1.154,7.092,3.359v1.148l6.734-2.411
		L79.25,55.313L65.483,60.24l6.616,2.37V61.503z"/>
	<path fill="#3B80B0" d="M96.818,87.174c0-1.655-1.341-2.999-2.997-2.999c-1.655,0-2.997,1.343-2.997,2.999
		c0,1.154,0.658,2.147,1.615,2.647c0,0.297,0,0.605,0,0.909c-1.443-0.56-2.435-1.964-2.435-3.556c0-0.406,0.065-0.796,0.183-1.163
		c-0.514,0.212-0.885,0.79-0.885,1.476c0,0,0,6.084,0,6.085h0.733h1.163h0.732h0.51h0.805h0.069v-6.08h1.388v6.08
		c0,0,0.875,0,0.875-0.001v-6.084c0-0.106-0.01-0.212-0.031-0.313H96.818z"/>
	<path fill="#3B80B0" d="M76.544,74.114c0-0.953-0.772-1.726-1.726-1.726c-0.293,0-0.564,0.078-0.806,0.206
		c0.121,0.125,0.197,0.294,0.197,0.481c0,0.379-0.308,0.686-0.687,0.686c-0.135,0-0.253-0.048-0.359-0.116
		c-0.043,0.15-0.072,0.305-0.072,0.469c0,0.953,0.772,1.727,1.727,1.727C75.772,75.84,76.544,75.067,76.544,74.114z"/>
	<path fill="#3B80B0" d="M84.461,75.84c0.954,0,1.727-0.773,1.727-1.727s-0.772-1.726-1.727-1.726c-0.292,0-0.563,0.078-0.804,0.206
		c0.121,0.125,0.197,0.294,0.197,0.481c0,0.379-0.308,0.686-0.687,0.686c-0.134,0-0.253-0.048-0.359-0.116
		c-0.043,0.15-0.072,0.305-0.072,0.469C82.736,75.067,83.508,75.84,84.461,75.84z"/>
	<path fill="#3B80B0" d="M77.826,91.993c-0.49,0.126-1.016,0.22-1.574,0.281v-1.167h-3.227v6.326h3.227v-3.945
		c0.551-0.058,1.077-0.142,1.574-0.255V91.993z"/>
	<path fill="#3B80B0" d="M80.676,90.583v1.508c1.85-1.165,2.968-2.99,3.236-5.387h3.059c1.933,0,3.501-1.568,3.501-3.502v-1.797
		c0.786,0.556,1.424,1.301,1.885,2.245c0.376-0.157,0.782-0.252,1.207-0.28c-0.681-1.533-1.725-2.685-3.092-3.412V69.269
		c0-1.935-1.568-3.5-3.501-3.5H72.308c-1.933,0-3.501,1.566-3.501,3.5v9.133c-2.718-0.201-4.586-1.618-5.491-4.091
		c1.121-0.434,1.918-1.524,1.918-2.811V66.2c0-0.571-0.462-1.033-1.032-1.033S63.17,65.629,63.17,66.2v2.469
		c-0.293-0.095-0.606-0.149-0.933-0.149c-1.656,0-2.998,1.341-2.998,2.996c0,1.61,1.269,2.918,2.859,2.991
		c1.039,3.094,3.352,4.891,6.708,5.105v3.59c0,1.934,1.568,3.502,3.501,3.502h6.337v7.502h-1.008l0,3.227h6.325v-3.227h-4.106
		v-7.502h2.832C82.474,88.34,81.79,89.64,80.676,90.583z M84.461,69.826c1.539,0,2.785,1.543,2.785,3.447
		c0,1.903-1.246,3.448-2.785,3.448c-1.538,0-2.784-1.544-2.784-3.448C81.677,71.369,82.923,69.826,84.461,69.826z M72.033,73.272
		c0-1.904,1.247-3.447,2.785-3.447c1.537,0,2.784,1.543,2.784,3.447c0,1.903-1.247,3.448-2.784,3.448
		C73.28,76.72,72.033,75.176,72.033,73.272z M79.628,83.112c-2.239-0.006-4.249-1.055-5.398-2.804l1.013-0.666
		c0.925,1.409,2.558,2.251,4.385,2.258c1.82,0,3.468-0.844,4.411-2.26l1.008,0.672C83.879,82.066,81.855,83.112,79.628,83.112z"/>
	<path fill="#3B80B0" d="M72.919,61.503v3.446h0.819h4.899h1.226h4.781h0.82v-3.446c0-1.402-2.809-2.539-6.273-2.539
		C75.728,58.964,72.919,60.101,72.919,61.503z"/>
</g>
<g opacity="0.6">
	<path fill="#3B80B0" d="M328.348,77.323c0-0.957-0.777-1.734-1.735-1.734c-0.296,0-0.566,0.079-0.811,0.208
		c0.122,0.124,0.198,0.295,0.198,0.482c0,0.383-0.309,0.69-0.69,0.69c-0.136,0-0.255-0.049-0.361-0.117
		c-0.043,0.151-0.073,0.307-0.073,0.471c0,0.959,0.776,1.736,1.737,1.736C327.57,79.06,328.348,78.282,328.348,77.323z"/>
	<path fill="#3B80B0" d="M336.307,75.589c-0.294,0-0.566,0.078-0.809,0.208c0.121,0.124,0.197,0.295,0.197,0.482
		c0,0.383-0.309,0.69-0.691,0.69c-0.135,0-0.254-0.049-0.359-0.117c-0.044,0.151-0.073,0.307-0.073,0.471
		c0,0.959,0.775,1.736,1.735,1.736c0.961,0,1.735-0.777,1.735-1.736C338.042,76.366,337.268,75.589,336.307,75.589z"/>
	<path fill="#3B80B0" d="M313.011,73.267v1.5h1.037h1.034v-1.5c0.373-0.095,0.728-0.243,1.059-0.438l1.061,1.061l1.466-1.463
		l-1.062-1.063c0.195-0.331,0.344-0.686,0.438-1.058h1.501v-2.071h-1.501c-0.094-0.374-0.242-0.727-0.438-1.059l1.06-1.061
		l-1.464-1.464l-1.061,1.062c-0.331-0.197-0.686-0.345-1.059-0.439v-1.5h-1.034h-1.037v1.5c-0.372,0.096-0.726,0.243-1.059,0.437
		l-1.062-1.06l-1.461,1.464l1.059,1.061c-0.195,0.332-0.342,0.686-0.438,1.06l-1.499-0.001v2.071h1.499
		c0.096,0.373,0.242,0.727,0.438,1.058l-1.059,1.063l1.463,1.463l1.06-1.061C312.286,73.024,312.639,73.173,313.011,73.267z
		 M314.048,66.811c1.357,0,2.46,1.102,2.46,2.461c0,1.358-1.101,2.459-2.46,2.459c-1.36-0.001-2.46-1.101-2.46-2.461
		C311.588,67.912,312.688,66.811,314.048,66.811z"/>
	<path fill="#3B80B0" d="M351.563,71.136c0-0.532-0.433-0.964-0.965-0.964c-0.437,0-0.802,0.296-0.919,0.695v-0.668
		c0-0.531-0.43-0.961-0.962-0.961c-0.457,0-0.84,0.317-0.937,0.743v-0.613c0-0.573-0.465-1.039-1.039-1.039
		c-0.573,0-1.037,0.466-1.037,1.039c0,0,0,1.287,0,2.599h5.858V71.136z"/>
	<path fill="#3B80B0" d="M348.012,76.181h-1.923c0.341,0.609,0.889,1.084,1.547,1.338c-0.884,2.415-2.681,3.826-5.284,4.092v-9.158
		c0-1.944-1.577-3.521-3.521-3.521h-4.77c0.947-0.945,1.951-1.951,2.654-2.654c0.169,0.07,0.35,0.108,0.542,0.108
		c0.777,0,1.408-0.629,1.408-1.408c0-0.776-0.631-1.406-1.408-1.406s-1.408,0.63-1.408,1.406c0,0.192,0.039,0.375,0.108,0.542
		l-3.413,3.413h-2.175l-3.41-3.413c0.069-0.166,0.107-0.349,0.107-0.542c0-0.776-0.63-1.406-1.407-1.406s-1.407,0.63-1.407,1.406
		c0,0.779,0.63,1.408,1.407,1.408c0.19,0,0.373-0.038,0.54-0.108l2.653,2.654h-4.766c-1.943,0-3.52,1.577-3.52,3.521v9.179
		c-2.732-0.202-4.612-1.626-5.521-4.113c1.094-0.424,1.88-1.465,1.923-2.699l-0.992-0.993c-0.024,0.01-0.05,0.021-0.075,0.032v1.73
		l-1.337-0.001h-1.232h-1.143v-1.729c-0.024-0.01-0.05-0.021-0.075-0.032l-0.935,0.933c0.208,1.693,0.92,2.418,1.558,2.704
		c0.334,0.148,0.7,0.236,1.085,0.255c1.046,3.111,3.37,4.923,6.745,5.141v3.6c0,1.943,1.576,3.522,3.52,3.522h3.472v5.802h-4.128
		v3.245h6.358v-3.245h-1.012v-5.802h5.361v5.802h-1.014l0.002,3.245h6.359v-3.245h-4.127v-5.802h3.471
		c1.943,0,3.521-1.579,3.521-3.522v-3.624c3.245-0.285,5.486-2.081,6.507-5.117c0.384-0.019,0.751-0.107,1.085-0.255
		c0.421-0.187,0.873-0.565,1.193-1.283h-1.887H348.012z M323.811,76.477c0-1.912,1.253-3.464,2.802-3.464
		c1.545,0,2.797,1.552,2.797,3.464c0,1.917-1.252,3.467-2.797,3.467C325.063,79.944,323.811,78.393,323.811,76.477z M331.447,86.37
		c-2.251-0.007-4.271-1.06-5.427-2.819l1.019-0.669c0.929,1.415,2.571,2.263,4.408,2.269c1.831,0,3.486-0.848,4.436-2.27
		l1.013,0.674C335.722,85.319,333.687,86.37,331.447,86.37z M336.307,79.944c-1.547,0-2.799-1.551-2.799-3.467
		c0-1.912,1.252-3.464,2.799-3.464c1.545,0,2.801,1.552,2.801,3.464C339.107,78.393,337.852,79.944,336.307,79.944z"/>
	<path fill="#3B80B0" d="M354.628,74.073c0-0.712,0.576-1.288,1.287-1.288h2.062c-0.477-0.951-1.447-1.608-2.582-1.608
		c-1.134,0-2.106,0.658-2.581,1.608h-3.908h-0.833h-3.907c-0.218-0.435-0.541-0.802-0.935-1.077v4.733
		c0.395-0.276,0.717-0.646,0.935-1.081h3.907h0.833h3.908c0.475,0.952,1.447,1.608,2.581,1.608s2.105-0.656,2.582-1.608h-2.062
		C355.204,75.36,354.628,74.785,354.628,74.073z"/>
</g>
<g opacity="0.6">
	<path fill="#3B80B0" d="M136.471,372.764c0-0.958-0.778-1.736-1.735-1.736c-0.294,0-0.568,0.08-0.81,0.208
		c0.121,0.126,0.197,0.294,0.197,0.482c0,0.382-0.308,0.69-0.689,0.69c-0.136,0-0.255-0.049-0.362-0.117
		c-0.042,0.152-0.073,0.309-0.073,0.473c0,0.958,0.777,1.734,1.737,1.734C135.693,374.498,136.471,373.722,136.471,372.764z"/>
	<path fill="#3B80B0" d="M144.431,371.027c-0.294,0-0.567,0.08-0.809,0.208c0.121,0.126,0.197,0.294,0.197,0.482
		c0,0.382-0.309,0.69-0.691,0.69c-0.134,0-0.254-0.049-0.36-0.115c-0.042,0.15-0.073,0.307-0.073,0.471
		c0,0.958,0.776,1.734,1.736,1.734c0.96,0,1.736-0.776,1.736-1.734S145.391,371.027,144.431,371.027z"/>
	<path fill="#3B80B0" d="M126.011,386.955h-4.403c-0.866,0-1.568,0.703-1.568,1.568v6.085c0,0.001,0.875,0.001,0.875,0.001h0.693
		h0.694h0.875h0.875h2.654h0.875c0-0.001,0-3.827,0-3.827h-1.362c-0.099,0.57-0.436,0.991-0.838,0.991
		c-0.404,0-0.74-0.421-0.839-0.991h-1.364c0-0.234,0-0.463,0-0.679h1.364c0.099-0.57,0.435-0.991,0.839-0.991
		c0.402,0,0.739,0.421,0.838,0.991h1.362v-1.58C127.58,387.658,126.878,386.955,126.011,386.955z M122.357,393.79h-1.442
		c-0.055,0-0.055-5.267-0.055-5.267c0-0.413,0.336-0.748,0.749-0.748c0.413,0,0.749,0.335,0.749,0.748V393.79z"/>
	<path fill="#3B80B0" d="M152.228,363.082v1.677v1.996c0,1.106,0.896,2.003,2.003,2.003s2.003-0.896,2.003-2.003v-1.996v-1.677
		c1.639-0.756,2.777-2.41,2.777-4.334c0-2.64-2.14-4.78-4.78-4.78s-4.78,2.141-4.78,4.78
		C149.45,360.672,150.589,362.326,152.228,363.082z M156.108,356.257c0.49,0,0.888,0.396,0.888,0.888
		c0,0.489-0.397,0.888-0.888,0.888s-0.888-0.398-0.888-0.888C155.221,356.653,155.618,356.257,156.108,356.257z"/>
	<path fill="#3B80B0" d="M157.22,365.611c-0.059,0-0.111,0.019-0.167,0.029v1.114c0,1.558-1.266,2.823-2.823,2.823
		c-0.736,0-1.401-0.289-1.904-0.752c0,0.757,0,1.32,0,1.325c0,1.282,0.801,2.374,1.93,2.81c-0.702,1.917-1.981,3.198-3.782,3.778
		v-8.848c0-1.943-1.577-3.52-3.52-3.52h-4.769c0.945-0.945,1.951-1.95,2.654-2.654c0.167,0.07,0.35,0.107,0.542,0.107
		c0.776,0,1.408-0.629,1.408-1.406c0-0.778-0.632-1.408-1.408-1.408c-0.777,0-1.408,0.63-1.408,1.408
		c0,0.192,0.039,0.374,0.108,0.54l-3.413,3.413h-2.174l-3.412-3.413c0.07-0.166,0.108-0.348,0.108-0.54
		c0-0.778-0.631-1.408-1.409-1.408c-0.777,0-1.408,0.63-1.408,1.408c0,0.777,0.631,1.406,1.408,1.406
		c0.191,0,0.375-0.037,0.541-0.106l2.654,2.653h-4.766c-1.944,0-3.52,1.576-3.52,3.52v9.67c-2.422,0.641-4.121,2.302-4.969,4.827
		c-1.599,0.047-2.881,1.355-2.881,2.964c0,0.307,0.046,0.602,0.133,0.879c0.202-0.055,0.413-0.095,0.633-0.095h0.5
		c0.244-1.055,0.938-1.804,1.789-1.804v0.82c-0.405,0-0.762,0.406-0.943,0.983h3.057c0.222,0,0.432,0.04,0.635,0.097
		c0.086-0.279,0.133-0.574,0.133-0.881c0-1.239-0.761-2.3-1.84-2.744c0.694-1.915,1.962-3.2,3.754-3.781v3.072
		c0,1.944,1.576,3.521,3.52,3.521h3.283v7.501h-4.106v3.229h6.326l0-3.229h-1.008v-7.501h5.75v7.501h-1.008l0,3.229h6.325v-3.229
		h-4.106v-7.501h3.286c1.943,0,3.52-1.577,3.52-3.521v-3.877c2.442-0.644,4.15-2.32,5.004-4.866c0.385-0.018,0.75-0.104,1.085-0.253
		c0.757-0.338,1.62-1.29,1.62-3.738v-2.589C158.183,366.043,157.752,365.611,157.22,365.611z M131.935,371.917
		c0-1.915,1.253-3.466,2.801-3.466c1.545,0,2.797,1.551,2.797,3.466c0,1.914-1.252,3.466-2.797,3.466
		C133.188,375.383,131.935,373.831,131.935,371.917z M139.571,381.81c-2.251-0.007-4.271-1.06-5.428-2.819l1.019-0.669
		c0.929,1.415,2.571,2.262,4.409,2.269c1.83,0,3.486-0.848,4.435-2.27l1.014,0.673C143.845,380.757,141.81,381.81,139.571,381.81z
		 M144.431,375.383c-1.546,0-2.799-1.552-2.799-3.466c0-1.915,1.252-3.466,2.799-3.466c1.545,0,2.799,1.551,2.799,3.466
		C147.23,373.831,145.976,375.383,144.431,375.383z"/>
</g>
<g opacity="0.6">
	<polygon fill="#3B80B0" points="24.489,285.675 26.625,283.777 28.761,285.675 28.761,278.333 24.489,278.333 	"/>
	<polygon fill="#3B80B0" points="29.58,280.97 29.58,282.003 33.629,282.003 33.629,280.97 32.594,280.97 	"/>
	<polygon fill="#3B80B0" points="19.482,249.318 16.491,247.695 14.229,246.466 15.458,248.727 17.083,251.719 37.365,272.002 
		38.565,270.803 39.765,269.603 	"/>
	<path fill="#3B80B0" d="M32.595,274.503H12.342v-13.851v-3.751v-2.715h6.05l-1.035-1.034h-5.015c-2.071,0-3.751,1.679-3.751,3.749
		v21.353c0,2.07,1.68,3.749,3.751,3.749h11.327v-1.033H12.342c-1.498,0-2.716-1.219-2.716-2.716c0-1.498,1.219-2.718,2.716-2.718
		h12.932h7.32h1.035v-1.033v-5.077l-1.035-1.035V274.503z"/>
	<polygon fill="#3B80B0" points="32.595,254.187 32.595,261.273 33.629,262.309 33.629,256.901 33.629,254.187 33.629,253.152 
		32.595,253.152 24.473,253.152 25.508,254.187 	"/>
</g>
</svg>
